  0
SECTION
  2
HEADER
  9
$ACADVER
  1
AC1024
  9
$ACADMAINTVER
 70
6
  9
$DWGCODEPAGE
  3
ANSI_1252
  9
$LASTSAVEDBY
  1
ezdxf
  9
$INSBASE
 10
0.0
 20
0.0
 30
0.0
  9
$EXTMIN
 10
1e+20
 20
1e+20
 30
1e+20
  9
$EXTMAX
 10
-1e+20
 20
-1e+20
 30
-1e+20
  9
$LIMMIN
 10
0.0
 20
0.0
  9
$LIMMAX
 10
420.0
 20
297.0
  9
$ORTHOMODE
 70
0
  9
$REGENMODE
 70
1
  9
$FILLMODE
 70
1
  9
$QTEXTMODE
 70
0
  9
$MIRRTEXT
 70
1
  9
$LTSCALE
 40
1.0
  9
$ATTMODE
 70
1
  9
$TEXTSIZE
 40
2.5
  9
$TRACEWID
 40
1.0
  9
$TEXTSTYLE
  7
Standard
  9
$CLAYER
  8
0
  9
$CELTYPE
  6
ByLayer
  9
$CECOLOR
 62
256
  9
$CELTSCALE
 40
1.0
  9
$DISPSILH
 70
0
  9
$DIMSCALE
 40
1.0
  9
$DIMASZ
 40
2.5
  9
$DIMEXO
 40
0.625
  9
$DIMDLI
 40
3.75
  9
$DIMRND
 40
0.0
  9
$DIMDLE
 40
0.0
  9
$DIMEXE
 40
1.25
  9
$DIMTP
 40
0.0
  9
$DIMTM
 40
0.0
  9
$DIMTXT
 40
2.5
  9
$DIMCEN
 40
2.5
  9
$DIMTSZ
 40
0.0
  9
$DIMTOL
 70
0
  9
$DIMLIM
 70
0
  9
$DIMTIH
 70
0
  9
$DIMTOH
 70
0
  9
$DIMSE1
 70
0
  9
$DIMSE2
 70
0
  9
$DIMTAD
 70
1
  9
$DIMZIN
 70
8
  9
$DIMBLK
  1

  9
$DIMASO
 70
1
  9
$DIMSHO
 70
1
  9
$DIMPOST
  1

  9
$DIMAPOST
  1

  9
$DIMALT
 70
0
  9
$DIMALTD
 70
3
  9
$DIMALTF
 40
0.03937007874
  9
$DIMLFAC
 40
1.0
  9
$DIMTOFL
 70
1
  9
$DIMTVP
 40
0.0
  9
$DIMTIX
 70
0
  9
$DIMSOXD
 70
0
  9
$DIMSAH
 70
0
  9
$DIMBLK1
  1

  9
$DIMBLK2
  1

  9
$DIMSTYLE
  2
ISO-25
  9
$DIMCLRD
 70
0
  9
$DIMCLRE
 70
0
  9
$DIMCLRT
 70
0
  9
$DIMTFAC
 40
1.0
  9
$DIMGAP
 40
0.625
  9
$DIMJUST
 70
0
  9
$DIMSD1
 70
0
  9
$DIMSD2
 70
0
  9
$DIMTOLJ
 70
0
  9
$DIMTZIN
 70
8
  9
$DIMALTZ
 70
0
  9
$DIMALTTZ
 70
0
  9
$DIMUPT
 70
0
  9
$DIMDEC
 70
2
  9
$DIMTDEC
 70
2
  9
$DIMALTU
 70
2
  9
$DIMALTTD
 70
3
  9
$DIMTXSTY
  7
Standard
  9
$DIMAUNIT
 70
0
  9
$DIMADEC
 70
0
  9
$DIMALTRND
 40
0.0
  9
$DIMAZIN
 70
0
  9
$DIMDSEP
 70
44
  9
$DIMATFIT
 70
3
  9
$DIMFRAC
 70
0
  9
$DIMLDRBLK
  1

  9
$DIMLUNIT
 70
2
  9
$DIMLWD
 70
-2
  9
$DIMLWE
 70
-2
  9
$DIMTMOVE
 70
0
  9
$DIMFXL
 40
1.0
  9
$DIMFXLON
 70
0
  9
$DIMJOGANG
 40
0.785398163397
  9
$DIMTFILL
 70
0
  9
$DIMTFILLCLR
 70
0
  9
$DIMARCSYM
 70
0
  9
$DIMLTYPE
  6

  9
$DIMLTEX1
  6

  9
$DIMLTEX2
  6

  9
$DIMTXTDIRECTION
 70
0
  9
$LUNITS
 70
2
  9
$LUPREC
 70
4
  9
$SKETCHINC
 40
1.0
  9
$FILLETRAD
 40
10.0
  9
$AUNITS
 70
0
  9
$AUPREC
 70
2
  9
$MENU
  1
.
  9
$ELEVATION
 40
0.0
  9
$PELEVATION
 40
0.0
  9
$THICKNESS
 40
0.0
  9
$LIMCHECK
 70
0
  9
$CHAMFERA
 40
0.0
  9
$CHAMFERB
 40
0.0
  9
$CHAMFERC
 40
0.0
  9
$CHAMFERD
 40
0.0
  9
$SKPOLY
 70
0
  9
$TDCREATE
 40
2460992.6471180557
  9
$TDUCREATE
 40
2458532.153996898
  9
$TDUPDATE
 40
2460992.6471180557
  9
$TDUUPDATE
 40
2458532.1544311
  9
$TDINDWG
 40
0.0
  9
$TDUSRTIMER
 40
0.0
  9
$USRTIMER
 70
1
  9
$ANGBASE
 50
0.0
  9
$ANGDIR
 70
0
  9
$PDMODE
 70
0
  9
$PDSIZE
 40
0.0
  9
$PLINEWID
 40
0.0
  9
$SPLFRAME
 70
0
  9
$SPLINETYPE
 70
6
  9
$SPLINESEGS
 70
8
  9
$HANDSEED
  5
56
  9
$SURFTAB1
 70
6
  9
$SURFTAB2
 70
6
  9
$SURFTYPE
 70
6
  9
$SURFU
 70
6
  9
$SURFV
 70
6
  9
$UCSBASE
  2

  9
$UCSNAME
  2

  9
$UCSORG
 10
0.0
 20
0.0
 30
0.0
  9
$UCSXDIR
 10
1.0
 20
0.0
 30
0.0
  9
$UCSYDIR
 10
0.0
 20
1.0
 30
0.0
  9
$UCSORTHOREF
  2

  9
$UCSORTHOVIEW
 70
0
  9
$UCSORGTOP
 10
0.0
 20
0.0
 30
0.0
  9
$UCSORGBOTTOM
 10
0.0
 20
0.0
 30
0.0
  9
$UCSORGLEFT
 10
0.0
 20
0.0
 30
0.0
  9
$UCSORGRIGHT
 10
0.0
 20
0.0
 30
0.0
  9
$UCSORGFRONT
 10
0.0
 20
0.0
 30
0.0
  9
$UCSORGBACK
 10
0.0
 20
0.0
 30
0.0
  9
$PUCSBASE
  2

  9
$PUCSNAME
  2

  9
$PUCSORG
 10
0.0
 20
0.0
 30
0.0
  9
$PUCSXDIR
 10
1.0
 20
0.0
 30
0.0
  9
$PUCSYDIR
 10
0.0
 20
1.0
 30
0.0
  9
$PUCSORTHOREF
  2

  9
$PUCSORTHOVIEW
 70
0
  9
$PUCSORGTOP
 10
0.0
 20
0.0
 30
0.0
  9
$PUCSORGBOTTOM
 10
0.0
 20
0.0
 30
0.0
  9
$PUCSORGLEFT
 10
0.0
 20
0.0
 30
0.0
  9
$PUCSORGRIGHT
 10
0.0
 20
0.0
 30
0.0
  9
$PUCSORGFRONT
 10
0.0
 20
0.0
 30
0.0
  9
$PUCSORGBACK
 10
0.0
 20
0.0
 30
0.0
  9
$USERI1
 70
0
  9
$USERI2
 70
0
  9
$USERI3
 70
0
  9
$USERI4
 70
0
  9
$USERI5
 70
0
  9
$USERR1
 40
0.0
  9
$USERR2
 40
0.0
  9
$USERR3
 40
0.0
  9
$USERR4
 40
0.0
  9
$USERR5
 40
0.0
  9
$WORLDVIEW
 70
1
  9
$SHADEDGE
 70
3
  9
$SHADEDIF
 70
70
  9
$TILEMODE
 70
1
  9
$MAXACTVP
 70
64
  9
$PINSBASE
 10
0.0
 20
0.0
 30
0.0
  9
$PLIMCHECK
 70
0
  9
$PEXTMIN
 10
1e+20
 20
1e+20
 30
1e+20
  9
$PEXTMAX
 10
-1e+20
 20
-1e+20
 30
-1e+20
  9
$PLIMMIN
 10
0.0
 20
0.0
  9
$PLIMMAX
 10
420.0
 20
297.0
  9
$UNITMODE
 70
0
  9
$VISRETAIN
 70
1
  9
$PLINEGEN
 70
0
  9
$PSLTSCALE
 70
1
  9
$TREEDEPTH
 70
3020
  9
$CMLSTYLE
  2
Standard
  9
$CMLJUST
 70
0
  9
$CMLSCALE
 40
20.0
  9
$PROXYGRAPHICS
 70
1
  9
$MEASUREMENT
 70
1
  9
$CELWEIGHT
370
-1
  9
$ENDCAPS
280
0
  9
$JOINSTYLE
280
0
  9
$LWDISPLAY
290
0
  9
$INSUNITS
 70
6
  9
$HYPERLINKBASE
  1

  9
$STYLESHEET
  1

  9
$XEDIT
290
1
  9
$CEPSNTYPE
380
0
  9
$PSTYLEMODE
290
1
  9
$FINGERPRINTGUID
  2
{45D4667A-C6E4-45B1-AE18-A7FFBD7C3D02}
  9
$VERSIONGUID
  2
{D3F5F38A-F260-4B8C-BE7D-53B9044FF6DF}
  9
$EXTNAMES
290
1
  9
$PSVPSCALE
 40
0.0
  9
$OLESTARTUP
290
0
  9
$SORTENTS
280
127
  9
$INDEXCTL
280
0
  9
$HIDETEXT
280
1
  9
$XCLIPFRAME
280
1
  9
$HALOGAP
280
0
  9
$OBSCOLOR
 70
257
  9
$OBSLTYPE
280
0
  9
$INTERSECTIONDISPLAY
280
0
  9
$INTERSECTIONCOLOR
 70
257
  9
$DIMASSOC
280
2
  9
$PROJECTNAME
  1

  9
$CAMERADISPLAY
290
0
  9
$LENSLENGTH
 40
50.0
  9
$CAMERAHEIGHT
 40
0.0
  9
$STEPSPERSEC
 40
24.0
  9
$STEPSIZE
 40
100.0
  9
$3DDWFPREC
 40
2.0
  9
$PSOLWIDTH
 40
0.005
  9
$PSOLHEIGHT
 40
0.08
  9
$LOFTANG1
 40
1.570796326795
  9
$LOFTANG2
 40
1.570796326795
  9
$LOFTMAG1
 40
0.0
  9
$LOFTMAG2
 40
0.0
  9
$LOFTPARAM
 70
7
  9
$LOFTNORMALS
280
1
  9
$LATITUDE
 40
37.795
  9
$LONGITUDE
 40
-122.394
  9
$NORTHDIRECTION
 40
0.0
  9
$TIMEZONE
 70
-8000
  9
$LIGHTGLYPHDISPLAY
280
1
  9
$TILEMODELIGHTSYNCH
280
1
  9
$CMATERIAL
347
20
  9
$SOLIDHIST
280
0
  9
$SHOWHIST
280
1
  9
$DWFFRAME
280
2
  9
$DGNFRAME
280
2
  9
$REALWORLDSCALE
290
1
  9
$INTERFERECOLOR
 62
256
  9
$CSHADOW
280
0
  9
$SHADOWPLANELOCATION
 40
0.0
  0
ENDSEC
  0
SECTION
  2
CLASSES
  0
CLASS
  1
ACDBDICTIONARYWDFLT
  2
AcDbDictionaryWithDefault
  3
ObjectDBX Classes
 90
0
 91
0
280
0
281
0
  0
CLASS
  1
SUN
  2
AcDbSun
  3
SCENEOE
 90
1153
 91
0
280
0
281
0
  0
CLASS
  1
VISUALSTYLE
  2
AcDbVisualStyle
  3
ObjectDBX Classes
 90
4095
 91
0
280
0
281
0
  0
CLASS
  1
MATERIAL
  2
AcDbMaterial
  3
ObjectDBX Classes
 90
1153
 91
0
280
0
281
0
  0
CLASS
  1
SCALE
  2
AcDbScale
  3
ObjectDBX Classes
 90
1153
 91
0
280
0
281
0
  0
CLASS
  1
TABLESTYLE
  2
AcDbTableStyle
  3
ObjectDBX Classes
 90
4095
 91
0
280
0
281
0
  0
CLASS
  1
MLEADERSTYLE
  2
AcDbMLeaderStyle
  3
ACDB_MLEADERSTYLE_CLASS
 90
4095
 91
0
280
0
281
0
  0
CLASS
  1
DICTIONARYVAR
  2
AcDbDictionaryVar
  3
ObjectDBX Classes
 90
0
 91
0
280
0
281
0
  0
CLASS
  1
CELLSTYLEMAP
  2
AcDbCellStyleMap
  3
ObjectDBX Classes
 90
1152
 91
0
280
0
281
0
  0
CLASS
  1
MENTALRAYRENDERSETTINGS
  2
AcDbMentalRayRenderSettings
  3
SCENEOE
 90
1024
 91
0
280
0
281
0
  0
CLASS
  1
ACDBDETAILVIEWSTYLE
  2
AcDbDetailViewStyle
  3
ObjectDBX Classes
 90
1025
 91
0
280
0
281
0
  0
CLASS
  1
ACDBSECTIONVIEWSTYLE
  2
AcDbSectionViewStyle
  3
ObjectDBX Classes
 90
1025
 91
0
280
0
281
0
  0
CLASS
  1
RASTERVARIABLES
  2
AcDbRasterVariables
  3
ISM
 90
0
 91
0
280
0
281
0
  0
CLASS
  1
LAYOUT
  2
AcDbLayout
  3
ObjectDBX Classes
 90
0
 91
0
280
0
281
0
  0
CLASS
  1
ACDBPLACEHOLDER
  2
AcDbPlaceHolder
  3
ObjectDBX Classes
 90
0
 91
0
280
0
281
0
  0
ENDSEC
  0
SECTION
  2
TABLES
  0
TABLE
  2
VPORT
  5
8
330
0
100
AcDbSymbolTable
 70
1
  0
VPORT
  5
23
330
8
100
AcDbSymbolTableRecord
100
AcDbViewportTableRecord
  2
*Active
 70
0
 10
0.0
 20
0.0
 11
1.0
 21
1.0
 12
0.0
 22
0.0
 13
0.0
 23
0.0
 14
0.5
 24
0.5
 15
0.5
 25
0.5
 16
0.0
 26
0.0
 36
1.0
 17
0.0
 27
0.0
 37
0.0
 40
1000.0
 41
1.34
 42
50.0
 43
0.0
 44
0.0
 50
0.0
 51
0.0
 71
0
 72
1000
 73
1
 74
3
 75
0
 76
0
 77
0
 78
0
281
0
 65
0
146
0.0
  0
ENDTAB
  0
TABLE
  2
LTYPE
  5
2
330
0
100
AcDbSymbolTable
 70
3
  0
LTYPE
  5
24
330
2
100
AcDbSymbolTableRecord
100
AcDbLinetypeTableRecord
  2
ByBlock
 70
0
  3

 72
65
 73
0
 40
0.0
  0
LTYPE
  5
25
330
2
100
AcDbSymbolTableRecord
100
AcDbLinetypeTableRecord
  2
ByLayer
 70
0
  3

 72
65
 73
0
 40
0.0
  0
LTYPE
  5
26
330
2
100
AcDbSymbolTableRecord
100
AcDbLinetypeTableRecord
  2
Continuous
 70
0
  3

 72
65
 73
0
 40
0.0
  0
ENDTAB
  0
TABLE
  2
LAYER
  5
1
330
0
100
AcDbSymbolTable
 70
2
  0
LAYER
  5
27
330
1
100
AcDbSymbolTableRecord
100
AcDbLayerTableRecord
  2
0
 70
0
 62
7
  6
Continuous
370
-3
390
13
347
21
  0
LAYER
  5
28
330
1
100
AcDbSymbolTableRecord
100
AcDbLayerTableRecord
  2
Defpoints
 70
0
 62
7
  6
Continuous
290
0
370
-3
390
13
347
21
  0
ENDTAB
  0
TABLE
  2
STYLE
  5
5
330
0
100
AcDbSymbolTable
 70
1
  0
STYLE
  5
29
330
5
100
AcDbSymbolTableRecord
100
AcDbTextStyleTableRecord
  2
Standard
 70
0
 40
0.0
 41
1.0
 50
0.0
 71
0
 42
2.5
  3
txt
  4

  0
ENDTAB
  0
TABLE
  2
VIEW
  5
7
330
0
100
AcDbSymbolTable
 70
0
  0
ENDTAB
  0
TABLE
  2
UCS
  5
6
330
0
100
AcDbSymbolTable
 70
0
  0
ENDTAB
  0
TABLE
  2
APPID
  5
3
330
0
100
AcDbSymbolTable
 70
3
  0
APPID
  5
2A
330
3
100
AcDbSymbolTableRecord
100
AcDbRegAppTableRecord
  2
ACAD
 70
0
  0
APPID
  5
53
330
3
100
AcDbSymbolTableRecord
100
AcDbRegAppTableRecord
  2
HATCHBACKGROUNDCOLOR
 70
0
  0
APPID
  5
54
330
3
100
AcDbSymbolTableRecord
100
AcDbRegAppTableRecord
  2
EZDXF
 70
0
  0
ENDTAB
  0
TABLE
  2
DIMSTYLE
  5
4
330
0
100
AcDbSymbolTable
 70
1
100
AcDbDimStyleTable
  0
DIMSTYLE
105
2B
330
4
100
AcDbSymbolTableRecord
100
AcDbDimStyleTableRecord
  2
Standard
 70
0
 40
1.0
 41
2.5
 42
0.625
 43
3.75
 44
1.25
 45
0.0
 46
0.0
 47
0.0
 48
0.0
 49
2.5
140
2.5
141
2.5
142
0.0
143
0.03937007874
144
1.0
145
0.0
146
1.0
147
0.625
148
0.0
 69
0
 70
0
 71
0
 72
0
 73
0
 74
0
 75
0
 76
0
 77
1
 78
8
 79
3
170
0
171
3
172
1
173
0
174
0
175
0
176
0
177
0
178
0
179
2
271
2
272
2
273
2
274
3
275
0
276
0
277
2
278
44
279
0
280
0
281
0
282
0
283
0
284
8
285
0
286
0
288
0
289
3
290
0
371
-2
372
-2
  0
ENDTAB
  0
TABLE
  2
BLOCK_RECORD
  5
9
330
0
100
AcDbSymbolTable
 70
2
  0
BLOCK_RECORD
  5
17
330
9
100
AcDbSymbolTableRecord
100
AcDbBlockTableRecord
  2
*Model_Space
340
1A
 70
0
280
1
281
0
  0
BLOCK_RECORD
  5
1B
330
9
100
AcDbSymbolTableRecord
100
AcDbBlockTableRecord
  2
*Paper_Space
340
1E
 70
0
280
1
281
0
  0
ENDTAB
  0
ENDSEC
  0
SECTION
  2
BLOCKS
  0
BLOCK
  5
18
330
17
100
AcDbEntity
  8
0
100
AcDbBlockBegin
  2
*Model_Space
 70
0
 10
0.0
 20
0.0
 30
0.0
  3
*Model_Space
  1

  0
ENDBLK
  5
19
330
17
100
AcDbEntity
  8
0
100
AcDbBlockEnd
  0
BLOCK
  5
1C
330
1B
100
AcDbEntity
  8
0
100
AcDbBlockBegin
  2
*Paper_Space
 70
0
 10
0.0
 20
0.0
 30
0.0
  3
*Paper_Space
  1

  0
ENDBLK
  5
1D
330
1B
100
AcDbEntity
  8
0
100
AcDbBlockEnd
  0
ENDSEC
  0
SECTION
  2
ENTITIES
  0
LWPOLYLINE
  5
2F
330
17
100
AcDbEntity
  8
0
100
AcDbPolyline
 90
201
 70
0
 10
0.0
 20
0.0
 10
0.0
 20
230.0
 10
37.833009123
 20
230.2845573972
 10
75.029569251
 20
230.5080875982
 10
111.594857136
 20
230.671330259
 10
147.534049236
 20
230.77502788430002
 10
182.852322303
 20
230.819925604
 10
217.554852942
 20
230.8067712605
 10
251.646817611
 20
230.7363152013
 10
285.133393062
 20
230.6093103535
 10
318.019755753
 20
230.4265120327
 10
350.311082583
 20
230.1886779746
 10
382.012549863
 20
229.89656816209998
 10
413.129334198
 20
229.55094495039998
 10
443.66661234
 20
229.1525728127
 10
473.629561041
 20
228.702218338
 10
503.023356612
 20
228.20065022609998
 10
531.853175658
 20
227.6486391583
 10
560.124195078
 20
227.04695782049998
 10
587.841591183
 20
226.3963807083
 10
615.010540725
 20
225.6976842549
 10
641.636220456
 20
224.95164654939998
 10
667.723806687
 20
224.15904753860002
 10
693.27847617
 20
223.3206687384
 10
718.30540551
 20
222.4372932963
 10
742.809771312
 20
221.5097059695
 10
766.796750181
 20
220.5386929184
 10
790.271518722
 20
219.5250418902
 10
813.23925354
 20
218.46954192020002
 10
835.70513124
 20
217.3729834239
 10
857.674328427
 20
216.2361581273
 10
879.152021706
 20
215.059858999
 10
900.143387829
 20
213.84488020499998
 10
920.653603107
 20
212.5920170559
 10
940.687844439
 20
211.30206597379998
 10
960.251288283
 20
209.975824433
 10
979.349111244
 20
208.614090876
 10
997.986490074
 20
207.2176647818
 10
1016.168601084
 20
205.7873464981
 10
1033.900621173
 20
204.3239372539
 10
1051.187726799
 20
202.82823912359999
 10
1068.035094714
 20
201.3010548984
 10
1084.447901376
 20
199.7431882167
 10
1100.43132339
 20
198.1554433629
 10
1115.990537508
 20
196.53862529010001
 10
1131.130720188
 20
194.8935395458
 10
1145.857048035
 20
193.2209923233
 10
1160.174697801
 20
191.5217903006
 10
1174.088846091
 20
189.7967406832
 10
1187.604669363
 20
188.0466511345
 10
1200.727344222
 20
186.2723297568
 10
1213.46204742
 20
184.4745850683
 10
1225.813955562
 20
182.6542259072
 10
1237.788245106
 20
180.812061432
 10
1249.390092657
 20
178.9489011481
 10
1260.624675114
 20
177.0655547714
 10
1271.497168788
 20
175.1628322635
 10
1282.012750284
 20
173.2415437738
 10
1292.176596354
 20
171.3024995914
 10
1301.99388375
 20
169.3465102124
 10
1311.469788636
 20
167.3743861257
 10
1320.609488058
 20
165.386937969
 10
1329.418158327
 20
163.38497641700002
 10
1337.900976195
 20
161.3693121958
 10
1346.063118267
 20
159.3407558918
 10
1353.909761148
 20
157.3001181832
 10
1361.446081296
 20
155.24820967760002
 10
1368.67725561
 20
153.1858408728
 10
1375.608460401
 20
151.1138220986
 10
1382.244872421
 20
149.032963644
 10
1388.591668275
 20
146.94407558950002
 10
1394.654024715
 20
144.847967902
 10
1400.437118052
 20
142.7454502673
 10
1405.946125038
 20
140.63733216949998
 10
1411.186222278
 20
138.5244228839
 10
1416.162586377
 20
136.4075314559
 10
1420.880394087
 20
134.2874665644
 10
1425.344821719
 20
132.1650366993
 10
1429.561046025
 20
130.0410499416
 10
1433.534243757
 20
127.9163140965
 10
1437.269591373
 20
125.7916366435
 10
1440.772265478
 20
123.6678246728
 10
1444.047442677
 20
121.5456848837
 10
1447.100299575
 20
119.4260236077
 10
1449.936012924
 20
117.3096468557
 10
1452.559759182
 20
115.1973600833
 10
1454.976714954
 20
113.0899684489
 10
1457.192056845
 20
110.9882766046
 10
1459.210961607
 20
108.8930888137
 10
1461.038605698
 20
106.8052088065
 10
1462.68016587
 20
104.7254399264
 10
1464.140818581
 20
102.6545850526
 10
1465.425740436
 20
100.59344653759999
 10
1466.540108187
 20
98.5428262755
 10
1467.489098292
 20
96.50352567370001
 10
1468.277887503
 20
94.47634568340001
 10
1468.911652278
 20
92.46208665399999
 10
1469.395569369
 20
90.46154854779999
 10
1469.734815234
 20
88.47553077110001
 10
1469.934566625
 20
86.5048322282
 10
1470.0
 20
84.55025131350001
 10
1470.0
 20
81.55036131349999
 10
1469.934566625
 20
80.82633550220001
 10
1469.734815234
 20
80.0940865341
 10
1469.395569369
 20
79.35381225980001
 10
1468.911652278
 20
78.60570999699999
 10
1468.277887503
 20
77.84997656140001
 10
1467.489098292
 20
77.0868082817
 10
1466.540108187
 20
76.31640100749999
 10
1465.425740436
 20
75.53895003260001
 10
1464.140818581
 20
74.7546501946
 10
1462.68016587
 20
73.96369584440001
 10
1461.038605698
 20
73.1662808515
 10
1459.210961607
 20
72.36259858170001
 10
1457.192056845
 20
71.55284195959999
 10
1454.976714954
 20
70.73720345390001
 10
1452.559759182
 20
69.9158750693
 10
1449.936012924
 20
69.0890483757
 10
1447.100299575
 20
68.2569144597
 10
1444.047442677
 20
67.4196640877
 10
1440.772265478
 20
66.5774875168
 10
1437.269591373
 20
65.7305746605
 10
1433.534243757
 20
64.87911501849999
 10
1429.561046025
 20
64.0232977686
 10
1425.344821719
 20
63.1633116763
 10
1420.880394087
 20
62.2993451584
 10
1416.162586377
 20
61.43158635590001
 10
1411.186222278
 20
60.56022306989999
 10
1405.946125038
 20
59.685442820499986
 10
1400.437118052
 20
58.80743280729999
 10
1394.654024715
 20
57.92638002300001
 10
1388.591668275
 20
57.04247118250001
 10
1382.244872421
 20
56.15589284500001
 10
1375.608460401
 20
55.26683131159999
 10
1368.67725561
 20
54.37547272379999
 10
1361.446081296
 20
53.48200303760001
 10
1353.909761148
 20
52.58660814519999
 10
1346.063118267
 20
51.689473793800005
 10
1337.900976195
 20
50.790785620799994
 10
1329.418158327
 20
49.89072921600001
 10
1320.609488058
 20
48.98949016899999
 10
1311.469788636
 20
48.08725404469999
 10
1301.99388375
 20
47.18420639039999
 10
1292.176596354
 20
46.28053281339999
 10
1282.012750284
 20
45.37641904680001
 10
1271.497168788
 20
44.472050839500014
 10
1260.624675114
 20
43.56761417039999
 10
1249.390092657
 20
42.66329508909999
 10
1237.788245106
 20
41.759279902
 10
1225.813955562
 20
40.8557551152
 10
1213.46204742
 20
39.9529074683
 10
1200.727344222
 20
39.05092404780001
 10
1187.604669363
 20
38.1499922605
 10
1174.088846091
 20
37.25029978719999
 10
1160.174697801
 20
36.352034816599996
 10
1145.857048035
 20
35.45538590730001
 10
1131.130720188
 20
34.56054207579999
 10
1115.990537508
 20
33.66769288910001
 10
1100.43132339
 20
32.77702842190001
 10
1084.447901376
 20
31.888739325699987
 10
1068.035094714
 20
31.003016892400012
 10
1051.187726799
 20
30.120053105599993
 10
1033.900621173
 20
29.24004057190001
 10
1016.168601084
 20
28.363172676099992
 10
997.986490074
 20
27.489643657800002
 10
979.349111244
 20
26.619648487000006
 10
960.251288283
 20
25.75338303800001
 10
940.687844439
 20
24.891044122799997
 10
920.653603107
 20
24.032829497899996
 10
900.143387829
 20
23.178937956999988
 10
879.152021706
 20
22.32956927699999
 10
857.674328427
 20
21.484924415299986
 10
835.70513124
 20
20.645205450899994
 10
813.23925354
 20
19.810615637199987
 10
790.271518722
 20
18.9813595162
 10
766.796750181
 20
18.157642871399986
 10
742.809771312
 20
17.339672912499992
 10
718.30540551
 20
16.527658160300007
 10
693.27847617
 20
15.721808676400002
 10
667.723806687
 20
14.922335948599994
 10
641.636220456
 20
14.129453074400004
 10
615.010540725
 20
13.343374736899989
 10
587.841591183
 20
12.564317280300003
 10
560.124195078
 20
11.792498837500005
 10
531.853175658
 20
11.028139197299993
 10
503.023356612
 20
10.27146010909999
 10
473.629561041
 20
9.522685155000005
 10
443.66661234
 20
8.782039875700008
 10
413.129334198
 20
8.049751793399992
 10
382.012549863
 20
7.326050564100001
 10
350.311082583
 20
6.61116795960001
 10
318.019755753
 20
5.905337892599988
 10
285.133393062
 20
5.208796579499989
 10
251.646817611
 20
4.521782529299998
 10
217.554852942
 20
3.844536671500009
 10
182.852322303
 20
3.17730232400001
 10
147.534049236
 20
2.5203253843000084
 10
111.594857136
 20
1.8738542320000136
 10
75.029569251
 20
1.2381399822000105
 10
37.833009123
 20
0.6134363751999956
 10
0.0
 20
0.0
  0
LWPOLYLINE
  5
30
330
17
100
AcDbEntity
  8
0
100
AcDbPolyline
 90
2
 70
0
 10
0.0
 20
64.4
 10
1470.0
 20
82.36033161028001
  0
LWPOLYLINE
  5
31
330
17
100
AcDbEntity
  8
0
100
AcDbPolyline
 90
2
 70
0
 10
0.0
 20
250.0
 10
0.0
 20
265.0
  0
TEXT
  5
32
330
17
100
AcDbEntity
  8
0
100
AcDbText
 10
0.0
 20
285.0
 30
0.0
 40
7.0
  1
'PC2-100'
 72
1
 11
0.0
 21
285.0
 31
0.0
100
AcDbText
  0
TEXT
  5
33
330
17
100
AcDbEntity
  8
0
100
AcDbText
 10
0.0
 20
270.0
 30
0.0
 40
7.0
  1
JX-G-Root
 72
1
 11
0.0
 21
270.0
 31
0.0
100
AcDbText
  0
LWPOLYLINE
  5
34
330
17
100
AcDbEntity
  8
0
100
AcDbPolyline
 90
2
 70
0
 10
99.99969
 20
250.6257629027
 10
99.99969
 20
265.6257629027
  0
TEXT
  5
35
330
17
100
AcDbEntity
  8
0
100
AcDbText
 10
99.99969
 20
285.6257629027
 30
0.0
 40
7.0
  1
'PC2-100'
 72
1
 11
99.99969
 21
285.6257629027
 31
0.0
100
AcDbText
  0
TEXT
  5
36
330
17
100
AcDbEntity
  8
0
100
AcDbText
 10
99.99969
 20
270.6257629027
 30
0.0
 40
7.0
  1
JX-GP3-100
 72
1
 11
99.99969
 21
270.6257629027
 31
0.0
100
AcDbText
  0
LWPOLYLINE
  5
37
330
17
100
AcDbEntity
  8
0
100
AcDbPolyline
 90
2
 70
0
 10
599.99961
 20
246.0913460113
 10
599.99961
 20
261.0913460113
  0
TEXT
  5
38
330
17
100
AcDbEntity
  8
0
100
AcDbText
 10
599.99961
 20
281.0913460113
 30
0.0
 40
7.0
  1
'PC2-93'
 72
1
 11
599.99961
 21
281.0913460113
 31
0.0
100
AcDbText
  0
TEXT
  5
39
330
17
100
AcDbEntity
  8
0
100
AcDbText
 10
599.99961
 20
266.0913460113
 30
0.0
 40
7.0
  1
<strak>
 72
1
 11
599.99961
 21
266.0913460113
 31
0.0
100
AcDbText
  0
LWPOLYLINE
  5
3A
330
17
100
AcDbEntity
  8
0
100
AcDbPolyline
 90
2
 70
0
 10
1286.944032
 20
192.3023579071
 10
1286.944032
 20
207.3023579071
  0
TEXT
  5
3B
330
17
100
AcDbEntity
  8
0
100
AcDbText
 10
1286.944032
 20
227.3023579071
 30
0.0
 40
7.0
  1
'PC2-55'
 72
1
 11
1286.944032
 21
227.3023579071
 31
0.0
100
AcDbText
  0
TEXT
  5
3C
330
17
100
AcDbEntity
  8
0
100
AcDbText
 10
1286.944032
 20
212.3023579071
 30
0.0
 40
7.0
  1
JX-GP3-55
 72
1
 11
1286.944032
 21
212.3023579071
 31
0.0
100
AcDbText
  0
LWPOLYLINE
  5
3D
330
17
100
AcDbEntity
  8
0
100
AcDbPolyline
 90
2
 70
0
 10
1414.651607
 20
157.0503072628
 10
1414.651607
 20
172.0503072628
  0
TEXT
  5
3E
330
17
100
AcDbEntity
  8
0
100
AcDbText
 10
1414.651607
 20
192.0503072628
 30
0.0
 40
7.0
  1
'PC2-33'
 72
1
 11
1414.651607
 21
192.0503072628
 31
0.0
100
AcDbText
  0
TEXT
  5
3F
330
17
100
AcDbEntity
  8
0
100
AcDbText
 10
1414.651607
 20
177.0503072628
 30
0.0
 40
7.0
  1
JX-GP3-30
 72
1
 11
1414.651607
 21
177.0503072628
 31
0.0
100
AcDbText
  0
LWPOLYLINE
  5
40
330
17
100
AcDbEntity
  8
0
100
AcDbPolyline
 90
2
 70
0
 10
1470.0
 20
104.55526006950001
 10
1470.0
 20
119.55526006950001
  0
TEXT
  5
41
330
17
100
AcDbEntity
  8
0
100
AcDbText
 10
1470.0
 20
139.5552600695
 30
0.0
 40
7.0
  1
'PC2-1'
 72
1
 11
1470.0
 21
139.5552600695
 31
0.0
100
AcDbText
  0
TEXT
  5
42
330
17
100
AcDbEntity
  8
0
100
AcDbText
 10
1470.0
 20
124.55526006950001
 30
0.0
 40
7.0
  1
JX-GP3-30
 72
1
 11
1470.0
 21
124.55526006950001
 31
0.0
100
AcDbText
  0
LWPOLYLINE
  5
43
330
17
100
AcDbEntity
  8
0
100
AcDbPolyline
 90
2
 70
0
 10
599.99961
 20
12.910128878299986
 10
599.99961
 20
71.73074283104671
  0
TEXT
  5
44
330
17
100
AcDbEntity
  8
0
100
AcDbText
 10
0.0
 20
-46.0
 30
0.0
 40
10.0
  1
VJX.glide
 11
0.0
 21
-46.0
 31
0.0
100
AcDbText
 73
3
  0
TEXT
  5
45
330
17
100
AcDbEntity
  8
0
100
AcDbText
 10
0.0
 20
-66.0
 30
0.0
 40
6.0
  1
Generated by PlanformCreator2
 11
0.0
 21
-66.0
 31
0.0
100
AcDbText
 73
3
  0
TEXT
  5
46
330
17
100
AcDbEntity
  8
0
100
AcDbText
 10
588.0
 20
115.0
 30
0.0
 40
5.0
  1
The planform is idealized as a polyline. Convert to a spline for further processing.
 72
1
 11
588.0
 21
115.0
 31
0.0
100
AcDbText
 73
2
  0
LWPOLYLINE
  5
47
330
17
100
AcDbEntity
  8
0
100
AcDbPolyline
 90
201
 70
0
 10
172.5
 20
330.15
 10
170.294415
 20
330.4443738490831
 10
167.754755
 20
330.77932457771243
 10
165.217717
 20
331.10966180278496
 10
162.68107
 20
331.4357290933511
 10
160.14384800000002
 20
331.75759482210583
 10
157.606235
 20
332.07535107560625
 10
155.068346
 20
332.3889058963356
 10
152.530089
 20
332.6982822003779
 10
149.99141799999998
 20
333.00350293267815
 10
147.452425
 20
333.3045681213802
 10
144.91308700000002
 20
333.6014547251507
 10
142.373381
 20
333.8941397030181
 10
139.833307
 20
334.18269202792436
 10
137.292911
 20
334.4670426998674
 10
134.752216
 20
334.7471917049677
 10
132.211176
 20
335.0231849891097
 10
129.669791
 20
335.2950685253713
 10
127.128107
 20
335.56279631334706
 10
124.58617000000001
 20
335.82639135218176
 10
122.04388800000001
 20
336.08589956207686
 10
119.501284
 20
336.34138992946777
 10
116.958427
 20
336.5928624665107
 10
114.41536300000001
 20
336.8403171717729
 10
111.87200000000001
 20
337.0838459664697
 10
109.328361
 20
337.3234488367238
 10
106.784469
 20
337.5591487684833
 10
104.24034699999999
 20
337.79103774752423
 10
101.696064
 20
338.019046784573
 10
99.15157399999998
 20
338.24317582719584
 10
96.606854
 20
338.46344783599625
 10
94.061973
 20
338.6798398213953
 10
91.516908
 20
338.8922827439227
 10
88.97168199999999
 20
339.1006845889367
 10
86.42629500000001
 20
339.30502232945616
 10
83.88081600000001
 20
339.5050659749398
 10
81.33526800000001
 20
339.7007925100819
 10
78.789628
 20
339.8919488954423
 10
76.243896
 20
340.07839710385485
 10
73.698118
 20
340.25993013198416
 10
71.15234000000001
 20
340.4362949760982
 10
68.60660800000001
 20
340.6072846320734
 10
66.060899
 20
340.77262306034754
 10
63.515236
 20
340.93210324495055
 10
60.96966499999999
 20
341.08544918133475
 10
58.424255
 20
341.23240787607557
 10
55.879006000000004
 20
341.3727723008064
 10
53.334010000000006
 20
341.506266472801
 10
50.789289999999994
 20
341.63266037452036
 10
48.24489200000001
 20
341.751746999567
 10
45.700862
 20
341.8633653411871
 10
43.157292
 20
341.9672624145675
 10
40.61429700000001
 20
342.0633232451679
 10
38.071854
 20
342.1513407912312
 10
35.530101
 20
342.2311770881671
 10
32.989199
 20
342.302602181045
 10
30.449217000000004
 20
342.36545507003837
 10
27.910338999999993
 20
342.4195288087802
 10
25.372588000000007
 20
342.46457037403707
 10
22.836056
 20
342.5004187745705
 10
20.300927
 20
342.5267520609223
 10
17.767224
 20
342.54327120799474
 10
15.235246000000004
 20
342.54970031685707
 10
12.704993000000002
 20
342.54562534986553
 10
10.176763999999991
 20
342.53065540486193
 10
7.6508579999999995
 20
342.5043075770243
 10
5.127367
 20
342.4660528662325
 10
2.6066590000000005
 20
342.41529339463835
 10
0.08912499999999568
 20
342.35138529135565
 10
-2.4250279999999975
 20
342.2735696010292
 10
-4.935293999999999
 20
342.181133497713
 10
-7.441167
 20
342.07318015107825
 10
-9.942118
 20
341.94878973645166
 10
-12.437595000000002
 20
341.80695043461856
 10
-14.926862
 20
341.64655850071426
 10
-17.408953000000004
 20
341.46639528185545
 10
-19.882993999999997
 20
341.2650810779517
 10
-22.347904
 20
341.0410522691627
 10
-24.802326
 20
340.7926303427421
 10
-27.244604
 20
340.5178378998118
 10
-29.673059
 20
340.2143295376088
 10
-32.085391
 20
339.87955309692177
 10
-34.479208
 20
339.51054243815645
 10
-36.851267
 20
339.1038947516598
 10
-39.197542999999996
 20
338.6559315214218
 10
-41.511159
 20
338.1629753571113
 10
-43.779074
 20
337.62130530297605
 10
-45.98321
 20
337.02632832869773
 10
-48.096473
 20
336.37538687985113
 10
-50.074243
 20
335.6727301986073
 10
-51.84867
 20
334.93788847357814
 10
-53.342635
 20
334.2103592335663
 10
-54.516923
 20
333.53479984930806
 10
-55.3978
 20
332.9348430219627
 10
-56.047596
 20
332.4092446028745
 10
-56.526571
 20
331.94539956006304
 10
-56.879023
 20
331.5297203143752
 10
-57.134461
 20
331.15156918759374
 10
-57.312228
 20
330.8037395391468
 10
-57.425549
 20
330.4825001544462
 10
-57.484084
 20
330.1861682321882
 10
-57.5
 20
330.0
 10
-57.49655
 20
329.9260306491105
 10
-57.425641
 20
329.70014288158325
 10
-57.257488
 20
329.4850040167931
 10
-57.006719
 20
329.27523774694816
 10
-56.681384
 20
329.06456817679043
 10
-56.273249
 20
328.84634501156404
 10
-55.759889
 20
328.61395835092964
 10
-55.102411000000004
 20
328.3594117485533
 10
-54.238991
 20
328.0733425829387
 10
-53.085909
 20
327.74787430277684
 10
-51.569036
 20
327.38520764773966
 10
-49.693754
 20
327.0063883348061
 10
-47.557675
 20
326.6399736765183
 10
-45.271176
 20
326.3038546006153
 10
-42.902498
 20
326.0029107764563
 10
-40.484691999999995
 20
325.73517710448664
 10
-38.035928
 20
325.4973256740557
 10
-35.568073999999996
 20
325.2869461374797
 10
-33.084970999999996
 20
325.1025449342591
 10
-30.585929
 20
324.9408786556735
 10
-28.076352999999997
 20
324.7994654282525
 10
-25.559531999999997
 20
324.67738653810926
 10
-23.035649999999997
 20
324.57316999076573
 10
-20.505741999999998
 20
324.48562015363643
 10
-17.970130000000005
 20
324.4134030990704
 10
-15.429734000000003
 20
324.3553461581869
 10
-12.885151999999998
 20
324.31041453139426
 10
-10.336683
 20
324.277596294715
 10
-7.784764000000003
 20
324.25594858672133
 10
-5.229624999999999
 20
324.2445974590926
 10
-2.671472999999999
 20
324.2427149552392
 10
-0.11069899999999677
 20
324.24951920170685
 10
2.4525819999999996
 20
324.26422820563414
 10
5.018117000000004
 20
324.2862210367657
 10
7.585629999999995
 20
324.3148537773873
 10
10.154775999999998
 20
324.34959754344715
 10
12.725279
 20
324.3900154226574
 10
15.297093000000004
 20
324.43564740005417
 10
17.87001099999999
 20
324.48617153497185
 10
20.444079000000002
 20
324.5412887716582
 10
23.019228
 20
324.6005161071826
 10
25.595411999999996
 20
324.6636235283851
 10
28.172607999999997
 20
324.7302200115937
 10
30.750862000000012
 20
324.80000650061174
 10
33.329966999999996
 20
324.8726380587492
 10
35.909876999999994
 20
324.94783867439384
 10
38.490408
 20
325.02535540248346
 10
41.071467999999996
 20
325.1049812553007
 10
43.653057000000004
 20
325.18653220130454
 10
46.235152
 20
325.26980122003494
 10
48.817638
 20
325.35455833624377
 10
51.40062999999999
 20
325.4407114623741
 10
53.983920999999995
 20
325.5280306691034
 10
56.567672
 20
325.61640084581734
 10
59.151698999999994
 20
325.70563805286577
 10
61.736070999999995
 20
325.7956502250323
 10
64.320696
 20
325.8862993777358
 10
66.905574
 20
325.97747048043783
 10
69.49075099999999
 20
326.0690944789452
 10
72.076135
 20
326.161056389413
 10
74.66167999999999
 20
326.25326420508776
 10
77.247363
 20
326.3457409076437
 10
79.83332200000001
 20
326.4383253947726
 10
82.41930400000001
 20
326.5310177678878
 10
85.005401
 20
326.62374894892037
 10
87.591544
 20
326.71658794412076
 10
90.17777899999999
 20
326.80941969903495
 10
92.764014
 20
326.9022902325953
 10
95.35036400000001
 20
326.99515345304934
 10
97.936553
 20
327.08803247914466
 10
100.522719
 20
327.18090420709143
 10
103.10881599999999
 20
327.27381463219587
 10
105.69489000000002
 20
327.3667176995342
 10
108.280757
 20
327.4596364808221
 10
110.866532
 20
327.5525708834665
 10
113.452054
 20
327.6455669677679
 10
116.03743800000001
 20
327.7385786406673
 10
118.622615
 20
327.8315829116207
 10
121.207539
 20
327.9246257777269
 10
123.79218699999998
 20
328.01766122339666
 10
126.37658200000001
 20
328.11068920682305
 10
128.960678
 20
328.2036867256255
 10
131.544406
 20
328.2966767912065
 10
134.127835
 20
328.3896133352883
 10
136.71098800000001
 20
328.4825423156181
 10
139.293704
 20
328.5755097978898
 10
141.876167
 20
328.6685386455077
 10
144.458216
 20
328.7617209247434
 10
147.039828
 20
328.8551716212366
 10
149.621049
 20
328.9490976793631
 10
152.20192500000002
 20
329.0437290428483
 10
154.782456
 20
329.13924968268293
 10
157.362481
 20
329.23607366798643
 10
159.942184
 20
329.3345918582375
 10
162.52156499999998
 20
329.43512622393786
 10
165.100624
 20
329.53818273549365
 10
167.679775
 20
329.64419810547463
 10
170.26035199999998
 20
329.75342446547137
 10
172.5
 20
329.85
  0
TEXT
  5
48
330
17
100
AcDbEntity
  8
0
100
AcDbText
 10
172.5
 20
350.15
 30
0.0
 40
4.0
  1
Te gap = 0.3 mm
 72
1
 11
172.5
 21
350.15
 31
0.0
100
AcDbText
  0
LWPOLYLINE
  5
49
330
17
100
AcDbEntity
  8
0
100
AcDbPolyline
 90
161
 70
0
 10
271.71658959375
 20
330.77576290269997
 10
270.36352911171105
 20
330.9362994757001
 10
268.4311644972027
 20
331.1655730512892
 10
265.65088472808696
 20
331.4951989713575
 10
262.7235008149859
 20
331.8414567884975
 10
259.7049924671672
 20
332.1971933931041
 10
256.59593207429594
 20
332.5617232243558
 10
253.3972125642502
 20
332.9343380331902
 10
250.1101160898802
 20
333.31428402081195
 10
246.73624534224882
 20
333.700738892457
 10
243.27761513297793
 20
334.09281190380045
 10
239.7364692295556
 20
334.4895666372524
 10
236.11537193768248
 20
334.8900897356512
 10
232.41723099685822
 20
335.2933077418187
 10
228.64520599803546
 20
335.69821599143484
 10
224.8026625924462
 20
336.10371830962384
 10
220.89328696953504
 20
336.5087186518283
 10
216.92099427461278
 20
336.91209814683907
 10
212.88988281768297
 20
337.31269216812785
 10
208.8042798646154
 20
337.70933614443095
 10
204.6686958459727
 20
338.10088842299314
 10
200.4878472525972
 20
338.4861157984574
 10
196.26654215767735
 20
338.8638766092702
 10
192.00984048585457
 20
339.23293765635043
 10
187.72284795294343
 20
339.59213435554045
 10
183.4108534394515
 20
339.9402792266999
 10
179.079214512646
 20
340.27623051611823
 10
174.73338032214076
 20
340.59880062489447
 10
170.3789373910692
 20
340.9068935047129
 10
166.0214722425648
 20
341.1993672120123
 10
161.66664008652089
 20
341.4751484221857
 10
157.32014192400385
 20
341.7331866271267
 10
152.98772454725355
 20
341.97249992747993
 10
148.67506606174982
 20
342.1920604996285
 10
144.38793615531904
 20
342.39095494739956
 10
140.1320358290277
 20
342.5683155385968
 10
135.9129973971825
 20
342.7232973141295
 10
131.7364989652633
 20
342.8551010430153
 10
127.60805836964379
 20
342.963018918936
 10
123.53317055111087
 20
343.0464117360596
 10
119.51726176369176
 20
343.1046401854074
 10
115.5655979923073
 20
343.13722508720264
 10
111.68335363953197
 20
343.14371005592267
 10
107.8755657344205
 20
343.12370727659834
 10
104.14715682809454
 20
343.07696620855234
 10
100.50284341139631
 20
343.0032590728236
 10
96.94718170606167
 20
342.9024953580475
 10
93.48454476913362
 20
342.7746531303391
 10
90.11912249296223
 20
342.6198248313578
 10
86.85483002285828
 20
342.43819434970396
 10
83.69542223502619
 20
342.2300370779481
 10
80.64437925863105
 20
341.9957885561923
 10
77.70488358021201
 20
341.7359299914701
 10
74.87988873044209
 20
341.45114856278417
 10
72.17207349295494
 20
341.1421542427863
 10
69.58379611317164
 20
340.8098629491148
 10
67.1170485071275
 20
340.4552820532589
 10
64.77359363499168
 20
340.07953333866976
 10
62.5547823363743
 20
339.68394451155393
 10
60.46159912149972
 20
339.26993474678613
 10
58.49470796237968
 20
338.8390833973368
 10
56.65436071046693
 20
338.39308416892743
 10
54.940374201068565
 20
337.93385959188146
 10
53.352221835692504
 20
337.4634007916045
 10
51.88887331294117
 20
336.98395059025285
 10
50.54893200203122
 20
336.4978432944666
 10
49.33049756927382
 20
336.0076420142865
 10
48.23118887366124
 20
335.5160012991965
 10
47.248166862453544
 20
335.0258732071411
 10
46.37808878000533
 20
334.540278329389
 10
45.617085272179054
 20
334.0624889446579
 10
44.96080617751835
 20
333.59593745289555
 10
44.404260258141704
 20
333.14426210043473
 10
43.942021260021946
 20
332.7112841630402
 10
43.56802185270675
 20
332.3010536521351
 10
43.27562231607851
 20
331.91782644272223
 10
43.05756474918107
 20
331.56599556458104
 10
42.90604175697953
 20
331.25027438990486
 10
42.8147570531555
 20
330.98364220950435
 10
42.77203388853657
 20
330.7784351300824
 10
42.76072346875
 20
330.6257629027
 10
42.80479747297906
 20
330.35109008169115
 10
42.953756159479994
 20
330.0565941396561
 10
43.236837192356944
 20
329.74210323721496
 10
43.657589387534856
 20
329.42785557403477
 10
44.205892895731
 20
329.12463882102037
 10
44.87890866420544
 20
328.8326370854054
 10
45.67379764021821
 20
328.55208023093354
 10
46.587835248962435
 20
328.28312935727047
 10
47.618388497977676
 20
328.0258997069297
 10
48.76280149921688
 20
327.7805751909824
 10
50.018532842566046
 20
327.547270963056
 10
51.38308690908444
 20
327.3260563441447
 10
52.853968079831276
 20
327.11704642526365
 10
54.42874942262564
 20
326.9202875638234
 10
56.105095587633045
 20
326.73582606261266
 10
57.88064832943243
 20
326.5637311131798
 10
59.753118089362516
 20
326.40398028243237
 10
61.720238204348675
 20
326.2565969061198
 10
63.779764906902884
 20
326.1215356123587
 10
65.92952311629696
 20
325.9987967819936
 10
68.1673148562161
 20
325.88828921408134
 10
70.49101083710534
 20
325.78999035840627
 10
72.89845887382309
 20
325.703763190035
 10
75.38755257240105
 20
325.62956224221597
 10
77.95623133004402
 20
325.56722754696574
 10
80.60236585719709
 20
325.5166449539114
 10
83.32394134223837
 20
325.47765447132645
 10
86.11885139119947
 20
325.4501190418927
 10
88.98505829687188
 20
325.43380999745074
 10
91.92052435204711
 20
325.42854446295263
 10
94.92318895393005
 20
325.43413957660266
 10
97.99099149972552
 20
325.45032089889236
 10
101.12187138663846
 20
325.4768826829237
 10
104.3137909074603
 20
325.51355049180023
 10
107.56466656380935
 20
325.5600270217401
 10
110.87236906613062
 20
325.61603789514515
 10
114.23486070721559
 20
325.6812629126972
 10
117.6499664063361
 20
325.75538195011785
 10
121.11557976952376
 20
325.83807486563353
 10
124.62952571605042
 20
325.92897577331183
 10
128.18960626960126
 20
326.02771881495426
 10
131.79362345386153
 20
326.13391525520876
 10
135.43928771016988
 20
326.2471764223159
 10
139.12435527103838
 20
326.3670678533609
 10
142.8464907866325
 20
326.4931780483617
 10
146.60331311594456
 20
326.62504976393495
 10
150.39246401355348
 20
326.76224866814
 10
154.2114707561051
 20
326.90427182745464
 10
158.0578377246586
 20
327.05066214208637
 10
161.92904640468674
 20
327.20089386970454
 10
165.82246380372897
 20
327.3544642562501
 10
169.73547982491152
 20
327.51084767749325
 10
173.66536989342745
 20
327.6694728154992
 10
177.60936364329672
 20
327.8298371041155
 10
181.5646449173659
 20
327.9913006707767
 10
185.5283059761353
 20
328.15331531879303
 10
189.49739328893185
 20
328.31528713226646
 10
193.46886174273612
 20
328.47659939842526
 10
197.43959753776875
 20
328.6366125980663
 10
201.4064410830773
 20
328.7946643953434
 10
205.36611830977608
 20
328.95016125996244
 10
209.31528646221977
 20
329.10237238455414
 10
213.25051120241642
 20
329.2506586555472
 10
217.16828950561438
 20
329.39428947799786
 10
221.06500386912882
 20
329.53260307275355
 10
224.93696810351514
 20
329.6648461837027
 10
228.78040443698228
 20
329.79028857055954
 10
232.59142061980617
 20
329.9082001285508
 10
236.3660099243295
 20
330.0177822038263
 10
240.10009693613534
 20
330.1183049417072
 10
243.78949176287358
 20
330.20896994122023
 10
247.42989003426112
 20
330.2889560476398
 10
251.01687290208167
 20
330.3574880402891
 10
254.54592993577256
 20
330.4137221412936
 10
258.0124133312515
 20
330.45683762591574
 10
261.4115608065031
 20
330.4859681219574
 10
264.73851849716544
 20
330.50024738605094
 10
267.9240272537358
 20
330.49903283332907
 10
270.1513328149864
 20
330.4884507540032
 10
271.71658959375
 20
330.4757629027
  0
TEXT
  5
4A
330
17
100
AcDbEntity
  8
0
100
AcDbText
 10
271.71658959375
 20
350.77576290269997
 30
0.0
 40
4.0
  1
Te gap = 0.3 mm
 72
1
 11
271.71658959375
 21
350.77576290269997
 31
0.0
100
AcDbText
  0
LWPOLYLINE
  5
4B
330
17
100
AcDbEntity
  8
0
100
AcDbPolyline
 90
161
 70
0
 10
759.88552284975
 20
326.2413460113
 10
758.6256858108591
 20
326.3889696843857
 10
756.8264576563784
 20
326.5995827166708
 10
754.2377341823671
 20
326.9019732577266
 10
751.512041776348
 20
327.219178802706
 10
748.70150324591
 20
327.5446613428368
 10
745.8066515440959
 20
327.87784352991713
 10
742.8283180776524
 20
328.21813422235635
 10
739.7676966613957
 20
328.56490924837783
 10
736.6262795638455
 20
328.9174950438486
 10
733.4059427797126
 20
329.27516593679945
 10
730.1087754849251
 20
329.63717065204895
 10
726.7371653091147
 20
330.00276832702366
 10
723.2938196537391
 20
330.37108719506597
 10
719.7816804195946
 20
330.7413127377957
 10
716.2038813705732
 20
331.11253663573024
 10
712.5638547242706
 20
331.4838408213989
 10
708.8652458795
 20
331.85426182397845
 10
705.1118707800478
 20
332.22278760284337
 10
701.307758550918
 20
332.58838192545596
 10
697.457108862088
 20
332.95000246436433
 10
693.5643132466308
 20
333.3065246910076
 10
689.6338485101063
 20
333.65686969665376
 10
685.670425957413
 20
333.9998808572511
 10
681.678799529693
 20
334.3344386137554
 10
677.6638937130621
 20
334.6594088006068
 10
673.6306969480012
 20
334.9736794945375
 10
669.584282947478
 20
335.2761058531507
 10
665.5298533331905
 20
335.5656089918899
 10
661.472609726837
 20
335.8410888108118
 10
657.4178177044805
 20
336.1014889719166
 10
653.3707854784276
 20
336.34578343696955
 10
649.3368638972285
 20
336.57300671368586
 10
645.3213398550678
 20
336.78216124690823
 10
641.3295855186176
 20
336.9723472780134
 10
637.3669091001842
 20
337.14271061825923
 10
633.4385548577093
 20
337.29242701462226
 10
629.5498096853777
 20
337.4207110446482
 10
625.7058112505223
 20
337.52686247103696
 10
621.9116759023542
 20
337.6102515101303
 10
618.1724560357197
 20
337.6702490468787
 10
614.4930548186127
 20
337.7063759489024
 10
610.8782901465404
 20
337.7181714078183
 10
607.3328520062798
 20
337.70525174715783
 10
603.8613237939992
 20
337.6673483806173
 10
600.4680970427715
 20
337.6042249291619
 10
597.1574140588177
 20
337.51577036176576
 10
593.9333466033851
 20
337.4019400356558
 10
590.799795892747
 20
337.2627961267646
 10
587.7604073257168
 20
337.09848930296477
 10
584.8186770742551
 20
336.9092575639231
 10
581.9778454928625
 20
336.6954822914005
 10
579.240875800457
 20
336.4575967075815
 10
576.6105180347398
 20
336.1962175255547
 10
574.0892664159512
 20
335.9119981910522
 10
571.6793167106277
 20
335.60576958548114
 10
569.3825235953585
 20
335.2784548465574
 10
567.2005285655155
 20
334.9310913705767
 10
565.1345893902795
 20
334.5648998314433
 10
563.1856227488845
 20
334.18119218639276
 10
561.3542468668601
 20
333.7814248228127
 10
559.640696243545
 20
333.3671723841638
 10
558.0448003339657
 20
332.94021385381063
 10
556.5660688213226
 20
332.5024008984508
 10
555.2035423901388
 20
332.0558141988827
 10
553.9559206349895
 20
331.60262410453606
 10
552.8214341517729
 20
331.14521588994523
 10
551.7978658558305
 20
330.68606793783454
 10
550.8825723000699
 20
330.2279185218318
 10
550.0724410387211
 20
329.773596846022
 10
549.3638693092145
 20
329.3261519608355
 10
548.7528066684245
 20
328.8887965870658
 10
548.2346057658175
 20
328.46493044088714
 10
547.8042142065477
 20
328.0581428477415
 10
547.455982688361
 20
327.6722400867624
 10
547.1837289559604
 20
327.311238380845
 10
546.9806951647629
 20
326.9793146133065
 10
546.8396118352643
 20
326.6809992291333
 10
546.7546164839933
 20
326.4287825291665
 10
546.7148368688764
 20
326.23470277790494
 10
546.70430571675
 20
326.0922252623074
 10
546.7453431010481
 20
325.83583822171124
 10
546.8840388009148
 20
325.5619196725958
 10
547.1476160577781
 20
325.2695257678516
 10
547.5393791805034
 20
324.97751045135675
 10
548.0499055592935
 20
324.6958989304405
 10
548.676551747056
 20
324.4248535189954
 10
549.4166742966983
 20
324.16458790524314
 10
550.2677363517366
 20
323.9152546330045
 10
551.227286328174
 20
323.6769591455815
 10
552.2928513238916
 20
323.44986877975134
 10
553.4620650273793
 20
323.23409316923227
 10
554.7326037633702
 20
323.0296912790281
 10
556.1021438565978
 20
322.83676570203363
 10
557.5684255861603
 20
322.65536008930894
 10
559.1292745036429
 20
322.4855100520897
 10
560.7824948425093
 20
322.3272749631474
 10
562.5259547905881
 20
322.18062842943976
 10
564.3575438538297
 20
322.04558690452933
 10
566.2751728563062
 20
321.9221072194031
 10
568.2768165764548
 20
321.8101743227024
 10
570.360428474591
 20
321.7097061053228
 10
572.5240259653956
 20
321.6206679913573
 10
574.7656051454273
 20
321.5429311572139
 10
577.0832047474888
 20
321.47644069816033
 10
579.4749061406256
 20
321.4210411074985
 10
581.9387267395185
 20
321.37662421470077
 10
584.4727905494568
 20
321.3430298944267
 10
587.0751363032427
 20
321.3201157071908
 10
589.7438666880439
 20
321.3076721483751
 10
592.4770843910278
 20
321.30551751455414
 10
595.2728707812403
 20
321.31346697348926
 10
598.129307227727
 20
321.3312629886341
 10
601.044475099534
 20
321.35869985256085
 10
604.0164770838286
 20
321.395513660606
 10
607.0433732315349
 20
321.44142236991536
 10
610.1231809573336
 20
321.4961557589249
 10
613.2540029483923
 20
321.55940849608425
 10
616.4338139831481
 20
321.6308697778198
 10
619.6606527944035
 20
321.7102319107159
 10
622.9324941605956
 20
321.7971429510034
 10
626.2472915420401
 20
321.89125054752043
 10
629.6029983990524
 20
321.99218369037004
 10
632.997482919461
 20
322.0995623392033
 10
636.4286559273385
 20
322.21297541899224
 10
639.8943429742696
 20
322.33202724921
 10
643.3923269755965
 20
322.4562806335425
 10
646.9204121647825
 20
322.58531368656094
 10
650.4762961846826
 20
322.7186474676041
 10
654.0576553600301
 20
322.8558434728903
 10
657.6621446974367
 20
322.99640019664764
 10
661.287312612905
 20
323.139833830074
 10
664.9307288405599
 20
323.2856451293415
 10
668.5898565239177
 20
323.43329058446557
 10
672.2621161702507
 20
323.58227944956025
 10
675.9448856505884
 20
323.7320183034323
 10
679.6354575634732
 20
323.88198022002814
 10
683.331081871204
 20
324.03159648345945
 10
687.028923263593
 20
324.1802853429764
 10
690.7260824760873
 20
324.32744191633367
 10
694.4196176078902
 20
324.47244753813345
 10
698.1064801675968
 20
324.6147363551895
 10
701.7835577094371
 20
324.75362775275477
 10
705.447652515154
 20
324.888520029939
 10
709.0955029121253
 20
325.0187368088041
 10
712.7237406371204
 20
325.1436559541128
 10
716.3289334725434
 20
325.2625899880655
 10
719.9075639283117
 20
325.3748590468559
 10
723.4560079237339
 20
325.4797983306403
 10
726.9705347875102
 20
325.5766839110456
 10
730.4473498939757
 20
325.6648513198839
 10
733.8825520268568
 20
325.74358104116686
 10
737.2721333792716
 20
325.8121425045468
 10
740.6119795537292
 20
325.8698496432802
 10
743.8978908802521
 20
325.915958884229
 10
747.1255397801325
 20
325.9497580048948
 10
750.2904920840542
 20
325.9705042262476
 10
753.3882283502138
 20
325.97745646496065
 10
756.3542612604286
 20
325.97021524911554
 10
758.4281094588202
 20
325.9561164591137
 10
759.88552284975
 20
325.9413460113
  0
TEXT
  5
4C
330
17
100
AcDbEntity
  8
0
100
AcDbText
 10
759.88552284975
 20
346.2413460113
 30
0.0
 40
4.0
  1
Te gap = 0.3 mm
 72
1
 11
759.88552284975
 21
346.2413460113
 31
0.0
100
AcDbText
  0
LWPOLYLINE
  5
4D
330
17
100
AcDbEntity
  8
0
100
AcDbPolyline
 90
161
 70
0
 10
1381.819032
 20
272.4523579071
 10
1380.5747653500002
 20
272.58719262345267
 10
1378.8747318500002
 20
272.76921615891126
 10
1376.5696109
 20
273.0121136030493
 10
1374.29737995
 20
273.2473095408801
 10
1372.0951161500002
 20
273.4714969420519
 10
1369.9526868500002
 20
273.686305510047
 10
1367.86070575
 20
273.8932018838752
 10
1365.8104317000002
 20
274.09350209827295
 10
1363.7938446
 20
274.28839692199136
 10
1361.8035315500001
 20
274.47890106945295
 10
1359.8327374500002
 20
274.66590382035395
 10
1357.8753270500001
 20
274.8501942355093
 10
1355.9257470000002
 20
275.0323978279641
 10
1353.9790132
 20
275.2130524182639
 10
1352.0307487500002
 20
275.392544901238
 10
1350.0770574500002
 20
275.57118697238343
 10
1348.1145997
 20
275.7491772438034
 10
1346.14052925
 20
275.9266137986298
 10
1344.1524932000002
 20
276.10349417056017
 10
1342.1485814
 20
276.2797658668431
 10
1340.1273644
 20
276.4552378425261
 10
1338.0877922500001
 20
276.62969421889517
 10
1336.0292830500002
 20
276.8028058151239
 10
1333.9515964500001
 20
276.9742185411052
 10
1331.8548842500002
 20
277.14350283787974
 10
1329.7396524500002
 20
277.3101536204087
 10
1327.60673595
 20
277.4736534855918
 10
1325.4572859000002
 20
277.63339678483754
 10
1323.2927444000002
 20
277.78880343400186
 10
1321.11485715
 20
277.9391924140602
 10
1318.9255849
 20
278.08389551698286
 10
1316.7271667
 20
278.2222194513646
 10
1314.522044
 20
278.3534457540766
 10
1312.3128733
 20
278.47684344503233
 10
1310.10247555
 20
278.59168161862374
 10
1307.8938488000001
 20
278.69722945059505
 10
1305.69015555
 20
278.79276882992133
 10
1303.4946468500002
 20
278.87755633030054
 10
1301.3107129
 20
278.9509118077832
 10
1299.14183245
 20
279.01215509968245
 10
1296.99153485
 20
279.0606186384058
 10
1294.8634127
 20
279.09571071513676
 10
1292.7611092000002
 20
279.1168142697738
 10
1290.68826755
 20
279.12342599675833
 10
1288.6485183000002
 20
279.1150298384071
 10
1286.645492
 20
279.0911982021684
 10
1284.6827433
 20
279.0515539475064
 10
1282.7638015500002
 20
278.99578308974
 10
1280.8921202000001
 20
278.92364741173054
 10
1279.07101355
 20
278.8349844164476
 10
1277.30372
 20
278.7297073930851
 10
1275.5933261500002
 20
278.607818009162
 10
1273.9427668
 20
278.4694063209964
 10
1272.3548123
 20
278.3146760729177
 10
1270.8320179500001
 20
278.143919363933
 10
1269.3767619500002
 20
277.9575293409258
 10
1267.9911568500002
 20
277.75602543282696
 10
1266.6771128
 20
277.5400534146318
 10
1265.4362363500002
 20
277.31038533083444
 10
1264.26985575
 20
277.06789422623194
 10
1263.1790083
 20
276.81360474348406
 10
1262.16438975
 20
276.54870573843215
 10
1261.2263922500001
 20
276.27449971841185
 10
1260.3649905000002
 20
275.99246600368565
 10
1259.5798303000001
 20
275.7042102056116
 10
1258.8701400000002
 20
275.41154005712895
 10
1258.2347178500002
 20
275.11640215514205
 10
1257.6719573
 20
274.8209199325261
 10
1257.1797711000002
 20
274.52741889621524
 10
1256.75562925
 20
274.238388707085
 10
1256.3964578
 20
273.95649574541915
 10
1256.09874005
 20
273.68464643968395
 10
1255.8583774
 20
273.4258985991912
 10
1255.67073995
 20
273.1835499998262
 10
1255.5306412000002
 20
272.96110040741627
 10
1255.4323001
 20
272.76226419041217
 10
1255.3693284
 20
272.5909703027678
 10
1255.335477
 20
272.4553349794435
 10
1255.3219415
 20
272.3611574552211
 10
1255.319032
 20
272.30235790710003
 10
1255.3480511
 20
272.1377200359365
 10
1255.44607595
 20
271.9620715507281
 10
1255.6320942000002
 20
271.7756373943629
 10
1255.9082184000001
 20
271.590673551119
 10
1256.2674784
 20
271.4136748787914
 10
1256.70766045
 20
271.24478203686795
 10
1257.2266014000002
 20
271.0841482414116
 10
1257.8221634000001
 20
270.93186339049646
 10
1258.4922086000001
 20
270.7880173396051
 10
1259.2346118
 20
270.6527125460321
 10
1260.0473110500002
 20
270.5259628317325
 10
1260.92820645
 20
270.4078073203691
 10
1261.8752487000002
 20
270.2982597687394
 10
1262.8864138000001
 20
270.1972959411201
 10
1263.9596904
 20
270.10490422330514
 10
1265.0930545
 20
270.0210097473522
 10
1266.284558
 20
269.94557552085837
 10
1267.5322275
 20
269.8785013146608
 10
1268.8341022500001
 20
269.8196868844257
 10
1270.18828475
 20
269.76903193038464
 10
1271.5928522000002
 20
269.7263855752367
 10
1273.0459071
 20
269.6916222240152
 10
1274.5455899
 20
269.66455300544686
 10
1276.0900284000002
 20
269.6450396681512
 10
1277.67738835
 20
269.6328806891854
 10
1279.3058481500002
 20
269.627861898149
 10
1280.9735862
 20
269.6297944407227
 10
1282.6788188500002
 20
269.638451497135
 10
1284.4197498
 20
269.6535936292485
 10
1286.1946460000001
 20
269.67498136425064
 10
1288.0017364500002
 20
269.7023626377509
 10
1289.8393007500001
 20
269.73547271548796
 10
1291.7056058500002
 20
269.77404690266604
 10
1293.5989566500002
 20
269.8177951990967
 10
1295.5176707
 20
269.8664402738186
 10
1297.46006555
 20
269.91967952863604
 10
1299.4244714000001
 20
269.9772356879046
 10
1301.40924375
 20
270.0387808877164
 10
1303.4127634000001
 20
270.10402522674775
 10
1305.4333858500001
 20
270.1726409165647
 10
1307.46950455
 20
270.24430017177184
 10
1309.51953825
 20
270.3187005227237
 10
1311.5818930500002
 20
270.39551425406773
 10
1313.6550003500001
 20
270.47441366831043
 10
1315.7373042000002
 20
270.5550584490476
 10
1317.827236
 20
270.63712098768474
 10
1319.9232777500001
 20
270.72028631973757
 10
1322.0238988
 20
270.80420158982594
 10
1324.1275938
 20
270.8885519133607
 10
1326.2328447500001
 20
270.9730098166394
 10
1328.3381589500002
 20
271.0572351977593
 10
1330.4420690000002
 20
271.1409006263681
 10
1332.5430948500002
 20
271.2237040344392
 10
1334.63978175
 20
271.30531807598487
 10
1336.7306623000002
 20
271.38541546829185
 10
1338.8142944
 20
271.4636942508218
 10
1340.8892612500001
 20
271.5398398344987
 10
1342.9541334
 20
271.6135629936258
 10
1345.0074814000002
 20
271.68457455223927
 10
1347.0479137500001
 20
271.7525726908088
 10
1349.0740263
 20
271.81728095285575
 10
1351.08442755
 20
271.87843556601734
 10
1353.0777513
 20
271.9357474765014
 10
1355.0525934000002
 20
271.9890036221044
 10
1357.00761295
 20
272.0379150134413
 10
1358.9414437500002
 20
272.08226863641397
 10
1360.8527322500001
 20
272.1218388570072
 10
1362.7401249000002
 20
272.15641273529553
 10
1364.6022934500002
 20
272.18578999374137
 10
1366.4379096500002
 20
272.2097703961842
 10
1368.2456326000001
 20
272.22817906234167
 10
1370.0241593500002
 20
272.24086640423945
 10
1371.7721743000002
 20
272.2476702366002
 10
1373.4883492000001
 20
272.24845372587765
 10
1375.1714064
 20
272.2431179591367
 10
1376.8200303
 20
272.231538803108
 10
1378.4329306000002
 20
272.2136300728364
 10
1379.9776727
 20
272.1898769924302
 10
1381.0586405000001
 20
272.16912874026224
 10
1381.819032
 20
272.15235790710005
  0
TEXT
  5
4E
330
17
100
AcDbEntity
  8
0
100
AcDbText
 10
1381.819032
 20
292.4523579071
 30
0.0
 40
4.0
  1
Te gap = 0.3 mm
 72
1
 11
1381.819032
 21
292.4523579071
 31
0.0
100
AcDbText
  0
LWPOLYLINE
  5
4F
330
17
100
AcDbEntity
  8
0
100
AcDbPolyline
 90
161
 70
0
 10
1471.5766070000002
 20
237.2003072628
 10
1470.87526064
 20
237.26061320537184
 10
1469.8872931100002
 20
237.34555200338286
 10
1468.49275964
 20
237.4654464809272
 10
1467.05694416
 20
237.5889410979744
 10
1465.6091516600002
 20
237.71353718482894
 10
1464.15038402
 20
237.83915393593483
 10
1462.6816810700002
 20
237.96568777853244
 10
1461.20412059
 20
238.09300477892018
 10
1459.71876518
 20
238.22095570588326
 10
1458.2267381600002
 20
238.3493534224163
 10
1456.7291552600002
 20
238.47801827767825
 10
1455.22716257
 20
238.60673264692477
 10
1453.7219061800001
 20
238.73526363718065
 10
1452.21457013
 20
238.86338593539963
 10
1450.70631569
 20
238.99082096380184
 10
1449.1983496700002
 20
239.1173129196991
 10
1447.69187129
 20
239.24256794776346
 10
1446.18806459
 20
239.36630725756268
 10
1444.68815915
 20
239.48822170467977
 10
1443.19335419
 20
239.6080171826068
 10
1441.70485652
 20
239.72536156993817
 10
1440.2238729500002
 20
239.839945437619
 10
1438.7516178800001
 20
239.95145170552948
 10
1437.28928294
 20
240.05954799800296
 10
1435.83806735
 20
240.16391706414106
 10
1434.39914756
 20
240.26423395451008
 10
1432.97369243
 20
240.3601736431379
 10
1431.5628708200002
 20
240.4514186344699
 10
1430.16782123
 20
240.5376513223023
 10
1428.7896745700002
 20
240.6185768050464
 10
1427.4295313900002
 20
240.69387730942537
 10
1426.08849983
 20
240.76327298123758
 10
1424.76762731
 20
240.82647623045418
 10
1423.4679764300001
 20
240.88321463753837
 10
1422.19054907
 20
240.93323841703813
 10
1420.93633952
 20
240.97629015344862
 10
1419.7063193000001
 20
241.012157909145
 10
1418.5014068
 20
241.04060686842357
 10
1417.3224976400002
 20
241.0614628830732
 10
1416.17046467
 20
241.0745441661828
 10
1415.0461200200002
 20
241.07969159462945
 10
1413.9502606400001
 20
241.0767763777626
 10
1412.8836227600002
 20
241.06568480789656
 10
1411.84691225
 20
241.04634108356564
 10
1410.8407894400002
 20
241.0186693391012
 10
1409.86586153
 20
240.9826619467922
 10
1408.92269777
 20
240.9382960545539
 10
1408.0118142800002
 20
240.88560187567964
 10
1407.13367405
 20
240.8246399224642
 10
1406.2886793500002
 20
240.75550858797666
 10
1405.4771945
 20
240.6783214139686
 10
1404.69950792
 20
240.59324498579147
 10
1403.9558549
 20
240.50046860997134
 10
1403.24642519
 20
240.40022709775417
 10
1402.57131746
 20
240.29280828901224
 10
1401.9305924300002
 20
240.17850759386843
 10
1401.3242273300002
 20
240.05768864633265
 10
1400.75213108
 20
239.93075296857864
 10
1400.2141594700001
 20
239.79813999434958
 10
1399.71007721
 20
239.66034978399776
 10
1399.23958829
 20
239.5179051197988
 10
1398.8023056200002
 20
239.37139700192387
 10
1398.39778139
 20
239.2214619228054
 10
1398.02547671
 20
239.06878182275173
 10
1397.6847767900001
 20
238.91410688157296
 10
1397.37498335
 20
238.75821755683342
 10
1397.0953070300002
 20
238.60197011196104
 10
1396.8448825700002
 20
238.44626627683013
 10
1396.62274604
 20
238.2920683935398
 10
1396.42785002
 20
238.14039943649632
 10
1396.25904083
 20
237.99234297788885
 10
1396.1150888900002
 20
237.84903563897254
 10
1395.9946659500001
 20
237.7116974151759
 10
1395.89632991
 20
237.58158611205602
 10
1395.8185551800002
 20
237.4600429260389
 10
1395.75970232
 20
237.34847721850485
 10
1395.71803322
 20
237.24835894475143
 10
1395.69234107
 20
237.163807737616
 10
1395.6799769600002
 20
237.09872866703714
 10
1395.676607
 20
237.0503072628
 10
1395.69827645
 20
236.9397053131333
 10
1395.77031314
 20
236.82372626310186
 10
1395.9044360300002
 20
236.70286943457887
 10
1396.09951421
 20
236.58524991646306
 10
1396.3481626100001
 20
236.47478677648965
 10
1396.64670767
 20
236.37130273801856
 10
1396.99169594
 20
236.2746201749619
 10
1397.3798864900002
 20
236.18456113496148
 10
1397.8082660900002
 20
236.10095491745034
 10
1398.2739960800002
 20
236.02362297799542
 10
1398.7744579100001
 20
235.95240922886285
 10
1399.30721519
 20
235.88713455825737
 10
1399.8700136900002
 20
235.82763478365254
 10
1400.46078134
 20
235.77374547380575
 10
1401.07761305
 20
235.72530956195712
 10
1401.7187783000002
 20
235.6821621548113
 10
1402.38269078
 20
235.6441457567187
 10
1403.0679159800002
 20
235.61110266753832
 10
1403.77318637
 20
235.58287495811612
 10
1404.4973558600002
 20
235.55931212598
 10
1405.2393998
 20
235.5402559134148
 10
1405.9984453400002
 20
235.5255630288748
 10
1406.7737258900002
 20
235.51506726266615
 10
1407.5645811200002
 20
235.5086326142801
 10
1408.3704645500002
 20
235.50610014766812
 10
1409.1909283700002
 20
235.50732596120682
 10
1410.0256234400001
 20
235.51215841439637
 10
1410.8742841100002
 20
235.52044573813106
 10
1411.73672063
 20
235.53205122351537
 10
1412.6128191500002
 20
235.5468152688111
 10
1413.5025417200002
 20
235.56460091618447
 10
1414.40589593
 20
235.58525594702456
 10
1415.3229576800002
 20
235.60863561292072
 10
1416.25384082
 20
235.63459509156368
 10
1417.19871233
 20
235.66298186976246
 10
1418.15776196
 20
235.6936585603645
 10
1419.13121741
 20
235.72646492547108
 10
1420.1193215600001
 20
235.76126345184676
 10
1421.1223400600002
 20
235.79789379674145
 10
1422.14053856
 20
235.83621836438124
 10
1423.1741978900002
 20
235.8760843294119
 10
1424.22357611
 20
235.9173388801313
 10
1425.28894646
 20
235.95983674361295
 10
1426.3705442300002
 20
236.00341750605517
 10
1427.4685819400001
 20
236.04792835766224
 10
1428.58326452
 20
236.0932240665201
 10
1429.71473618
 20
236.13913671228977
 10
1430.86311077
 20
236.1855135851407
 10
1432.02844901
 20
236.23219445792674
 10
1433.21075849
 20
236.2790267690884
 10
1434.4099784900002
 20
236.32583529341667
 10
1435.62597998
 20
236.37246768640435
 10
1436.8585808
 20
236.41875651078115
 10
1438.1074849400002
 20
236.46453453354565
 10
1439.3723204900002
 20
236.5096270731161
 10
1440.6526320500002
 20
236.55387478981794
 10
1441.9478503700002
 20
236.5970882108505
 10
1443.2573075300002
 20
236.639108430749
 10
1444.58021417
 20
236.67974644450774
 10
1445.91565949
 20
236.7188211087081
 10
1447.2626112500002
 20
236.7561591530834
 10
1448.61990059
 20
236.79157245268058
 10
1449.9862220300001
 20
236.82487322145298
 10
1451.3601258800002
 20
236.85586645156081
 10
1452.7399954700002
 20
236.8843651546944
 10
1454.12406992
 20
236.91016756231082
 10
1455.5104213700001
 20
236.93308754812824
 10
1456.8969398000002
 20
236.95290913713032
 10
1458.28134821
 20
236.9694320320395
 10
1459.66116467
 20
236.98244894091224
 10
1461.0337402700002
 20
236.99175310552738
 10
1462.39622117
 20
236.99713080914265
 10
1463.7455258300001
 20
236.99835385419942
 10
1465.07839814
 20
236.99521741438892
 10
1466.39133911
 20
236.9874794783817
 10
1467.68062964
 20
236.97492912538598
 10
1468.94232293
 20
236.9573258340583
 10
1470.1479792500002
 20
236.93494778436235
 10
1470.9881770700001
 20
236.91573555612908
 10
1471.5766070000002
 20
236.9003072628
  0
TEXT
  5
50
330
17
100
AcDbEntity
  8
0
100
AcDbText
 10
1471.5766070000002
 20
257.20030726280004
 30
0.0
 40
4.0
  1
Te gap = 0.3 mm
 72
1
 11
1471.5766070000002
 21
257.20030726280004
 31
0.0
100
AcDbText
  0
LWPOLYLINE
  5
51
330
17
100
AcDbEntity
  8
0
100
AcDbPolyline
 90
161
 70
0
 10
1472.2550634855
 20
184.7052600695
 10
1472.227279900658
 20
184.7059885837879
 10
1472.1881419208291
 20
184.70702601890366
 10
1472.1328979769116
 20
184.7085136163185
 10
1472.0760186609543
 20
184.71007543157924
 10
1472.0186648796398
 20
184.71168183688667
 10
1471.9608763220854
 20
184.71333242039714
 10
1471.9026941807838
 20
184.71502587125778
 10
1471.8441611516039
 20
184.7167596748993
 10
1471.785319329064
 20
184.71853058864608
 10
1471.7262132130836
 20
184.72033391413353
 10
1471.666887002907
 20
184.72216514166954
 10
1471.6073861004793
 20
184.724018232403
 10
1471.5477559077449
 20
184.72588645096204
 10
1471.4880433300245
 20
184.7277633517868
 10
1471.4282943706132
 20
184.72964023926065
 10
1471.368556836857
 20
184.73150932528466
 10
1471.3088782354264
 20
184.73336120767152
 10
1471.2493054716422
 20
184.73518696142654
 10
1471.1898872548754
 20
184.73697646534293
 10
1471.1306710917968
 20
184.7387200462975
 10
1471.0717047897526
 20
184.74040645778913
 10
1471.0130361560884
 20
184.74202527158573
 10
1470.9547132988255
 20
184.74356569291206
 10
1470.896783423959
 20
184.74501620100773
 10
1470.8392940381602
 20
184.74636581688688
 10
1470.7822917460744
 20
184.74760314381643
 10
1470.7258228516716
 20
184.74871670250505
 10
1470.669933658922
 20
184.74969525006765
 10
1470.6146692690957
 20
184.75052742426723
 10
1470.5600744827868
 20
184.75120269436442
 10
1470.5061928978896
 20
184.75170951790844
 10
1470.4530684129734
 20
184.75203782246683
 10
1470.400742521206
 20
184.75217707763528
 10
1470.349257317106
 20
184.75211734410394
 10
1470.298652489791
 20
184.7518494379829
 10
1470.2489674277028
 20
184.7513638315042
 10
1470.2002406172585
 20
184.75065273394463
 10
1470.1525084401487
 20
184.74970733597618
 10
1470.105806376039
 20
184.74852117703443
 10
1470.0601690025699
 20
184.74708744334964
 10
1470.01562849198
 20
184.74540010861173
 10
1469.972216415158
 20
184.74345431951835
 10
1469.9299619375922
 20
184.74124571945026
 10
1469.8888930220694
 20
184.73877140794048
 10
1469.8490358273261
 20
184.73602841526926
 10
1469.810414407373
 20
184.7330164000844
 10
1469.7730513128447
 20
184.72973437181957
 10
1469.7369669896502
 20
184.72618337492972
 10
1469.7021797789725
 20
184.72236559077416
 10
1469.6687056165938
 20
184.7182846294173
 10
1469.6365589349202
 20
184.71394466849307
 10
1469.6057511596066
 20
184.70935189716576
 10
1469.5762916115823
 20
184.7045133539592
 10
1469.5481878077255
 20
184.69943784339316
 10
1469.5214436568128
 20
184.69413616536636
 10
1469.4960615642456
 20
184.68861939914981
 10
1469.472040627998
 20
184.6829012372048
 10
1469.4493772399687
 20
184.67699680866843
 10
1469.4280656873302
 20
184.67092270460032
 10
1469.4080966491533
 20
184.6646978207248
 10
1469.3894583991082
 20
184.6583419029335
 10
1469.372135602763
 20
184.65187730384562
 10
1469.3561105202846
 20
184.64532812863752
 10
1469.3413618037391
 20
184.6387201871665
 10
1469.327865098441
 20
184.632081919323
 10
1469.3155927422777
 20
184.6254428789832
 10
1469.3045134650358
 20
184.61883552523426
 10
1469.2945929897505
 20
184.61229404187526
 10
1469.2857931306798
 20
184.60585490185431
 10
1469.2780723946557
 20
184.5995568889305
 10
1469.2713850790583
 20
184.59344106043406
 10
1469.265682474516
 20
184.5875504911216
 10
1469.2609119628812
 20
184.58193143823934
 10
1469.2570164158788
 20
184.5766315115365
 10
1469.2539353978075
 20
184.57170152126082
 10
1469.2516039628385
 20
184.56719482728212
 10
1469.2499532563672
 20
184.56316705887193
 10
1469.2489354710474
 20
184.55977960883146
 10
1469.2484456712582
 20
184.55718324747997
 10
1469.2483121715
 20
184.5552600695
 10
1469.249170599
 20
184.55084657968297
 10
1469.2520243066722
 20
184.54614558894457
 10
1469.257337536919
 20
184.54115942384917
 10
1469.2650654891465
 20
184.53621099346498
 10
1469.274915606451
 20
184.5314661668723
 10
1469.2867423620696
 20
184.52692299531722
 10
1469.300408948817
 20
184.5225791531131
 10
1469.3157869784125
 20
184.51843196264088
 10
1469.3327570828287
 20
184.5144786821469
 10
1469.3512068095665
 20
184.510715995369
 10
1469.3710324257058
 20
184.50714115012764
 10
1469.3921374145289
 20
184.50375021817396
 10
1469.4144324755223
 20
184.50053960215737
 10
1469.4378355243748
 20
184.49750543644902
 10
1469.4622710916285
 20
184.4946439128403
 10
1469.4876706233536
 20
184.49195066730798
 10
1469.5139712784473
 20
184.48942142902038
 10
1469.54111622931
 20
184.48705170657072
 10
1469.569055263195
 20
184.48483676152668
 10
1469.597742978157
 20
184.48277197996754
 10
1469.6271387830534
 20
184.48085226905766
 10
1469.6572081002441
 20
184.47907290666274
 10
1469.687920561541
 20
184.4774281088226
 10
1469.7192500082076
 20
184.47591313160083
 10
1469.7511747916342
 20
184.4745221504757
 10
1469.7836771719883
 20
184.4732497852509
 10
1469.8167433182136
 20
184.47209019446913
 10
1469.850362706681
 20
184.47103739795193
 10
1469.8845278205117
 20
184.47008588765954
 10
1469.9192341495789
 20
184.46922912102224
 10
1469.954480190507
 20
184.4684613214824
 10
1469.990266243971
 20
184.46777602400152
 10
1470.0265953167225
 20
184.46716693499408
 10
1470.0634719188881
 20
184.46662768116346
 10
1470.100902665321
 20
184.46615147972173
 10
1470.1388950728995
 20
184.46573209102533
 10
1470.177458161877
 20
184.4653622863083
 10
1470.2166015538585
 20
184.46503568992745
 10
1470.256335772473
 20
184.46474496001852
 10
1470.2966713413502
 20
184.46448363190808
 10
1470.3376193854701
 20
184.46424458609238
 10
1470.3791901277873
 20
184.46402071779357
 10
1470.4213943926063
 20
184.46380516765564
 10
1470.4642415008561
 20
184.4635905171744
 10
1470.5077398714407
 20
184.4633696636283
 10
1470.5518976225883
 20
184.4631357918996
 10
1470.5967204671267
 20
184.46288127283614
 10
1470.6422129151827
 20
184.46259911154422
 10
1470.6883773721572
 20
184.46228209085606
 10
1470.7352141387257
 20
184.4619233758109
 10
1470.7827208094868
 20
184.46151534413772
 10
1470.8308922729636
 20
184.46105139499977
 10
1470.8797213129526
 20
184.46052442030827
 10
1470.929196203124
 20
184.45992753230976
 10
1470.979302210396
 20
184.4592536951182
 10
1471.0300212942614
 20
184.4584966488395
 10
1471.0813309040843
 20
184.45764917559723
 10
1471.133204580454
 20
184.45670548385877
 10
1471.1856110531567
 20
184.455658860336
 10
1471.238514241176
 20
184.45450318536402
 10
1471.2918732526948
 20
184.45323294537553
 10
1471.3456417837426
 20
184.45184237635362
 10
1471.3997681181968
 20
184.45032607984348
 10
1471.4541948271071
 20
184.4486787538826
 10
1471.5088578666707
 20
184.4468958604974
 10
1471.5636874802572
 20
184.44497269157344
 10
1471.618607296383
 20
184.4429056389658
 10
1471.673533727362
 20
184.44069044330692
 10
1471.728376570654
 20
184.4383239834667
 10
1471.7830375054918
 20
184.4358034797987
 10
1471.8374115962542
 20
184.4331267283574
 10
1471.8913857890918
 20
184.4302919056686
 10
1471.9448380099013
 20
184.42729734108426
 10
1471.9976392690512
 20
184.42414291452124
 10
1472.0496509553063
 20
184.42082782766806
 10
1472.1007257378517
 20
184.41735327291005
 10
1472.1507072656195
 20
184.41372005911288
 10
1472.1984689088922
 20
184.41000742947648
 10
1472.231753044588
 20
184.40726486905027
 10
1472.2550634855
 20
184.4052600695
  0
TEXT
  5
52
330
17
100
AcDbEntity
  8
0
100
AcDbText
 10
1472.2550634855
 20
204.7052600695
 30
0.0
 40
4.0
  1
Te gap = 0.3 mm
 72
1
 11
1472.2550634855
 21
204.7052600695
 31
0.0
100
AcDbText
  0
ENDSEC
  0
SECTION
  2
OBJECTS
  0
DICTIONARY
  5
A
330
0
100
AcDbDictionary
281
1
  3
ACAD_COLOR
350
B
  3
ACAD_GROUP
350
C
  3
ACAD_LAYOUT
350
D
  3
ACAD_MATERIAL
350
E
  3
ACAD_MLEADERSTYLE
350
F
  3
ACAD_MLINESTYLE
350
10
  3
ACAD_PLOTSETTINGS
350
11
  3
ACAD_PLOTSTYLENAME
350
12
  3
ACAD_SCALELIST
350
14
  3
ACAD_TABLESTYLE
350
15
  3
ACAD_VISUALSTYLE
350
16
  3
EZDXF_META
350
2D
  0
DICTIONARY
  5
B
330
A
100
AcDbDictionary
281
1
  0
DICTIONARY
  5
C
330
A
100
AcDbDictionary
281
1
  0
DICTIONARY
  5
D
330
A
100
AcDbDictionary
281
1
  3
Model
350
1A
  3
Layout1
350
1E
  0
DICTIONARY
  5
E
330
A
100
AcDbDictionary
281
1
  3
ByBlock
350
1F
  3
ByLayer
350
20
  3
Global
350
21
  0
DICTIONARY
  5
F
330
A
100
AcDbDictionary
281
1
  3
Standard
350
2C
  0
DICTIONARY
  5
10
330
A
100
AcDbDictionary
281
1
  3
Standard
350
22
  0
DICTIONARY
  5
11
330
A
100
AcDbDictionary
281
1
  0
ACDBDICTIONARYWDFLT
  5
12
330
A
100
AcDbDictionary
281
1
  3
Normal
350
13
100
AcDbDictionaryWithDefault
340
13
  0
ACDBPLACEHOLDER
  5
13
330
12
  0
DICTIONARY
  5
14
330
A
100
AcDbDictionary
281
1
  0
DICTIONARY
  5
15
330
A
100
AcDbDictionary
281
1
  0
DICTIONARY
  5
16
330
A
100
AcDbDictionary
281
1
  0
LAYOUT
  5
1A
330
D
100
AcDbPlotSettings
  1

  4
A3
  6

 40
7.5
 41
20.0
 42
7.5
 43
20.0
 44
420.0
 45
297.0
 46
0.0
 47
0.0
 48
0.0
 49
0.0
140
0.0
141
0.0
142
1.0
143
1.0
 70
1024
 72
1
 73
0
 74
5
  7

 75
16
 76
0
 77
2
 78
300
147
1.0
148
0.0
149
0.0
100
AcDbLayout
  1
Model
 70
1
 71
0
 10
0.0
 20
0.0
 11
420.0
 21
297.0
 12
0.0
 22
0.0
 32
0.0
 14
1e+20
 24
1e+20
 34
1e+20
 15
-1e+20
 25
-1e+20
 35
-1e+20
146
0.0
 13
0.0
 23
0.0
 33
0.0
 16
1.0
 26
0.0
 36
0.0
 17
0.0
 27
1.0
 37
0.0
 76
1
330
17
  0
LAYOUT
  5
1E
330
D
100
AcDbPlotSettings
  1

  4
A3
  6

 40
7.5
 41
20.0
 42
7.5
 43
20.0
 44
420.0
 45
297.0
 46
0.0
 47
0.0
 48
0.0
 49
0.0
140
0.0
141
0.0
142
1.0
143
1.0
 70
0
 72
1
 73
0
 74
5
  7

 75
16
 76
0
 77
2
 78
300
147
1.0
148
0.0
149
0.0
100
AcDbLayout
  1
Layout1
 70
1
 71
1
 10
0.0
 20
0.0
 11
420.0
 21
297.0
 12
0.0
 22
0.0
 32
0.0
 14
1e+20
 24
1e+20
 34
1e+20
 15
-1e+20
 25
-1e+20
 35
-1e+20
146
0.0
 13
0.0
 23
0.0
 33
0.0
 16
1.0
 26
0.0
 36
0.0
 17
0.0
 27
1.0
 37
0.0
 76
1
330
1B
  0
MATERIAL
  5
1F
102
{ACAD_REACTORS
330
E
102
}
330
E
100
AcDbMaterial
  1
ByBlock
  2

 70
0
 40
1.0
 71
1
 41
1.0
 91
-1023410177
 42
1.0
 72
1
  3

 73
1
 74
1
 75
1
 44
0.5
 73
0
 45
1.0
 46
1.0
 77
1
  4

 78
1
 79
1
170
1
 48
1.0
171
1
  6

172
1
173
1
174
1
140
1.0
141
1.0
175
1
  7

176
1
177
1
178
1
143
1.0
179
1
  8

270
1
271
1
272
1
145
1.0
146
1.0
273
1
  9

274
1
275
1
276
1
 42
1.0
 72
1
  3

 73
1
 74
1
 75
1
 94
63
  0
MATERIAL
  5
20
102
{ACAD_REACTORS
330
E
102
}
330
E
100
AcDbMaterial
  1
ByLayer
  2

 70
0
 40
1.0
 71
1
 41
1.0
 91
-1023410177
 42
1.0
 72
1
  3

 73
1
 74
1
 75
1
 44
0.5
 73
0
 45
1.0
 46
1.0
 77
1
  4

 78
1
 79
1
170
1
 48
1.0
171
1
  6

172
1
173
1
174
1
140
1.0
141
1.0
175
1
  7

176
1
177
1
178
1
143
1.0
179
1
  8

270
1
271
1
272
1
145
1.0
146
1.0
273
1
  9

274
1
275
1
276
1
 42
1.0
 72
1
  3

 73
1
 74
1
 75
1
 94
63
  0
MATERIAL
  5
21
102
{ACAD_REACTORS
330
E
102
}
330
E
100
AcDbMaterial
  1
Global
  2

 70
0
 40
1.0
 71
1
 41
1.0
 91
-1023410177
 42
1.0
 72
1
  3

 73
1
 74
1
 75
1
 44
0.5
 73
0
 45
1.0
 46
1.0
 77
1
  4

 78
1
 79
1
170
1
 48
1.0
171
1
  6

172
1
173
1
174
1
140
1.0
141
1.0
175
1
  7

176
1
177
1
178
1
143
1.0
179
1
  8

270
1
271
1
272
1
145
1.0
146
1.0
273
1
  9

274
1
275
1
276
1
 42
1.0
 72
1
  3

 73
1
 74
1
 75
1
 94
63
  0
MLINESTYLE
  5
22
102
{ACAD_REACTORS
330
10
102
}
330
10
100
AcDbMlineStyle
  2
Standard
 70
0
  3

 62
256
 51
90.0
 52
90.0
 71
2
 49
0.5
 62
256
  6
BYLAYER
 49
-0.5
 62
256
  6
BYLAYER
  0
MLEADERSTYLE
  5
2C
102
{ACAD_REACTORS
330
F
102
}
330
F
100
AcDbMLeaderStyle
179
2
170
2
171
1
172
0
 90
2
 40
0.0
 41
0.0
173
1
 91
-1056964608
 92
-2
290
1
 42
2.0
291
1
 43
8.0
  3
Standard
 44
4.0
300

342
29
174
1
175
1
176
0
178
1
 93
-1056964608
 45
4.0
292
0
297
0
 46
4.0
 94
-1056964608
 47
1.0
 49
1.0
140
1.0
294
1
141
0.0
177
0
142
1.0
295
0
296
0
143
3.75
271
0
272
9
273
9
  0
DICTIONARY
  5
2D
330
A
100
AcDbDictionary
280
1
281
1
  3
CREATED_BY_EZDXF
350
2E
  3
WRITTEN_BY_EZDXF
350
55
  0
DICTIONARYVAR
  5
2E
330
2D
100
DictionaryVariables
280
0
  1
1.4.2 @ 2025-11-12T14:31:51.813812+00:00
  0
DICTIONARYVAR
  5
55
330
2D
100
DictionaryVariables
280
0
  1
1.4.2 @ 2025-11-12T14:31:51.875133+00:00
  0
ENDSEC
  0
EOF
