  0
SECTION
  2
HEADER
  9
$ACADVER
  1
AC1024
  9
$ACADMAINTVER
 70
6
  9
$DWGCODEPAGE
  3
ANSI_1252
  9
$LASTSAVEDBY
  1
ezdxf
  9
$INSBASE
 10
0.0
 20
0.0
 30
0.0
  9
$EXTMIN
 10
1e+20
 20
1e+20
 30
1e+20
  9
$EXTMAX
 10
-1e+20
 20
-1e+20
 30
-1e+20
  9
$LIMMIN
 10
0.0
 20
0.0
  9
$LIMMAX
 10
420.0
 20
297.0
  9
$ORTHOMODE
 70
0
  9
$REGENMODE
 70
1
  9
$FILLMODE
 70
1
  9
$QTEXTMODE
 70
0
  9
$MIRRTEXT
 70
1
  9
$LTSCALE
 40
1.0
  9
$ATTMODE
 70
1
  9
$TEXTSIZE
 40
2.5
  9
$TRACEWID
 40
1.0
  9
$TEXTSTYLE
  7
Standard
  9
$CLAYER
  8
0
  9
$CELTYPE
  6
ByLayer
  9
$CECOLOR
 62
256
  9
$CELTSCALE
 40
1.0
  9
$DISPSILH
 70
0
  9
$DIMSCALE
 40
1.0
  9
$DIMASZ
 40
2.5
  9
$DIMEXO
 40
0.625
  9
$DIMDLI
 40
3.75
  9
$DIMRND
 40
0.0
  9
$DIMDLE
 40
0.0
  9
$DIMEXE
 40
1.25
  9
$DIMTP
 40
0.0
  9
$DIMTM
 40
0.0
  9
$DIMTXT
 40
2.5
  9
$DIMCEN
 40
2.5
  9
$DIMTSZ
 40
0.0
  9
$DIMTOL
 70
0
  9
$DIMLIM
 70
0
  9
$DIMTIH
 70
0
  9
$DIMTOH
 70
0
  9
$DIMSE1
 70
0
  9
$DIMSE2
 70
0
  9
$DIMTAD
 70
1
  9
$DIMZIN
 70
8
  9
$DIMBLK
  1

  9
$DIMASO
 70
1
  9
$DIMSHO
 70
1
  9
$DIMPOST
  1

  9
$DIMAPOST
  1

  9
$DIMALT
 70
0
  9
$DIMALTD
 70
3
  9
$DIMALTF
 40
0.03937007874
  9
$DIMLFAC
 40
1.0
  9
$DIMTOFL
 70
1
  9
$DIMTVP
 40
0.0
  9
$DIMTIX
 70
0
  9
$DIMSOXD
 70
0
  9
$DIMSAH
 70
0
  9
$DIMBLK1
  1

  9
$DIMBLK2
  1

  9
$DIMSTYLE
  2
ISO-25
  9
$DIMCLRD
 70
0
  9
$DIMCLRE
 70
0
  9
$DIMCLRT
 70
0
  9
$DIMTFAC
 40
1.0
  9
$DIMGAP
 40
0.625
  9
$DIMJUST
 70
0
  9
$DIMSD1
 70
0
  9
$DIMSD2
 70
0
  9
$DIMTOLJ
 70
0
  9
$DIMTZIN
 70
8
  9
$DIMALTZ
 70
0
  9
$DIMALTTZ
 70
0
  9
$DIMUPT
 70
0
  9
$DIMDEC
 70
2
  9
$DIMTDEC
 70
2
  9
$DIMALTU
 70
2
  9
$DIMALTTD
 70
3
  9
$DIMTXSTY
  7
Standard
  9
$DIMAUNIT
 70
0
  9
$DIMADEC
 70
0
  9
$DIMALTRND
 40
0.0
  9
$DIMAZIN
 70
0
  9
$DIMDSEP
 70
44
  9
$DIMATFIT
 70
3
  9
$DIMFRAC
 70
0
  9
$DIMLDRBLK
  1

  9
$DIMLUNIT
 70
2
  9
$DIMLWD
 70
-2
  9
$DIMLWE
 70
-2
  9
$DIMTMOVE
 70
0
  9
$DIMFXL
 40
1.0
  9
$DIMFXLON
 70
0
  9
$DIMJOGANG
 40
0.785398163397
  9
$DIMTFILL
 70
0
  9
$DIMTFILLCLR
 70
0
  9
$DIMARCSYM
 70
0
  9
$DIMLTYPE
  6

  9
$DIMLTEX1
  6

  9
$DIMLTEX2
  6

  9
$DIMTXTDIRECTION
 70
0
  9
$LUNITS
 70
2
  9
$LUPREC
 70
4
  9
$SKETCHINC
 40
1.0
  9
$FILLETRAD
 40
10.0
  9
$AUNITS
 70
0
  9
$AUPREC
 70
2
  9
$MENU
  1
.
  9
$ELEVATION
 40
0.0
  9
$PELEVATION
 40
0.0
  9
$THICKNESS
 40
0.0
  9
$LIMCHECK
 70
0
  9
$CHAMFERA
 40
0.0
  9
$CHAMFERB
 40
0.0
  9
$CHAMFERC
 40
0.0
  9
$CHAMFERD
 40
0.0
  9
$SKPOLY
 70
0
  9
$TDCREATE
 40
2460992.6405787035
  9
$TDUCREATE
 40
2458532.153996898
  9
$TDUPDATE
 40
2460992.6405787035
  9
$TDUUPDATE
 40
2458532.1544311
  9
$TDINDWG
 40
0.0
  9
$TDUSRTIMER
 40
0.0
  9
$USRTIMER
 70
1
  9
$ANGBASE
 50
0.0
  9
$ANGDIR
 70
0
  9
$PDMODE
 70
0
  9
$PDSIZE
 40
0.0
  9
$PLINEWID
 40
0.0
  9
$SPLFRAME
 70
0
  9
$SPLINETYPE
 70
6
  9
$SPLINESEGS
 70
8
  9
$HANDSEED
  5
56
  9
$SURFTAB1
 70
6
  9
$SURFTAB2
 70
6
  9
$SURFTYPE
 70
6
  9
$SURFU
 70
6
  9
$SURFV
 70
6
  9
$UCSBASE
  2

  9
$UCSNAME
  2

  9
$UCSORG
 10
0.0
 20
0.0
 30
0.0
  9
$UCSXDIR
 10
1.0
 20
0.0
 30
0.0
  9
$UCSYDIR
 10
0.0
 20
1.0
 30
0.0
  9
$UCSORTHOREF
  2

  9
$UCSORTHOVIEW
 70
0
  9
$UCSORGTOP
 10
0.0
 20
0.0
 30
0.0
  9
$UCSORGBOTTOM
 10
0.0
 20
0.0
 30
0.0
  9
$UCSORGLEFT
 10
0.0
 20
0.0
 30
0.0
  9
$UCSORGRIGHT
 10
0.0
 20
0.0
 30
0.0
  9
$UCSORGFRONT
 10
0.0
 20
0.0
 30
0.0
  9
$UCSORGBACK
 10
0.0
 20
0.0
 30
0.0
  9
$PUCSBASE
  2

  9
$PUCSNAME
  2

  9
$PUCSORG
 10
0.0
 20
0.0
 30
0.0
  9
$PUCSXDIR
 10
1.0
 20
0.0
 30
0.0
  9
$PUCSYDIR
 10
0.0
 20
1.0
 30
0.0
  9
$PUCSORTHOREF
  2

  9
$PUCSORTHOVIEW
 70
0
  9
$PUCSORGTOP
 10
0.0
 20
0.0
 30
0.0
  9
$PUCSORGBOTTOM
 10
0.0
 20
0.0
 30
0.0
  9
$PUCSORGLEFT
 10
0.0
 20
0.0
 30
0.0
  9
$PUCSORGRIGHT
 10
0.0
 20
0.0
 30
0.0
  9
$PUCSORGFRONT
 10
0.0
 20
0.0
 30
0.0
  9
$PUCSORGBACK
 10
0.0
 20
0.0
 30
0.0
  9
$USERI1
 70
0
  9
$USERI2
 70
0
  9
$USERI3
 70
0
  9
$USERI4
 70
0
  9
$USERI5
 70
0
  9
$USERR1
 40
0.0
  9
$USERR2
 40
0.0
  9
$USERR3
 40
0.0
  9
$USERR4
 40
0.0
  9
$USERR5
 40
0.0
  9
$WORLDVIEW
 70
1
  9
$SHADEDGE
 70
3
  9
$SHADEDIF
 70
70
  9
$TILEMODE
 70
1
  9
$MAXACTVP
 70
64
  9
$PINSBASE
 10
0.0
 20
0.0
 30
0.0
  9
$PLIMCHECK
 70
0
  9
$PEXTMIN
 10
1e+20
 20
1e+20
 30
1e+20
  9
$PEXTMAX
 10
-1e+20
 20
-1e+20
 30
-1e+20
  9
$PLIMMIN
 10
0.0
 20
0.0
  9
$PLIMMAX
 10
420.0
 20
297.0
  9
$UNITMODE
 70
0
  9
$VISRETAIN
 70
1
  9
$PLINEGEN
 70
0
  9
$PSLTSCALE
 70
1
  9
$TREEDEPTH
 70
3020
  9
$CMLSTYLE
  2
Standard
  9
$CMLJUST
 70
0
  9
$CMLSCALE
 40
20.0
  9
$PROXYGRAPHICS
 70
1
  9
$MEASUREMENT
 70
1
  9
$CELWEIGHT
370
-1
  9
$ENDCAPS
280
0
  9
$JOINSTYLE
280
0
  9
$LWDISPLAY
290
0
  9
$INSUNITS
 70
6
  9
$HYPERLINKBASE
  1

  9
$STYLESHEET
  1

  9
$XEDIT
290
1
  9
$CEPSNTYPE
380
0
  9
$PSTYLEMODE
290
1
  9
$FINGERPRINTGUID
  2
{D759552F-6731-4B29-9F89-B83C7799BF57}
  9
$VERSIONGUID
  2
{40AE58B7-B963-423B-A131-F75824F0353B}
  9
$EXTNAMES
290
1
  9
$PSVPSCALE
 40
0.0
  9
$OLESTARTUP
290
0
  9
$SORTENTS
280
127
  9
$INDEXCTL
280
0
  9
$HIDETEXT
280
1
  9
$XCLIPFRAME
280
1
  9
$HALOGAP
280
0
  9
$OBSCOLOR
 70
257
  9
$OBSLTYPE
280
0
  9
$INTERSECTIONDISPLAY
280
0
  9
$INTERSECTIONCOLOR
 70
257
  9
$DIMASSOC
280
2
  9
$PROJECTNAME
  1

  9
$CAMERADISPLAY
290
0
  9
$LENSLENGTH
 40
50.0
  9
$CAMERAHEIGHT
 40
0.0
  9
$STEPSPERSEC
 40
24.0
  9
$STEPSIZE
 40
100.0
  9
$3DDWFPREC
 40
2.0
  9
$PSOLWIDTH
 40
0.005
  9
$PSOLHEIGHT
 40
0.08
  9
$LOFTANG1
 40
1.570796326795
  9
$LOFTANG2
 40
1.570796326795
  9
$LOFTMAG1
 40
0.0
  9
$LOFTMAG2
 40
0.0
  9
$LOFTPARAM
 70
7
  9
$LOFTNORMALS
280
1
  9
$LATITUDE
 40
37.795
  9
$LONGITUDE
 40
-122.394
  9
$NORTHDIRECTION
 40
0.0
  9
$TIMEZONE
 70
-8000
  9
$LIGHTGLYPHDISPLAY
280
1
  9
$TILEMODELIGHTSYNCH
280
1
  9
$CMATERIAL
347
20
  9
$SOLIDHIST
280
0
  9
$SHOWHIST
280
1
  9
$DWFFRAME
280
2
  9
$DGNFRAME
280
2
  9
$REALWORLDSCALE
290
1
  9
$INTERFERECOLOR
 62
256
  9
$CSHADOW
280
0
  9
$SHADOWPLANELOCATION
 40
0.0
  0
ENDSEC
  0
SECTION
  2
CLASSES
  0
CLASS
  1
ACDBDICTIONARYWDFLT
  2
AcDbDictionaryWithDefault
  3
ObjectDBX Classes
 90
0
 91
0
280
0
281
0
  0
CLASS
  1
SUN
  2
AcDbSun
  3
SCENEOE
 90
1153
 91
0
280
0
281
0
  0
CLASS
  1
VISUALSTYLE
  2
AcDbVisualStyle
  3
ObjectDBX Classes
 90
4095
 91
0
280
0
281
0
  0
CLASS
  1
MATERIAL
  2
AcDbMaterial
  3
ObjectDBX Classes
 90
1153
 91
0
280
0
281
0
  0
CLASS
  1
SCALE
  2
AcDbScale
  3
ObjectDBX Classes
 90
1153
 91
0
280
0
281
0
  0
CLASS
  1
TABLESTYLE
  2
AcDbTableStyle
  3
ObjectDBX Classes
 90
4095
 91
0
280
0
281
0
  0
CLASS
  1
MLEADERSTYLE
  2
AcDbMLeaderStyle
  3
ACDB_MLEADERSTYLE_CLASS
 90
4095
 91
0
280
0
281
0
  0
CLASS
  1
DICTIONARYVAR
  2
AcDbDictionaryVar
  3
ObjectDBX Classes
 90
0
 91
0
280
0
281
0
  0
CLASS
  1
CELLSTYLEMAP
  2
AcDbCellStyleMap
  3
ObjectDBX Classes
 90
1152
 91
0
280
0
281
0
  0
CLASS
  1
MENTALRAYRENDERSETTINGS
  2
AcDbMentalRayRenderSettings
  3
SCENEOE
 90
1024
 91
0
280
0
281
0
  0
CLASS
  1
ACDBDETAILVIEWSTYLE
  2
AcDbDetailViewStyle
  3
ObjectDBX Classes
 90
1025
 91
0
280
0
281
0
  0
CLASS
  1
ACDBSECTIONVIEWSTYLE
  2
AcDbSectionViewStyle
  3
ObjectDBX Classes
 90
1025
 91
0
280
0
281
0
  0
CLASS
  1
RASTERVARIABLES
  2
AcDbRasterVariables
  3
ISM
 90
0
 91
0
280
0
281
0
  0
CLASS
  1
LAYOUT
  2
AcDbLayout
  3
ObjectDBX Classes
 90
0
 91
0
280
0
281
0
  0
CLASS
  1
ACDBPLACEHOLDER
  2
AcDbPlaceHolder
  3
ObjectDBX Classes
 90
0
 91
0
280
0
281
0
  0
ENDSEC
  0
SECTION
  2
TABLES
  0
TABLE
  2
VPORT
  5
8
330
0
100
AcDbSymbolTable
 70
1
  0
VPORT
  5
23
330
8
100
AcDbSymbolTableRecord
100
AcDbViewportTableRecord
  2
*Active
 70
0
 10
0.0
 20
0.0
 11
1.0
 21
1.0
 12
0.0
 22
0.0
 13
0.0
 23
0.0
 14
0.5
 24
0.5
 15
0.5
 25
0.5
 16
0.0
 26
0.0
 36
1.0
 17
0.0
 27
0.0
 37
0.0
 40
1000.0
 41
1.34
 42
50.0
 43
0.0
 44
0.0
 50
0.0
 51
0.0
 71
0
 72
1000
 73
1
 74
3
 75
0
 76
0
 77
0
 78
0
281
0
 65
0
146
0.0
  0
ENDTAB
  0
TABLE
  2
LTYPE
  5
2
330
0
100
AcDbSymbolTable
 70
3
  0
LTYPE
  5
24
330
2
100
AcDbSymbolTableRecord
100
AcDbLinetypeTableRecord
  2
ByBlock
 70
0
  3

 72
65
 73
0
 40
0.0
  0
LTYPE
  5
25
330
2
100
AcDbSymbolTableRecord
100
AcDbLinetypeTableRecord
  2
ByLayer
 70
0
  3

 72
65
 73
0
 40
0.0
  0
LTYPE
  5
26
330
2
100
AcDbSymbolTableRecord
100
AcDbLinetypeTableRecord
  2
Continuous
 70
0
  3

 72
65
 73
0
 40
0.0
  0
ENDTAB
  0
TABLE
  2
LAYER
  5
1
330
0
100
AcDbSymbolTable
 70
2
  0
LAYER
  5
27
330
1
100
AcDbSymbolTableRecord
100
AcDbLayerTableRecord
  2
0
 70
0
 62
7
  6
Continuous
370
-3
390
13
347
21
  0
LAYER
  5
28
330
1
100
AcDbSymbolTableRecord
100
AcDbLayerTableRecord
  2
Defpoints
 70
0
 62
7
  6
Continuous
290
0
370
-3
390
13
347
21
  0
ENDTAB
  0
TABLE
  2
STYLE
  5
5
330
0
100
AcDbSymbolTable
 70
1
  0
STYLE
  5
29
330
5
100
AcDbSymbolTableRecord
100
AcDbTextStyleTableRecord
  2
Standard
 70
0
 40
0.0
 41
1.0
 50
0.0
 71
0
 42
2.5
  3
txt
  4

  0
ENDTAB
  0
TABLE
  2
VIEW
  5
7
330
0
100
AcDbSymbolTable
 70
0
  0
ENDTAB
  0
TABLE
  2
UCS
  5
6
330
0
100
AcDbSymbolTable
 70
0
  0
ENDTAB
  0
TABLE
  2
APPID
  5
3
330
0
100
AcDbSymbolTable
 70
3
  0
APPID
  5
2A
330
3
100
AcDbSymbolTableRecord
100
AcDbRegAppTableRecord
  2
ACAD
 70
0
  0
APPID
  5
53
330
3
100
AcDbSymbolTableRecord
100
AcDbRegAppTableRecord
  2
HATCHBACKGROUNDCOLOR
 70
0
  0
APPID
  5
54
330
3
100
AcDbSymbolTableRecord
100
AcDbRegAppTableRecord
  2
EZDXF
 70
0
  0
ENDTAB
  0
TABLE
  2
DIMSTYLE
  5
4
330
0
100
AcDbSymbolTable
 70
1
100
AcDbDimStyleTable
  0
DIMSTYLE
105
2B
330
4
100
AcDbSymbolTableRecord
100
AcDbDimStyleTableRecord
  2
Standard
 70
0
 40
1.0
 41
2.5
 42
0.625
 43
3.75
 44
1.25
 45
0.0
 46
0.0
 47
0.0
 48
0.0
 49
2.5
140
2.5
141
2.5
142
0.0
143
0.03937007874
144
1.0
145
0.0
146
1.0
147
0.625
148
0.0
 69
0
 70
0
 71
0
 72
0
 73
0
 74
0
 75
0
 76
0
 77
1
 78
8
 79
3
170
0
171
3
172
1
173
0
174
0
175
0
176
0
177
0
178
0
179
2
271
2
272
2
273
2
274
3
275
0
276
0
277
2
278
44
279
0
280
0
281
0
282
0
283
0
284
8
285
0
286
0
288
0
289
3
290
0
371
-2
372
-2
  0
ENDTAB
  0
TABLE
  2
BLOCK_RECORD
  5
9
330
0
100
AcDbSymbolTable
 70
2
  0
BLOCK_RECORD
  5
17
330
9
100
AcDbSymbolTableRecord
100
AcDbBlockTableRecord
  2
*Model_Space
340
1A
 70
0
280
1
281
0
  0
BLOCK_RECORD
  5
1B
330
9
100
AcDbSymbolTableRecord
100
AcDbBlockTableRecord
  2
*Paper_Space
340
1E
 70
0
280
1
281
0
  0
ENDTAB
  0
ENDSEC
  0
SECTION
  2
BLOCKS
  0
BLOCK
  5
18
330
17
100
AcDbEntity
  8
0
100
AcDbBlockBegin
  2
*Model_Space
 70
0
 10
0.0
 20
0.0
 30
0.0
  3
*Model_Space
  1

  0
ENDBLK
  5
19
330
17
100
AcDbEntity
  8
0
100
AcDbBlockEnd
  0
BLOCK
  5
1C
330
1B
100
AcDbEntity
  8
0
100
AcDbBlockBegin
  2
*Paper_Space
 70
0
 10
0.0
 20
0.0
 30
0.0
  3
*Paper_Space
  1

  0
ENDBLK
  5
1D
330
1B
100
AcDbEntity
  8
0
100
AcDbBlockEnd
  0
ENDSEC
  0
SECTION
  2
ENTITIES
  0
LWPOLYLINE
  5
2F
330
17
100
AcDbEntity
  8
0
100
AcDbPolyline
 90
201
 70
0
 10
0.0
 20
0.0
 10
0.0
 20
230.0
 10
17.23237884
 20
230.198071664
 10
34.65261765
 20
230.37918716180002
 10
52.253274015
 20
230.542811199
 10
70.02690581
 20
230.68840777079998
 10
87.96607062
 20
230.81544020270002
 10
106.063326175
 20
230.9233710856
 10
124.31123035
 20
231.0116623907
 10
142.702340585
 20
231.079775464
 10
161.2292149
 20
231.1271709215
 10
179.88441088
 20
231.15330879930002
 10
198.66048611
 20
231.157648559
 10
217.54999861
 20
231.13964897649998
 10
236.54550582
 20
231.0987683615
 10
255.63956576
 20
231.034464386
 10
274.82473587
 20
230.9461942099
 10
294.093574025
 20
230.8334144685
 10
313.43863781
 20
230.6955813112
 10
332.8524851
 20
230.53215038439998
 10
352.327673625
 20
230.3425769651
 10
371.85676097
 20
230.12631575339998
 10
391.432304865
 20
229.8828212215
 10
411.046863185
 20
229.6115473365
 10
430.69299366
 20
229.3119477425
 10
450.36325373
 20
228.98347580429999
 10
470.050201415
 20
228.6255845247
 10
489.7463943
 20
228.2377267182
 10
509.444390115
 20
227.81935490159998
 10
529.13674659
 20
227.3699213848
 10
548.816021455
 20
226.88887836269998
 10
568.47477244
 20
226.3756778232
 10
588.105557275
 20
225.82977173109998
 10
607.700933545
 20
225.2506118659
 10
627.25345927
 20
224.6376500804
 10
646.75569189
 20
223.9903381525
 10
666.20018928
 20
223.3081279335
 10
685.579509025
 20
222.5904713869
 10
704.886209
 20
221.83682045609999
 10
724.112846935
 20
221.0466274279
 10
743.251980415
 20
220.21934463370002
 10
762.29616717
 20
219.3544246823
 10
781.237965075
 20
218.45132052920002
 10
800.069931715
 20
217.5094853798
 10
818.78462482
 20
216.5283728089
 10
837.374602265
 20
215.5074368759
 10
855.83242149
 20
214.4461320037
 10
874.150640515
 20
213.3439131961
 10
892.32181678
 20
212.2002359801
 10
910.338508305
 20
211.0145565096
 10
928.19327253
 20
209.7863315533
 10
945.87866733
 20
208.5150186437
 10
963.387250435
 20
207.20007600169998
 10
980.711579575
 20
205.8409626991
 10
997.844212335
 20
204.4371386574
 10
1014.77770659
 20
202.9880647209
 10
1031.50462007
 20
201.4932027445
 10
1048.01751036
 20
199.95201552449998
 10
1064.30893519
 20
198.3639670089
 10
1080.371452435
 20
196.7285222511
 10
1096.19761968
 20
195.0451475663
 10
1111.7799948
 20
193.3133104461
 10
1127.11113538
 20
191.5324797588
 10
1142.18359915
 20
189.7021257771
 10
1156.98994384
 20
187.8217201772
 10
1171.52272718
 20
185.8907361297
 10
1185.7745069
 20
183.9086484387
 10
1199.73784073
 20
181.8749335179
 10
1213.4052864
 20
179.78906946040001
 10
1226.76940164
 20
177.6505361758
 10
1239.82274418
 20
175.4588153912
 10
1252.557871605
 20
173.21339071789998
 10
1264.96734179
 20
170.9137477942
 10
1277.043712465
 20
168.5593742582
 10
1288.779541215
 20
166.149759908
 10
1300.16738577
 20
163.6843967287
 10
1311.19980415
 20
161.16277896219998
 10
1321.86935365
 20
158.5844031427
 10
1332.16859229
 20
155.9487682962
 10
1342.090077655
 20
153.255375905
 10
1351.62636762
 20
150.50373000759998
 10
1360.77001977
 20
147.6933373073
 10
1369.51359169
 20
144.8237071754
 10
1377.8496414
 20
141.89435188599998
 10
1385.770726485
 20
138.90478651429999
 10
1393.269404675
 20
135.85452915029998
 10
1400.3382337
 20
132.7431008507
 10
1406.969771145
 20
129.5700258681
 10
1413.15657503
 20
126.3348316562
 10
1418.891202795
 20
123.037048998
 10
1424.16621217
 20
119.6762119914
 10
1428.974161175
 20
116.2518582561
 10
1433.30760725
 20
112.7635289252
 10
1437.159108125
 20
109.2107687914
 10
1440.521221675
 20
105.5931264443
 10
1443.38650563
 20
101.91015419749999
 10
1445.747517575
 20
98.16140836560001
 10
1447.59681524
 20
94.3464491974
 10
1448.926956355
 20
90.46484112780001
 10
1449.73049865
 20
86.5161527086
 10
1450.0
 20
82.49995681729999
 10
1450.0
 20
75.4999068173
 10
1449.73049865
 20
74.1214010276
 10
1448.926956355
 20
72.7583238108
 10
1447.59681524
 20
71.41052055040001
 10
1445.747517575
 20
70.0778409326
 10
1443.38650563
 20
68.7601387835
 10
1440.521221675
 20
67.4572720923
 10
1437.159108125
 20
66.1691028054
 10
1433.30760725
 20
64.8954968242
 10
1428.974161175
 20
63.6363238431
 10
1424.16621217
 20
62.3914573074
 10
1418.891202795
 20
61.16077432200001
 10
1413.15657503
 20
59.944155528200014
 10
1406.969771145
 20
58.7414850431
 10
1400.3382337
 20
57.55265036770001
 10
1393.269404675
 20
56.37754228630001
 10
1385.770726485
 20
55.2160548073
 10
1377.8496414
 20
54.06808508899999
 10
1369.51359169
 20
52.93353330240001
 10
1360.77001977
 20
51.81230261030001
 10
1351.62636762
 20
50.7042990226
 10
1342.090077655
 20
49.609431382999986
 10
1332.16859229
 20
48.52761124919999
 10
1321.86935365
 20
47.4587528207
 10
1311.19980415
 20
46.40277285319999
 10
1300.16738577
 20
45.3595906047
 10
1288.779541215
 20
44.32912775599999
 10
1277.043712465
 20
43.31130832619999
 10
1264.96734179
 20
42.3060585682
 10
1252.557871605
 20
41.313306944900006
 10
1239.82274418
 20
40.33298405619999
 10
1226.76940164
 20
39.36502250180001
 10
1213.4052864
 20
38.40935695440001
 10
1199.73784073
 20
37.465923878900014
 10
1185.7745069
 20
36.5346616727
 10
1171.52272718
 20
35.6155104577
 10
1156.98994384
 20
34.7084120582
 10
1142.18359915
 20
33.81330993110001
 10
1127.11113538
 20
32.93014916679999
 10
1111.7799948
 20
32.05887630410001
 10
1096.19761968
 20
31.19943935430001
 10
1080.371452435
 20
30.3517876871
 10
1064.30893519
 20
29.515872025899995
 10
1048.01751036
 20
28.691644339499987
 10
1031.50462007
 20
27.879057812500008
 10
1014.77770659
 20
27.07806675789999
 10
997.844212335
 20
26.2886265944
 10
980.711579575
 20
25.510693728099994
 10
963.387250435
 20
24.7442255757
 10
945.87866733
 20
23.989180430700003
 10
928.19327253
 20
23.245517528300013
 10
910.338508305
 20
22.5131968396
 10
892.32181678
 20
21.792179093100003
 10
874.150640515
 20
21.0824257811
 10
855.83242149
 20
20.383898987700007
 10
837.374602265
 20
19.696561423899993
 10
818.78462482
 20
19.020376369899992
 10
800.069931715
 20
18.355307594799996
 10
781.237965075
 20
17.701319346199995
 10
762.29616717
 20
17.05837624130001
 10
743.251980415
 20
16.4264433587
 10
724.112846935
 20
15.805485980899988
 10
704.886209
 20
15.195469760099996
 10
685.579509025
 20
14.596360579899994
 10
666.20018928
 20
14.008124437499987
 10
646.75569189
 20
13.430727604499992
 10
627.25345927
 20
12.86413637839999
 10
607.700933545
 20
12.308317168900004
 10
588.105557275
 20
11.763236413100003
 10
568.47477244
 20
11.22886054220001
 10
548.816021455
 20
10.705155991699996
 10
529.13674659
 20
10.192089080800002
 10
509.444390115
 20
9.689626036600004
 10
489.7463943
 20
9.1977329252
 10
470.050201415
 20
8.716375697699988
 10
450.36325373
 20
8.245520052300009
 10
430.69299366
 20
7.78513145849999
 10
411.046863185
 20
7.335175128499998
 10
391.432304865
 20
6.895615958500002
 10
371.85676097
 20
6.466418565400005
 10
352.327673625
 20
6.047547197099988
 10
332.8524851
 20
5.638965665400008
 10
313.43863781
 20
5.240637485200011
 10
294.093574025
 20
4.852525663499989
 10
274.82473587
 20
4.47459276890001
 10
255.63956576
 20
4.106800913000001
 10
236.54550582
 20
3.749111721499986
 10
217.54999861
 20
3.40148624950001
 10
198.66048611
 20
3.063885085999999
 10
179.88441088
 20
2.7362681822999946
 10
161.2292149
 20
2.418595000500005
 10
142.702340585
 20
2.1108243170000094
 10
124.31123035
 20
1.812914379700004
 10
106.063326175
 20
1.5248227646000032
 10
87.96607062
 20
1.2465064097000038
 10
70.02690581
 20
0.9779216048000023
 10
52.253274015
 20
0.7190239509999969
 10
34.65261765
 20
0.46976842980001265
 10
17.23237884
 20
0.2301092609999955
 10
0.0
 20
0.0
  0
LWPOLYLINE
  5
30
330
17
100
AcDbEntity
  8
0
100
AcDbPolyline
 90
2
 70
0
 10
0.0
 20
62.099999999999994
 10
1450.0
 20
77.2849195673
  0
LWPOLYLINE
  5
31
330
17
100
AcDbEntity
  8
0
100
AcDbPolyline
 90
2
 70
0
 10
0.0
 20
250.0
 10
0.0
 20
265.0
  0
TEXT
  5
32
330
17
100
AcDbEntity
  8
0
100
AcDbText
 10
0.0
 20
285.0
 30
0.0
 40
7.0
  1
'JX-GS3-100'
 72
1
 11
0.0
 21
285.0
 31
0.0
100
AcDbText
  0
TEXT
  5
33
330
17
100
AcDbEntity
  8
0
100
AcDbText
 10
0.0
 20
270.0
 30
0.0
 40
7.0
  1
JX-G-Root
 72
1
 11
0.0
 21
270.0
 31
0.0
100
AcDbText
  0
LWPOLYLINE
  5
34
330
17
100
AcDbEntity
  8
0
100
AcDbPolyline
 90
2
 70
0
 10
100.0007
 20
250.8894739959
 10
100.0007
 20
265.8894739959
  0
TEXT
  5
35
330
17
100
AcDbEntity
  8
0
100
AcDbText
 10
100.0007
 20
285.8894739959
 30
0.0
 40
7.0
  1
'JX-GS3-100'
 72
1
 11
100.0007
 21
285.8894739959
 31
0.0
100
AcDbText
  0
TEXT
  5
36
330
17
100
AcDbEntity
  8
0
100
AcDbText
 10
100.0007
 20
270.8894739959
 30
0.0
 40
7.0
  1
JX-GS3-100
 72
1
 11
100.0007
 21
270.8894739959
 31
0.0
100
AcDbText
  0
LWPOLYLINE
  5
37
330
17
100
AcDbEntity
  8
0
100
AcDbPolyline
 90
2
 70
0
 10
599.99985
 20
245.4823658505
 10
599.99985
 20
260.4823658505
  0
TEXT
  5
38
330
17
100
AcDbEntity
  8
0
100
AcDbText
 10
599.99985
 20
280.4823658505
 30
0.0
 40
7.0
  1
'JX-GS3-93'
 72
1
 11
599.99985
 21
280.4823658505
 31
0.0
100
AcDbText
  0
TEXT
  5
39
330
17
100
AcDbEntity
  8
0
100
AcDbText
 10
599.99985
 20
265.4823658505
 30
0.0
 40
7.0
  1
JX-GS3-100_blend14
 72
1
 11
599.99985
 21
265.4823658505
 31
0.0
100
AcDbText
  0
LWPOLYLINE
  5
3A
330
17
100
AcDbEntity
  8
0
100
AcDbPolyline
 90
2
 70
0
 10
1310.474963
 20
181.3300594429
 10
1310.474963
 20
196.3300594429
  0
TEXT
  5
3B
330
17
100
AcDbEntity
  8
0
100
AcDbText
 10
1310.474963
 20
216.3300594429
 30
0.0
 40
7.0
  1
'JX-GS3-50'
 72
1
 11
1310.474963
 21
216.3300594429
 31
0.0
100
AcDbText
  0
TEXT
  5
3C
330
17
100
AcDbEntity
  8
0
100
AcDbText
 10
1310.474963
 20
201.3300594429
 30
0.0
 40
7.0
  1
JX-GS3-50
 72
1
 11
1310.474963
 21
201.3300594429
 31
0.0
100
AcDbText
  0
LWPOLYLINE
  5
3D
330
17
100
AcDbEntity
  8
0
100
AcDbPolyline
 90
2
 70
0
 10
1409.586199
 20
148.2088430131
 10
1409.586199
 20
163.2088430131
  0
TEXT
  5
3E
330
17
100
AcDbEntity
  8
0
100
AcDbText
 10
1409.586199
 20
183.2088430131
 30
0.0
 40
7.0
  1
'JX-GS3-30'
 72
1
 11
1409.586199
 21
183.2088430131
 31
0.0
100
AcDbText
  0
TEXT
  5
3F
330
17
100
AcDbEntity
  8
0
100
AcDbText
 10
1409.586199
 20
168.2088430131
 30
0.0
 40
7.0
  1
JX-GS3-30
 72
1
 11
1409.586199
 21
168.2088430131
 31
0.0
100
AcDbText
  0
LWPOLYLINE
  5
40
330
17
100
AcDbEntity
  8
0
100
AcDbPolyline
 90
2
 70
0
 10
1450.0
 20
102.50473946029999
 10
1450.0
 20
117.50473946029999
  0
TEXT
  5
41
330
17
100
AcDbEntity
  8
0
100
AcDbText
 10
1450.0
 20
137.5047394603
 30
0.0
 40
7.0
  1
'JX-GS3-3'
 72
1
 11
1450.0
 21
137.5047394603
 31
0.0
100
AcDbText
  0
TEXT
  5
42
330
17
100
AcDbEntity
  8
0
100
AcDbText
 10
1450.0
 20
122.50473946029999
 30
0.0
 40
7.0
  1
JX-GS3-30
 72
1
 11
1450.0
 21
122.50473946029999
 31
0.0
100
AcDbText
  0
LWPOLYLINE
  5
43
330
17
100
AcDbEntity
  8
0
100
AcDbPolyline
 90
2
 70
0
 10
599.99985
 20
12.09268764250001
 10
599.99985
 20
68.38341342251175
  0
TEXT
  5
44
330
17
100
AcDbEntity
  8
0
100
AcDbText
 10
0.0
 20
-46.0
 30
0.0
 40
10.0
  1
VJX.race
 11
0.0
 21
-46.0
 31
0.0
100
AcDbText
 73
3
  0
TEXT
  5
45
330
17
100
AcDbEntity
  8
0
100
AcDbText
 10
0.0
 20
-66.0
 30
0.0
 40
6.0
  1
Generated by PlanformCreator2
 11
0.0
 21
-66.0
 31
0.0
100
AcDbText
 73
3
  0
TEXT
  5
46
330
17
100
AcDbEntity
  8
0
100
AcDbText
 10
580.0
 20
115.0
 30
0.0
 40
5.0
  1
The planform is idealized as a polyline. Convert to a spline for further processing.
 72
1
 11
580.0
 21
115.0
 31
0.0
100
AcDbText
 73
2
  0
LWPOLYLINE
  5
47
330
17
100
AcDbEntity
  8
0
100
AcDbPolyline
 90
201
 70
0
 10
172.5
 20
330.15
 10
170.294415
 20
330.4443738490831
 10
167.754755
 20
330.77932457771243
 10
165.217717
 20
331.10966180278496
 10
162.68107
 20
331.4357290933511
 10
160.14384800000002
 20
331.75759482210583
 10
157.606235
 20
332.07535107560625
 10
155.068346
 20
332.3889058963356
 10
152.530089
 20
332.6982822003779
 10
149.99141799999998
 20
333.00350293267815
 10
147.452425
 20
333.3045681213802
 10
144.91308700000002
 20
333.6014547251507
 10
142.373381
 20
333.8941397030181
 10
139.833307
 20
334.18269202792436
 10
137.292911
 20
334.4670426998674
 10
134.752216
 20
334.7471917049677
 10
132.211176
 20
335.0231849891097
 10
129.669791
 20
335.2950685253713
 10
127.128107
 20
335.56279631334706
 10
124.58617000000001
 20
335.82639135218176
 10
122.04388800000001
 20
336.08589956207686
 10
119.501284
 20
336.34138992946777
 10
116.958427
 20
336.5928624665107
 10
114.41536300000001
 20
336.8403171717729
 10
111.87200000000001
 20
337.0838459664697
 10
109.328361
 20
337.3234488367238
 10
106.784469
 20
337.5591487684833
 10
104.24034699999999
 20
337.79103774752423
 10
101.696064
 20
338.019046784573
 10
99.15157399999998
 20
338.24317582719584
 10
96.606854
 20
338.46344783599625
 10
94.061973
 20
338.6798398213953
 10
91.516908
 20
338.8922827439227
 10
88.97168199999999
 20
339.1006845889367
 10
86.42629500000001
 20
339.30502232945616
 10
83.88081600000001
 20
339.5050659749398
 10
81.33526800000001
 20
339.7007925100819
 10
78.789628
 20
339.8919488954423
 10
76.243896
 20
340.07839710385485
 10
73.698118
 20
340.25993013198416
 10
71.15234000000001
 20
340.4362949760982
 10
68.60660800000001
 20
340.6072846320734
 10
66.060899
 20
340.77262306034754
 10
63.515236
 20
340.93210324495055
 10
60.96966499999999
 20
341.08544918133475
 10
58.424255
 20
341.23240787607557
 10
55.879006000000004
 20
341.3727723008064
 10
53.334010000000006
 20
341.506266472801
 10
50.789289999999994
 20
341.63266037452036
 10
48.24489200000001
 20
341.751746999567
 10
45.700862
 20
341.8633653411871
 10
43.157292
 20
341.9672624145675
 10
40.61429700000001
 20
342.0633232451679
 10
38.071854
 20
342.1513407912312
 10
35.530101
 20
342.2311770881671
 10
32.989199
 20
342.302602181045
 10
30.449217000000004
 20
342.36545507003837
 10
27.910338999999993
 20
342.4195288087802
 10
25.372588000000007
 20
342.46457037403707
 10
22.836056
 20
342.5004187745705
 10
20.300927
 20
342.5267520609223
 10
17.767224
 20
342.54327120799474
 10
15.235246000000004
 20
342.54970031685707
 10
12.704993000000002
 20
342.54562534986553
 10
10.176763999999991
 20
342.53065540486193
 10
7.6508579999999995
 20
342.5043075770243
 10
5.127367
 20
342.4660528662325
 10
2.6066590000000005
 20
342.41529339463835
 10
0.08912499999999568
 20
342.35138529135565
 10
-2.4250279999999975
 20
342.2735696010292
 10
-4.935293999999999
 20
342.181133497713
 10
-7.441167
 20
342.07318015107825
 10
-9.942118
 20
341.94878973645166
 10
-12.437595000000002
 20
341.80695043461856
 10
-14.926862
 20
341.64655850071426
 10
-17.408953000000004
 20
341.46639528185545
 10
-19.882993999999997
 20
341.2650810779517
 10
-22.347904
 20
341.0410522691627
 10
-24.802326
 20
340.7926303427421
 10
-27.244604
 20
340.5178378998118
 10
-29.673059
 20
340.2143295376088
 10
-32.085391
 20
339.87955309692177
 10
-34.479208
 20
339.51054243815645
 10
-36.851267
 20
339.1038947516598
 10
-39.197542999999996
 20
338.6559315214218
 10
-41.511159
 20
338.1629753571113
 10
-43.779074
 20
337.62130530297605
 10
-45.98321
 20
337.02632832869773
 10
-48.096473
 20
336.37538687985113
 10
-50.074243
 20
335.6727301986073
 10
-51.84867
 20
334.93788847357814
 10
-53.342635
 20
334.2103592335663
 10
-54.516923
 20
333.53479984930806
 10
-55.3978
 20
332.9348430219627
 10
-56.047596
 20
332.4092446028745
 10
-56.526571
 20
331.94539956006304
 10
-56.879023
 20
331.5297203143752
 10
-57.134461
 20
331.15156918759374
 10
-57.312228
 20
330.8037395391468
 10
-57.425549
 20
330.4825001544462
 10
-57.484084
 20
330.1861682321882
 10
-57.5
 20
330.0
 10
-57.49655
 20
329.9260306491105
 10
-57.425641
 20
329.70014288158325
 10
-57.257488
 20
329.4850040167931
 10
-57.006719
 20
329.27523774694816
 10
-56.681384
 20
329.06456817679043
 10
-56.273249
 20
328.84634501156404
 10
-55.759889
 20
328.61395835092964
 10
-55.102411000000004
 20
328.3594117485533
 10
-54.238991
 20
328.0733425829387
 10
-53.085909
 20
327.74787430277684
 10
-51.569036
 20
327.38520764773966
 10
-49.693754
 20
327.0063883348061
 10
-47.557675
 20
326.6399736765183
 10
-45.271176
 20
326.3038546006153
 10
-42.902498
 20
326.0029107764563
 10
-40.484691999999995
 20
325.73517710448664
 10
-38.035928
 20
325.4973256740557
 10
-35.568073999999996
 20
325.2869461374797
 10
-33.084970999999996
 20
325.1025449342591
 10
-30.585929
 20
324.9408786556735
 10
-28.076352999999997
 20
324.7994654282525
 10
-25.559531999999997
 20
324.67738653810926
 10
-23.035649999999997
 20
324.57316999076573
 10
-20.505741999999998
 20
324.48562015363643
 10
-17.970130000000005
 20
324.4134030990704
 10
-15.429734000000003
 20
324.3553461581869
 10
-12.885151999999998
 20
324.31041453139426
 10
-10.336683
 20
324.277596294715
 10
-7.784764000000003
 20
324.25594858672133
 10
-5.229624999999999
 20
324.2445974590926
 10
-2.671472999999999
 20
324.2427149552392
 10
-0.11069899999999677
 20
324.24951920170685
 10
2.4525819999999996
 20
324.26422820563414
 10
5.018117000000004
 20
324.2862210367657
 10
7.585629999999995
 20
324.3148537773873
 10
10.154775999999998
 20
324.34959754344715
 10
12.725279
 20
324.3900154226574
 10
15.297093000000004
 20
324.43564740005417
 10
17.87001099999999
 20
324.48617153497185
 10
20.444079000000002
 20
324.5412887716582
 10
23.019228
 20
324.6005161071826
 10
25.595411999999996
 20
324.6636235283851
 10
28.172607999999997
 20
324.7302200115937
 10
30.750862000000012
 20
324.80000650061174
 10
33.329966999999996
 20
324.8726380587492
 10
35.909876999999994
 20
324.94783867439384
 10
38.490408
 20
325.02535540248346
 10
41.071467999999996
 20
325.1049812553007
 10
43.653057000000004
 20
325.18653220130454
 10
46.235152
 20
325.26980122003494
 10
48.817638
 20
325.35455833624377
 10
51.40062999999999
 20
325.4407114623741
 10
53.983920999999995
 20
325.5280306691034
 10
56.567672
 20
325.61640084581734
 10
59.151698999999994
 20
325.70563805286577
 10
61.736070999999995
 20
325.7956502250323
 10
64.320696
 20
325.8862993777358
 10
66.905574
 20
325.97747048043783
 10
69.49075099999999
 20
326.0690944789452
 10
72.076135
 20
326.161056389413
 10
74.66167999999999
 20
326.25326420508776
 10
77.247363
 20
326.3457409076437
 10
79.83332200000001
 20
326.4383253947726
 10
82.41930400000001
 20
326.5310177678878
 10
85.005401
 20
326.62374894892037
 10
87.591544
 20
326.71658794412076
 10
90.17777899999999
 20
326.80941969903495
 10
92.764014
 20
326.9022902325953
 10
95.35036400000001
 20
326.99515345304934
 10
97.936553
 20
327.08803247914466
 10
100.522719
 20
327.18090420709143
 10
103.10881599999999
 20
327.27381463219587
 10
105.69489000000002
 20
327.3667176995342
 10
108.280757
 20
327.4596364808221
 10
110.866532
 20
327.5525708834665
 10
113.452054
 20
327.6455669677679
 10
116.03743800000001
 20
327.7385786406673
 10
118.622615
 20
327.8315829116207
 10
121.207539
 20
327.9246257777269
 10
123.79218699999998
 20
328.01766122339666
 10
126.37658200000001
 20
328.11068920682305
 10
128.960678
 20
328.2036867256255
 10
131.544406
 20
328.2966767912065
 10
134.127835
 20
328.3896133352883
 10
136.71098800000001
 20
328.4825423156181
 10
139.293704
 20
328.5755097978898
 10
141.876167
 20
328.6685386455077
 10
144.458216
 20
328.7617209247434
 10
147.039828
 20
328.8551716212366
 10
149.621049
 20
328.9490976793631
 10
152.20192500000002
 20
329.0437290428483
 10
154.782456
 20
329.13924968268293
 10
157.362481
 20
329.23607366798643
 10
159.942184
 20
329.3345918582375
 10
162.52156499999998
 20
329.43512622393786
 10
165.100624
 20
329.53818273549365
 10
167.679775
 20
329.64419810547463
 10
170.26035199999998
 20
329.75342446547137
 10
172.5
 20
329.85
  0
TEXT
  5
48
330
17
100
AcDbEntity
  8
0
100
AcDbText
 10
172.5
 20
350.15
 30
0.0
 40
4.0
  1
Te gap = 0.3 mm
 72
1
 11
172.5
 21
350.15
 31
0.0
100
AcDbText
  0
LWPOLYLINE
  5
49
330
17
100
AcDbEntity
  8
0
100
AcDbPolyline
 90
161
 70
0
 10
272.09473229
 20
331.0394739959
 10
269.84727601177644
 20
331.31576664735496
 10
266.76422289623656
 20
331.6930765436759
 10
262.5614801148761
 20
332.2039113340349
 10
258.3945099463608
 20
332.70595565847725
 10
254.3344904824461
 20
333.1903493918337
 10
250.3665527987421
 20
333.65868800867577
 10
246.47688348092348
 20
334.11236144406746
 10
242.65272462472998
 20
334.5526458324136
 10
238.88223616073995
 20
334.9806574939912
 10
235.1546105837257
 20
335.39730707769945
 10
231.45995822329812
 20
335.8034600825808
 10
227.78930724390725
 20
336.199776209368
 10
224.1345118613581
 20
336.5867781199366
 10
220.4883900180363
 20
336.964897386175
 10
216.84449392419882
 20
337.33445139057443
 10
213.19722478732845
 20
337.69562042766086
 10
209.54174102865014
 20
338.0484935253505
 10
205.87395828313075
 20
338.3930454825326
 10
202.19050350773753
 20
338.7291827193506
 10
198.48869203556674
 20
339.0566973579579
 10
194.76650462997276
 20
339.37533603335953
 10
191.0225415928264
 20
339.6847080714428
 10
187.2560457103855
 20
339.9844231637261
 10
183.46681046981138
 20
340.2739995219279
 10
179.65520300503954
 20
340.55288682460247
 10
175.82209525916696
 20
340.8204891152307
 10
171.96888693032287
 20
341.07621069549936
 10
168.09741368818507
 20
341.3193413379188
 10
164.2099701198508
 20
341.54919396390915
 10
160.3092638380947
 20
341.76505871959097
 10
156.39839253549798
 20
341.96615706435585
 10
152.4808439844484
 20
342.15175649269327
 10
148.56035836191444
 20
342.3210786753283
 10
144.64104297880002
 20
342.47336834875927
 10
140.72728049646085
 20
342.60787031837776
 10
136.82370598083324
 20
342.72380649727967
 10
132.93511511895034
 20
342.8204905882061
 10
129.06660189416795
 20
342.8971675264041
 10
125.22332912745475
 20
342.95317398895247
 10
121.4106661526182
 20
342.9879155142024
 10
117.63405114107869
 20
343.0007287614562
 10
113.89903699361136
 20
342.9911339382467
 10
110.21122250273348
 20
342.9585823653959
 10
106.57622940683311
 20
342.90266298203403
 10
102.99967944429847
 20
342.82303350088813
 10
99.4871943535176
 20
342.71939746623025
 10
96.04430408939484
 20
342.5915271631092
 10
92.67649271509245
 20
342.4393095349108
 10
89.38910661854695
 20
342.2627002565248
 10
86.18737745833988
 20
342.0618155342275
 10
83.07637627195612
 20
341.83677147088497
 10
80.06094463817075
 20
341.5878905560006
 10
77.14574056879107
 20
341.3155640174851
 10
74.33519261691467
 20
341.020320646506
 10
71.63340809344555
 20
340.70280382004006
 10
69.04421895883604
 20
340.36381741959775
 10
66.57113593134486
 20
340.00430287309666
 10
64.21727964942419
 20
339.6253391332931
 10
61.98542656346163
 20
339.2281427037846
 10
59.877940098167315
 20
338.81411350858457
 10
57.89667886908998
 20
338.38485780662614
 10
56.04313435784279
 20
337.94205057866213
 10
54.31820145339367
 20
337.48766489730224
 10
52.722362019033
 20
337.02376549351646
 10
51.255455433664025
 20
336.55266928848033
 10
49.91679332115754
 20
336.0768766057126
 10
48.70506776686817
 20
335.59907113641583
 10
47.61832837176327
 20
335.122142877848
 10
46.65398225242302
 20
334.6492340258653
 10
45.80874814929844
 20
334.183693064788
 10
45.07863348084037
 20
333.7291206491415
 10
44.458888451757616
 20
333.28927780025936
 10
43.94398310714594
 20
332.86824651583515
 10
43.527630278359
 20
332.470337992302
 10
43.20267085365353
 20
332.1000696296521
 10
42.96114261580226
 20
331.7623027294955
 10
42.79416551273901
 20
331.46210476960636
 10
42.69432802813985
 20
331.21229953278555
 10
42.64809209813127
 20
331.02442342894267
 10
42.636022569999994
 20
330.8894739959
 10
42.67771521755611
 20
330.66130673725036
 10
42.819337133195305
 20
330.411163754754
 10
43.08986895195518
 20
330.1377715346628
 10
43.494198144352794
 20
329.85817683552955
 10
44.0238347381285
 20
329.58234138800134
 10
44.67717252231425
 20
329.31111465450897
 10
45.45253644832911
 20
329.04525430466333
 10
46.34811379236626
 20
328.7854950820409
 10
47.362137722360885
 20
328.53250284133986
 10
48.4927037310223
 20
328.2868746231883
 10
49.73786141931788
 20
328.04923040309325
 10
51.09563744234404
 20
327.82002951713713
 10
52.56396667171329
 20
327.59977720436143
 10
54.140738087296214
 20
327.38886396932935
 10
55.82381772309242
 20
327.18772619589373
 10
57.61100277548857
 20
326.99666260079164
 10
59.500044549129456
 20
326.8159719016941
 10
61.48867140278881
 20
326.64588397223787
 10
63.57454285762749
 20
326.4866516463718
 10
65.7552954889354
 20
326.3384359722983
 10
68.02851998026047
 20
326.20135211573097
 10
70.39180701515063
 20
326.07551523458267
 10
72.84265549366995
 20
325.9609946276242
 10
75.37861020762443
 20
325.85781367887813
 10
77.99712416533615
 20
325.76597286335686
 10
80.69565037512723
 20
325.6854267646547
 10
83.47161889944883
 20
325.6161529241812
 10
86.32243685488109
 20
325.5580141679379
 10
89.24551135800417
 20
325.5108962737339
 10
92.2382036336563
 20
325.4747079930364
 10
95.29787490667567
 20
325.44922041190415
 10
98.4218634560296
 20
325.43427347571645
 10
101.60753050655623
 20
325.4296382953804
 10
104.85219139135191
 20
325.43508601729445
 10
108.15318438938382
 20
325.4503877943984
 10
111.50782483374829
 20
325.4752230249292
 10
114.91345100341252
 20
325.5093399543137
 10
118.36735528560186
 20
325.55244097894087
 10
121.8668989051545
 20
325.6041596489387
 10
125.40942014103766
 20
325.664198386957
 10
128.9922343263477
 20
325.73221376066067
 10
132.61270268592276
 20
325.8078623433894
 10
136.2682093904721
 20
325.89073188817184
 10
139.95613861070484
 20
325.9805019608871
 10
143.67385157145927
 20
326.07676038582684
 10
147.41880128105745
 20
326.1791408660462
 10
151.18841780195052
 20
326.2872542022432
 10
154.98015414246058
 20
326.40068827137753
 10
158.79150920265172
 20
326.51909979924795
 10
162.619981882588
 20
326.6420537629118
 10
166.46316286581728
 20
326.7691610198574
 10
170.31857399827467
 20
326.9000324984018
 10
174.18387480112102
 20
327.03430203827327
 10
178.0567247955171
 20
327.17158056920283
 10
181.9347605567529
 20
327.3115020155987
 10
185.81575633534405
 20
327.45367732033253
 10
189.6974863818063
 20
327.59774040830945
 10
193.57777083839733
 20
327.7433711080824
 10
197.45447573911673
 20
327.8902263138295
 10
201.32551300970604
 20
328.0379629307522
 10
205.18886341351973
 20
328.18628375355206
 10
209.04255360565426
 20
328.3348915864301
 10
212.8846790788189
 20
328.48348922950214
 10
216.71338121746479
 20
328.6318483282328
 10
220.5268472977854
 20
328.77969464331517
 10
224.32335637945764
 20
328.9268227527489
 10
228.1012563597716
 20
329.073004279819
 10
231.85891808188828
 20
329.2181026478966
 10
235.5948500641945
 20
329.3619353371042
 10
239.30758377094796
 20
329.50436573295207
 10
242.9957424498904
 20
329.64530308461315
 10
246.6580181863765
 20
329.7846795708162
 10
250.29317190337363
 20
329.92242735238034
 10
253.90010219907523
 20
330.0585473661174
 10
257.4777076716746
 20
330.19306351474034
 10
261.02504754046186
 20
330.32599962122697
 10
264.5412269164692
 20
330.45744833442933
 10
267.9560543803932
 20
330.5849300552661
 10
270.37606360832615
 20
330.67528039186493
 10
272.09473229
 20
330.7394739959
  0
TEXT
  5
4A
330
17
100
AcDbEntity
  8
0
100
AcDbText
 10
272.09473229
 20
351.0394739959
 30
0.0
 40
4.0
  1
Te gap = 0.3 mm
 72
1
 11
272.09473229
 21
351.0394739959
 31
0.0
100
AcDbText
  0
LWPOLYLINE
  5
4B
330
17
100
AcDbEntity
  8
0
100
AcDbPolyline
 90
161
 70
0
 10
760.042108656
 20
325.6323658505
 10
757.952042113824
 20
325.88403472232346
 10
755.0848957194856
 20
326.2277255428436
 10
751.1764717123957
 20
326.6931121245886
 10
747.3013151561385
 20
327.1506265768444
 10
743.5256195288939
 20
327.59225377205655
 10
739.8355571795142
 20
328.0195007810035
 10
736.2182820493713
 20
328.4336843935452
 10
732.6619296723568
 20
328.83600609833337
 10
729.1554891410751
 20
329.2275223089761
 10
725.6889098016827
 20
329.6090978674754
 10
722.2529945590487
 20
329.981539302647
 10
718.8393998767554
 20
330.3454710289416
 10
715.4405504212261
 20
330.70138564288203
 10
712.0497670955333
 20
331.0496781181495
 10
708.661053649719
 20
331.39064185827925
 10
705.2692033756349
 20
331.72443378016925
 10
701.8697137510711
 20
332.051129016411
 10
698.4587864397554
 20
332.37068730190975
 10
695.0332846134179
 20
332.68300413571774
 10
691.590711612824
 20
332.9878629575274
 10
688.1291896088051
 20
333.2850077620452
 10
684.6474169243243
 20
333.5740534108817
 10
681.1446893734433
 20
333.8546035563219
 10
677.6208149054521
 20
334.12618638837466
 10
674.0761349438355
 20
334.3882575688066
 10
670.5114603693709
 20
334.6402389710896
 10
666.9280928590952
 20
334.88153626527884
 10
663.3277395304342
 20
335.1114623103834
 10
659.7125342801698
 20
335.3293496682734
 10
656.0849951065052
 20
335.53449701529286
 10
652.4480027700959
 20
335.72615509991164
 10
648.8048007940507
 20
335.90360782440223
 10
645.1588674301245
 20
336.0660989919192
 10
641.514022353557
 20
336.2128906374772
 10
637.8743413072023
 20
336.34325024678765
 10
634.24413476256
 20
336.45642726264407
 10
630.6278625639046
 20
336.551740411512
 10
627.0302619620925
 20
336.62846711641845
 10
623.4561342248833
 20
336.68596050610864
 10
619.9104726707469
 20
336.7236266280733
 10
616.3983346350572
 20
336.74083204842043
 10
612.9248841480264
 20
336.73709362455037
 10
609.495327917803
 20
336.71187822674466
 10
606.1148939915032
 20
336.66477699060135
 10
602.788810416243
 20
336.59544416980845
 10
599.5223052391383
 20
336.50358188353243
 10
596.3205211514343
 20
336.3889553863315
 10
593.1885581664397
 20
336.25143601142895
 10
590.1313882636572
 20
336.0909665619428
 10
587.1538767277497
 20
335.90763099635853
 10
584.2607394706056
 20
335.7015244453007
 10
581.4564790144352
 20
335.4729313921338
 10
578.745427169706
 20
335.2222016669012
 10
576.1317023572075
 20
334.9498137272423
 10
573.6191242521796
 20
334.6563592023705
 10
571.2112564622483
 20
334.34257563836076
 10
568.9113638494904
 20
334.00933318293374
 10
566.7223485135293
 20
333.65763405259537
 10
564.6467924694713
 20
333.2886076089522
 10
562.6868936310021
 20
332.90355875592024
 10
560.8443804545151
 20
332.50398356156234
 10
559.1206399729188
 20
332.0914514719016
 10
557.5165044059579
 20
331.66779577999534
 10
556.0324218719569
 20
331.2349599105423
 10
554.668242998141
 20
330.79510804989786
 10
553.4233276154755
 20
330.3505832452762
 10
552.2964594027947
 20
329.9039040025254
 10
551.2858245478338
 20
329.45778115717366
 10
550.389011747229
 20
329.0151606159181
 10
549.602969528582
 20
328.57919046774055
 10
548.923984911492
 20
328.1532438687101
 10
548.34764072962
 20
327.740856233033
 10
547.8687942917213
 20
327.34585947752475
 10
547.4815987206129
 20
326.9722990885719
 10
547.1793962583347
 20
326.6244141250098
 10
546.954782283053
 20
326.30676065064443
 10
546.799498614221
 20
326.0240696260836
 10
546.7066527652327
 20
325.7883950655178
 10
546.6636547450738
 20
325.6106397132589
 10
546.652430448
 20
325.48257638545107
 10
546.6912033525305
 20
325.2651106482676
 10
546.8229074619204
 20
325.02724040423874
 10
547.0744938925276
 20
324.7676133070211
 10
547.4505078444979
 20
324.5024424179458
 10
547.9430538997376
 20
324.24117586248735
 10
548.5506383304993
 20
323.9845874285409
 10
549.2717033921319
 20
323.73339589673935
 10
550.1045633061777
 20
323.48830784386263
 10
551.0475749721146
 20
323.2499635713665
 10
552.0989672556132
 20
323.0189577053766
 10
553.256926344409
 20
322.79589559236285
 10
554.5196170872691
 20
322.58125048068536
 10
555.8851189770899
 20
322.37552469156094
 10
557.3514688288318
 20
322.1791262602722
 10
558.9166821184875
 20
321.99248586101476
 10
560.5787103051462
 20
321.8159085125193
 10
562.3354621699614
 20
321.6496896374482
 10
564.1848251551188
 20
321.49405035660817
 10
566.1246226859008
 20
321.34921676906924
 10
568.1526568486217
 20
321.21532563938865
 10
570.2666870516606
 20
321.0924570599904
 10
572.4644727033962
 20
320.9806709985316
 10
574.7436878563358
 20
320.87998752606484
 10
577.1020492409227
 20
320.7903626031726
 10
579.537188231729
 20
320.7117315407308
 10
582.0467362033263
 20
320.643979549438
 10
584.6283031913189
 20
320.58699780703563
 10
587.2794778923429
 20
320.5405899222448
 10
589.9978490030346
 20
320.50455841015275
 10
592.7809625420947
 20
320.47873983413626
 10
595.6263645282236
 20
320.46284518507844
 10
598.5315796411543
 20
320.4566482175987
 10
601.4941538995872
 20
320.45986578338847
 10
604.5115906442874
 20
320.47221863226343
 10
607.5814145549876
 20
320.4934338751505
 10
610.701128972453
 20
320.52316459657976
 10
613.8682585764161
 20
320.5611254025949
 10
617.0802853686743
 20
320.6069958441376
 10
620.3347553679279
 20
320.66040947544803
 10
623.62919325391
 20
320.7210553777751
 10
626.9611023673853
 20
320.78859355432434
 10
630.3280287270546
 20
320.86268546680145
 10
633.7275396905862
 20
320.94294418129044
 10
637.1572026156487
 20
321.0290610240292
 10
640.6145635209425
 20
321.12065124241445
 10
644.0972537810396
 20
321.21737934206067
 10
647.6028834315441
 20
321.3188921544774
 10
651.1290838470279
 20
321.424816180588
 10
654.6735290799984
 20
321.53484303895897
 10
658.2338931829632
 20
321.6485923811203
 10
661.8079355643011
 20
321.76571869287505
 10
665.3933516154876
 20
321.88588198714496
 10
668.9879647618048
 20
322.0087669417878
 10
672.5895984285352
 20
322.1340369804224
 10
676.1960547019929
 20
322.26137688501797
 10
679.8052637022995
 20
322.3904548230864
 10
683.4151555495764
 20
322.5209606403631
 10
687.0237030418807
 20
322.6526222231101
 10
690.6289216552047
 20
322.7851493449421
 10
694.2288695434772
 20
322.9182551652909
 10
697.8216688775296
 20
323.0516909820382
 10
701.4054845061296
 20
323.1852075607739
 10
704.9785452949478
 20
323.31855709958694
 10
708.5391227875908
 20
323.45154925170897
 10
712.0855312056009
 20
323.58395752707787
 10
715.6161701263914
 20
323.7156112699994
 10
719.1295031442792
 20
323.84632393881316
 10
722.624015192549
 20
323.97598301398097
 10
726.0983192382926
 20
324.10443883261775
 10
729.5510495875693
 20
324.2315811930323
 10
732.9809259023099
 20
324.35733723960925
 10
736.3867318613487
 20
324.481653538944
 10
739.7673151604233
 20
324.6044775764646
 10
743.1216515290783
 20
324.7258130397242
 10
746.4487166968584
 20
324.84568724369643
 10
749.7476357660828
 20
324.96412684372245
 10
753.0175765170065
 20
325.08121516126636
 10
756.1932630470658
 20
325.1947501127533
 10
758.4437986272543
 20
325.27520383800027
 10
760.042108656
 20
325.3323658505
  0
TEXT
  5
4C
330
17
100
AcDbEntity
  8
0
100
AcDbText
 10
760.042108656
 20
345.6323658505
 30
0.0
 40
4.0
  1
Te gap = 0.3 mm
 72
1
 11
760.042108656
 21
345.6323658505
 31
0.0
100
AcDbText
  0
LWPOLYLINE
  5
4D
330
17
100
AcDbEntity
  8
0
100
AcDbPolyline
 90
161
 70
0
 10
1396.724963
 20
261.4800594429
 10
1395.6491609999998
 20
261.5925284660986
 10
1394.3838389999999
 20
261.7243051759888
 10
1392.9001779999999
 20
261.8781700026143
 10
1391.1661159999999
 20
262.0571074383488
 10
1389.145934
 20
262.26440948074486
 10
1386.9994705
 20
262.48331115657106
 10
1384.9149
 20
262.6946071244528
 10
1382.8836895
 20
262.8992494157043
 10
1380.8978694999998
 20
263.0981222823556
 10
1378.950103
 20
263.29198473042567
 10
1377.0336049999999
 20
263.481493355505
 10
1375.1421999999998
 20
263.667202372443
 10
1373.2702184999998
 20
263.84959793392414
 10
1371.4125199999999
 20
264.0290291246855
 10
1369.5645275
 20
264.20581147238704
 10
1367.7221009999998
 20
264.3801347512818
 10
1365.881618
 20
264.5521550601677
 10
1364.0399275
 20
264.72191423640686
 10
1362.1942924999998
 20
264.88942025916685
 10
1360.342436
 20
265.0545782863268
 10
1358.4824835
 20
265.2172710606923
 10
1356.6129629999998
 20
265.37731289074935
 10
1354.7327819999998
 20
265.5344381034779
 10
1352.8412159999998
 20
265.6883815125492
 10
1350.9378855
 20
265.8387863733518
 10
1349.0227559999998
 20
265.98529636683423
 10
1347.0960805
 20
266.1274980150949
 10
1345.158434
 20
266.2649322085379
 10
1343.2106675
 20
266.3971631370726
 10
1341.2538964999999
 20
266.52367476393084
 10
1339.289478
 20
266.64396278700474
 10
1337.319022
 20
266.7575116409546
 10
1335.3443224999999
 20
266.86378290782017
 10
1333.3674035
 20
266.96222686072196
 10
1331.3904499999999
 20
267.0523053773454
 10
1329.4158195
 20
267.1334919464015
 10
1327.4460304999998
 20
267.20522564865064
 10
1325.4837165
 20
267.26699160150343
 10
1323.531626
 20
267.3182979560553
 10
1321.5926224999998
 20
267.35862989455495
 10
1319.6696499999998
 20
267.38753009177333
 10
1317.7656984999999
 20
267.4045641786129
 10
1315.8838269999999
 20
267.4093092678643
 10
1314.0271174999998
 20
267.4013999078143
 10
1312.1986865
 20
267.3805050975584
 10
1310.4016159999999
 20
267.3463397200592
 10
1308.6389995
 20
267.2986530950693
 10
1306.9138959999998
 20
267.2372519377768
 10
1305.2292839999998
 20
267.1620118197128
 10
1303.5881189999998
 20
267.07286573420953
 10
1301.9932414999998
 20
266.96979251244096
 10
1300.4473999999998
 20
266.85287435554176
 10
1298.9532279999999
 20
266.72223932098206
 10
1297.5132325
 20
266.57809582069746
 10
1296.1297479999998
 20
266.42074408623307
 10
1294.8049824999998
 20
266.2505647227988
 10
1293.5409025
 20
266.06803010858033
 10
1292.3393365
 20
265.87371600326196
 10
1291.2018484999999
 20
265.66826693674625
 10
1290.1298069999998
 20
265.4524652834524
 10
1289.1242929999999
 20
265.2271966840161
 10
1288.1861574999998
 20
264.99342710691275
 10
1287.3159524999999
 20
264.7522602908665
 10
1286.513908
 20
264.5049262300032
 10
1285.7799894999998
 20
264.25276973205916
 10
1285.1137715
 20
263.9972618060386
 10
1284.5145295
 20
263.7400112500354
 10
1283.9811479999998
 20
263.48275306885887
 10
1283.5121204999998
 20
263.2273714751804
 10
1283.1055609999999
 20
262.9759113997254
 10
1282.7591694999999
 20
262.73052095841604
 10
1282.4701859999998
 20
262.4935434081964
 10
1282.2354249999999
 20
262.26747117470615
 10
1282.0512294999999
 20
262.05494580599355
 10
1281.9134594999998
 20
261.8587924566684
 10
1281.8174804999999
 20
261.68198537133105
 10
1281.764592
 20
261.5482271745744
 10
1281.7385215
 20
261.4509021672925
 10
1281.7275965
 20
261.3805813172167
 10
1281.724963
 20
261.3300594429
 10
1281.733542
 20
261.2441467081264
 10
1281.7659605
 20
261.14283697720117
 10
1281.835478
 20
261.0238527811733
 10
1281.9609544999998
 20
260.884877069202
 10
1282.1622619999998
 20
260.72799630918456
 10
1282.4192639999999
 20
260.5769070315492
 10
1282.7286485
 20
260.4316465665253
 10
1283.0874254999999
 20
260.2922749343444
 10
1283.4928579999998
 20
260.1588634118526
 10
1283.9425425
 20
260.0314254625173
 10
1284.434294
 20
259.910008842879
 10
1284.9662035
 20
259.7946265516625
 10
1285.5366264999998
 20
259.6852913406438
 10
1286.1441025
 20
259.582004288315
 10
1286.787447
 20
259.48475471511085
 10
1287.4656479999999
 20
259.39354327736095
 10
1288.1779119999999
 20
259.3083474237541
 10
1288.9236294999998
 20
259.229132925452
 10
1289.7023519999998
 20
259.1558538956352
 10
1290.5138264999998
 20
259.08848725525115
 10
1291.3579264999998
 20
259.0269522949953
 10
1292.2346635
 20
258.9712141623929
 10
1293.1442215
 20
258.92120332656754
 10
1294.086842
 20
258.8768501840874
 10
1295.0629275
 20
258.8380619585045
 10
1296.0729494999998
 20
258.8047572846915
 10
1297.1174715
 20
258.7768661843631
 10
1298.1971259999998
 20
258.75426108531383
 10
1299.3126029999999
 20
258.7368603298509
 10
1300.4646615
 20
258.7245591608636
 10
1301.6540719999998
 20
258.7172182751281
 10
1302.8816625
 20
258.71475577594794
 10
1304.1482609999998
 20
258.71702072697457
 10
1305.4546839999998
 20
258.7238851617787
 10
1306.801771
 20
258.73524404755256
 10
1308.1903269999998
 20
258.75093484045084
 10
1309.621134
 20
258.7708294727817
 10
1311.094928
 20
258.79477687505187
 10
1312.6123874999998
 20
258.8226259870677
 10
1314.1741335
 20
258.8542372576574
 10
1315.7807065
 20
258.8894481684841
 10
1317.432578
 20
258.9281077227514
 10
1319.1300815
 20
258.9700420187258
 10
1320.8734929999998
 20
259.0151001673898
 10
1322.6629274999998
 20
259.06310840415085
 10
1324.4983734999998
 20
259.11390455658716
 10
1326.3796814999998
 20
259.16731506113723
 10
1328.3065525
 20
259.2231664808444
 10
1330.2785035
 20
259.28129704971013
 10
1332.2948904999998
 20
259.3415106553111
 10
1334.3548739999999
 20
259.4036458855902
 10
1336.4573959999998
 20
259.46753006524403
 10
1338.6012145
 20
259.53296772835625
 10
1340.7848459999998
 20
259.5997981961729
 10
1343.0065654999999
 20
259.66783809212654
 10
1345.264418
 20
259.7368928442317
 10
1347.556161
 20
259.80680276965643
 10
1349.8793219999998
 20
259.8773855259388
 10
1352.231118
 20
259.9484592264223
 10
1354.6084784999998
 20
260.0198424353693
 10
1357.008034
 20
260.0913657048784
 10
1359.4260929999998
 20
260.162848627603
 10
1361.858642
 20
260.2341228626713
 10
1364.3013225
 20
260.3050206912228
 10
1366.7494195
 20
260.3753635590132
 10
1369.1978729999998
 20
260.44498508992206
 10
1371.641255
 20
260.5137196433548
 10
1374.0737235
 20
260.5814024030156
 10
1376.4890569999998
 20
260.64788086041597
 10
1378.8806315
 20
260.71299187155194
 10
1381.241386
 20
260.7765847286716
 10
1383.5638685
 20
260.8385096210654
 10
1385.8401325
 20
260.8986177959522
 10
1388.061806
 20
260.95676148123687
 10
1390.220057
 20
261.0128169436749
 10
1392.125998
 20
261.06201782618655
 10
1393.6626855
 20
261.10152627669004
 10
1394.9039724999998
 20
261.13337315459796
 10
1395.9090265
 20
261.1591352685224
 10
1396.724963
 20
261.1800594429
  0
TEXT
  5
4E
330
17
100
AcDbEntity
  8
0
100
AcDbText
 10
1396.724963
 20
281.4800594429
 30
0.0
 40
4.0
  1
Te gap = 0.3 mm
 72
1
 11
1396.724963
 21
281.4800594429
 31
0.0
100
AcDbText
  0
LWPOLYLINE
  5
4F
330
17
100
AcDbEntity
  8
0
100
AcDbPolyline
 90
161
 70
0
 10
1461.336199
 20
228.3588430131
 10
1460.6001001
 20
228.42825919803082
 10
1459.5919273000002
 20
228.52266316416916
 10
1458.2211319
 20
228.64988193029487
 10
1456.866724
 20
228.77442537567887
 10
1455.5523361
 20
228.8943626660492
 10
1454.2734487
 20
229.010342535849
 10
1453.0258252
 20
229.1229458665682
 10
1451.8055326
 20
229.23269947647097
 10
1450.608907
 20
229.34004148395016
 10
1449.4325605000001
 20
229.44539027725648
 10
1448.2733674
 20
229.54907543989611
 10
1447.1284573
 20
229.651385997317
 10
1445.9952151
 20
229.75256348335378
 10
1444.8712672000001
 20
229.85277427799326
 10
1443.7544677
 20
229.9521716487787
 10
1442.6429122000002
 20
230.0508405572253
 10
1441.5349033
 20
230.14883205793328
 10
1440.4289575
 20
230.2461494936629
 10
1439.3238190000002
 20
230.34275540575047
 10
1438.2183907
 20
230.4385920638784
 10
1437.1118032000002
 20
230.53354710093262
 10
1436.0033527
 20
230.62750166076424
 10
1434.8925079
 20
230.72028209897286
 10
1433.7789169
 20
230.81169448325653
 10
1432.6623865000001
 20
230.90153143549063
 10
1431.5428615
 20
230.98955827593653
 10
1430.4204661
 20
231.07550619762193
 10
1429.2954280000001
 20
231.15910659683706
 10
1428.1681267000001
 20
231.24007046318462
 10
1427.0390590000002
 20
231.3180882983284
 10
1425.9088528
 20
231.3928508347266
 10
1424.7782188
 20
231.46402823001773
 10
1423.6479919
 20
231.53129774270056
 10
1422.5190898
 20
231.5943160424301
 10
1421.3925268
 20
231.65275373136973
 10
1420.2693862
 20
231.70626768490584
 10
1419.1508341
 20
231.7545355741559
 10
1418.0380987
 20
231.79722822218994
 10
1416.9324496000002
 20
231.83402336239476
 10
1415.8352392000002
 20
231.8646126147769
 10
1414.7478337
 20
231.88869445465158
 10
1413.6716407000001
 20
231.90598806500515
 10
1412.6081161000002
 20
231.9162333490656
 10
1411.5587089
 20
231.9191770302083
 10
1410.5248957000001
 20
231.91459341779515
 10
1409.50816
 20
231.9022843719977
 10
1408.5099715000001
 20
231.88207237046458
 10
1407.5318068000001
 20
231.8538074495685
 10
1406.5751218
 20
231.81738095984372
 10
1405.6413379
 20
231.77270484748794
 10
1404.7318558000002
 20
231.7197323844567
 10
1403.8480348
 20
231.65845123846412
 10
1402.9911928000001
 20
231.588890379574
 10
1402.1625787
 20
231.51113383991742
 10
1401.3634069
 20
231.42527937949248
 10
1400.5948021000002
 20
231.33150739946007
 10
1399.8578200000002
 20
231.23002578473506
 10
1399.1534335000001
 20
231.12109748785258
 10
1398.4825258
 20
231.00504742451685
 10
1397.8458766
 20
230.88224865766088
 10
1397.2441759
 20
230.75313622671348
 10
1396.6779826000002
 20
230.61820018576634
 10
1396.1477452000001
 20
230.478006343516
 10
1395.653788
 20
230.33317554587626
 10
1395.1962904000002
 20
230.18440434721964
 10
1394.7753007000001
 20
230.0324512368831
 10
1394.3907085
 20
229.87815729805575
 10
1394.0422516
 20
229.72242552167194
 10
1393.7295091
 20
229.56624839718253
 10
1393.4518738000002
 20
229.41068716962
 10
1393.208566
 20
229.25689946200245
 10
1392.9986335
 20
229.10611857462797
 10
1392.8209033
 20
228.95965340696807
 10
1392.674023
 20
228.81892992120385
 10
1392.5564194
 20
228.68543587351658
 10
1392.4663123
 20
228.56076913220522
 10
1392.4016938
 20
228.44662384051009
 10
1392.361315
 20
228.34782796972647
 10
1392.3416293
 20
228.26946118659973
 10
1392.336199
 20
228.2088430131
 10
1392.347377
 20
228.12812296461357
 10
1392.3845887
 20
228.04213160228292
 10
1392.4540096
 20
227.95092813489077
 10
1392.5552878
 20
227.86043324209334
 10
1392.6848698000001
 20
227.77370913748692
 10
1392.8411617000002
 20
227.69074442052863
 10
1393.0227352000002
 20
227.61152741360445
 10
1393.2283207
 20
227.53603237570394
 10
1393.4567866
 20
227.4642402372394
 10
1393.7071531000001
 20
227.39613167939225
 10
1393.9785715
 20
227.33166646764548
 10
1394.2703311
 20
227.27082484087578
 10
1394.5818247
 20
227.21356616617763
 10
1394.9125900000001
 20
227.15984957185754
 10
1395.2622544
 20
227.10964783479625
 10
1395.6305557
 20
227.06291284599638
 10
1396.0173352000002
 20
227.01959632000228
 10
1396.4225239
 20
226.97965671535562
 10
1396.8461425
 20
226.9430385325996
 10
1397.2882876
 20
226.90969993455334
 10
1397.7491317000001
 20
226.8795713440663
 10
1398.2289163
 20
226.85261065286394
 10
1398.727945
 20
226.82874803035315
 10
1399.2465697
 20
226.80792734385932
 10
1399.7852044
 20
226.79009233315895
 10
1400.3443045000001
 20
226.7751659419381
 10
1400.9243461
 20
226.763091749823
 10
1401.5258605000001
 20
226.75379251198564
 10
1402.1493859
 20
226.74720473731992
 10
1402.7954812
 20
226.7432579628824
 10
1403.4647329000002
 20
226.74186783935244
 10
1404.1577068000001
 20
226.74297071082358
 10
1404.8750032
 20
226.74648901814263
 10
1405.6171741
 20
226.75234523885575
 10
1406.384806
 20
226.76044794247045
 10
1407.1784302
 20
226.77073334383607
 10
1407.9985642000001
 20
226.78311693021615
 10
1408.8457048
 20
226.79750727173555
 10
1409.7203074000001
 20
226.81383365692048
 10
1410.6227722
 20
226.83199781725574
 10
1411.553458
 20
226.851922202896
 10
1412.5126753000002
 20
226.87352239534235
 10
1413.5006587
 20
226.89671405880574
 10
1414.5175945
 20
226.92139909193128
 10
1415.5635793000001
 20
226.94750020618287
 10
1416.6386269000002
 20
226.97491951735088
 10
1417.7426683
 20
227.00357995006158
 10
1418.8755586
 20
227.03338382966746
 10
1420.0370287
 20
227.06424748006677
 10
1421.2267267
 20
227.09607355292238
 10
1422.4441696000001
 20
227.12877872886276
 10
1423.688764
 20
227.16227298823128
 10
1424.9598061000002
 20
227.196466521754
 10
1426.2564472000001
 20
227.23126981115723
 10
1427.5777075
 20
227.26660051663413
 10
1428.9224623
 20
227.30235592012204
 10
1430.289442
 20
227.33846124261441
 10
1431.6772252
 20
227.37482137676955
 10
1433.0842249
 20
227.41135543572668
 10
1434.5086885
 20
227.44797607520874
 10
1435.9486909
 20
227.4845895312536
 10
1437.4021345
 20
227.52113014463347
 10
1438.8667216000001
 20
227.55749144617488
 10
1440.339982
 20
227.59361582438817
 10
1441.8192247000002
 20
227.62940495888455
 10
1443.3015724000002
 20
227.66478187395944
 10
1444.7839408
 20
227.69967721282845
 10
1446.263011
 20
227.73400862991392
 10
1447.7352640000001
 20
227.76770834206218
 10
1449.1969255000001
 20
227.8006956835983
 10
1450.6440211000001
 20
227.83289770617358
 10
1452.0723004000001
 20
227.86425628129757
 10
1453.4772853000002
 20
227.8947004109869
 10
1454.8542493
 20
227.92416699561753
 10
1456.1981899
 20
227.95258711669211
 10
1457.5038493000002
 20
227.9799135980952
 10
1458.7656937000002
 20
228.00607966113884
 10
1459.9542049000001
 20
228.03054096491587
 10
1460.7707923
 20
228.0472804239143
 10
1461.336199
 20
228.0588430131
  0
TEXT
  5
50
330
17
100
AcDbEntity
  8
0
100
AcDbText
 10
1461.336199
 20
248.3588430131
 30
0.0
 40
4.0
  1
Te gap = 0.3 mm
 72
1
 11
1461.336199
 21
248.3588430131
 31
0.0
100
AcDbText
  0
LWPOLYLINE
  5
51
330
17
100
AcDbEntity
  8
0
100
AcDbPolyline
 90
161
 70
0
 10
1455.25485223375
 20
182.6547394603
 10
1455.1801065149302
 20
182.65999534346167
 10
1455.0777335856533
 20
182.6671398366157
 10
1454.9385388558037
 20
182.67676396234705
 10
1454.8010081624952
 20
182.68618471821298
 10
1454.6675412215807
 20
182.69526034835528
 10
1454.5376791092983
 20
182.70404356083003
 10
1454.4109916284124
 20
182.71258127884812
 10
1454.2870794101525
 20
182.7209160311288
 10
1454.1655704109812
 20
182.72908230313502
 10
1454.0461206132384
 20
182.737113511304
 10
1453.9284126238492
 20
182.74503491712497
 10
1453.8121549736768
 20
182.75286847488775
 10
1453.6970821175212
 20
182.7606320952992
 10
1453.582953032827
 20
182.76833677661423
 10
1453.4695498183878
 20
182.7759928480535
 10
1453.3566790956415
 20
182.78360437145986
 10
1453.2441685054353
 20
182.79117253708705
 10
1453.1318674086713
 20
182.7986942570608
 10
1453.0196482876022
 20
182.8061628771186
 10
1452.9073997393605
 20
182.8135700972531
 10
1452.7950334824288
 20
182.82090261210263
 10
1452.6824780508166
 20
182.82814685334353
 10
1452.569679494708
 20
182.8352840859956
 10
1452.4566020811073
 20
182.8422939120297
 10
1452.3432261918997
 20
182.8491549093277
 10
1452.2295462219097
 20
182.85584317096976
 10
1452.1155747827822
 20
182.86233168380386
 10
1452.0013349958674
 20
182.8685936511559
 10
1451.8868653967484
 20
182.8746004867939
 10
1451.7722164320064
 20
182.8803217283935
 10
1451.657451860515
 20
182.88572715943047
 10
1451.5426438489121
 20
182.89078459475883
 10
1451.42787717548
 20
182.89546276379917
 10
1451.3132450262651
 20
182.89972841241453
 10
1451.1988503963714
 20
182.90354982888547
 10
1451.0848032873719
 20
182.90689397818252
 10
1450.9712221086036
 20
182.9097300291723
 10
1450.8582315752267
 20
182.91202650540473
 10
1450.745960606282
 20
182.91375264206437
 10
1450.6345465285751
 20
182.9148791678811
 10
1450.5241280702048
 20
182.91537746463496
 10
1450.4148481631516
 20
182.91522102421644
 10
1450.3068546439254
 20
182.9143854620149
 10
1450.2002946483885
 20
182.91284700902207
 10
1450.0953181149914
 20
182.9105846838931
 10
1449.9920756828315
 20
182.9075802554823
 10
1449.8907165897122
 20
182.90381750669664
 10
1449.7913907740838
 20
182.89928297907133
 10
1449.6942460724558
 20
182.89396732660396
 10
1449.599426818103
 20
182.88786319411284
 10
1449.5070752423592
 20
182.88096735122878
 10
1449.4173293726765
 20
182.87327995979862
 10
1449.3303230326248
 20
182.86480528155167
 10
1449.246183039305
 20
182.85555303649224
 10
1449.1650327065827
 20
182.8455342690957
 10
1449.0869862399131
 20
182.83476826243668
 10
1449.0121508382817
 20
182.82327697837366
 10
1448.940625292911
 20
182.81108784295407
 10
1448.8724992866116
 20
182.79823444232082
 10
1448.8078519924911
 20
182.78475510444156
 10
1448.746753475246
 20
182.77069433157263
 10
1448.6892604872799
 20
182.75610203375876
 10
1448.635418570646
 20
182.741035673313
 10
1448.5852606557512
 20
182.72555814435773
 10
1448.5388049594171
 20
182.70973984413718
 10
1448.496056386172
 20
182.6936572999525
 10
1448.4570037256647
 20
182.67739522731748
 10
1448.4216203533106
 20
182.66104444281393
 10
1448.3898635296446
 20
182.6447046568509
 10
1448.361671597734
 20
182.6284823259972
 10
1448.3369653844718
 20
182.61249347943013
 10
1448.3156482005768
 20
182.5968616162429
 10
1448.2976009360652
 20
182.5817176222599
 10
1448.2826862641318
 20
182.56720404158546
 10
1448.270744437269
 20
182.55346939825165
 10
1448.2615946885596
 20
182.54067312004236
 10
1448.255033129737
 20
182.52898409760581
 10
1448.2509329437007
 20
182.51889062321183
 10
1448.248933997911
 20
182.51090307416052
 10
1448.24838258875
 20
182.5047394603
 10
1448.2495176368325
 20
182.49652589746228
 10
1448.253296225912
 20
182.48773745727587
 10
1448.260345435022
 20
182.47837071839592
 10
1448.2706295311668
 20
182.4690273467601
 10
1448.2837876811602
 20
182.4600236010484
 10
1448.299658035553
 20
182.4513606354298
 10
1448.318095560424
 20
182.44303930898795
 10
1448.3389713367312
 20
182.43505879899072
 10
1448.3621704583727
 20
182.42741873991437
 10
1448.3875934334797
 20
182.4201185007998
 10
1448.415154082475
 20
182.4131551190247
 10
1448.4447802387222
 20
182.40652749256796
 10
1448.4764102452875
 20
182.40023223451652
 10
1448.5099971588247
 20
182.39426570364415
 10
1448.5455031443976
 20
182.3886254987474
 10
1448.5829015774218
 20
182.38330691871863
 10
1448.622176343017
 20
182.37830507451906
 10
1448.6633204347131
 20
182.37361561161137
 10
1448.7063359544518
 20
182.36923260589316
 10
1448.75123271129
 20
182.36515138787755
 10
1448.7980282214019
 20
182.36136433641963
 10
1448.8467470074313
 20
182.3578664933131
 10
1448.8974198978449
 20
182.3546499674924
 10
1448.9500826256376
 20
182.35170816046735
 10
1449.0047772296275
 20
182.349034337906
 10
1449.0615499525138
 20
182.34661956119754
 10
1449.1204491389376
 20
182.34445692544728
 10
1449.1815287387149
 20
182.34253729127366
 10
1449.2448434023088
 20
182.34085287130216
 10
1449.3104498821237
 20
182.33939510100328
 10
1449.3784077331516
 20
182.33815392256034
 10
1449.4487744084431
 20
182.33712137308362
 10
1449.5216108642849
 20
182.3362879784298
 10
1449.5969731524333
 20
182.33564430354122
 10
1449.674920827881
 20
182.33517939700306
 10
1449.755507840444
 20
182.3348851582783
 10
1449.8387867386443
 20
182.3347513555096
 10
1449.9248079690637
 20
182.3347670379398
 10
1450.013617774402
 20
182.3349233763502
 10
1450.105256792183
 20
182.33520878468602
 10
1450.1997614560487
 20
182.33561379871702
 10
1450.2971632951126
 20
182.33612828695058
 10
1450.3974861313714
 20
182.33674220598144
 10
1450.5007488822932
 20
182.33744414778332
 10
1450.606961356936
 20
182.33822492642483
 10
1450.7161249565927
 20
182.33907336514324
 10
1450.8282326747947
 20
182.33998050502865
 10
1450.9432697979548
 20
182.3409353925056
 10
1451.0612090008422
 20
182.34192868674708
 10
1451.1820145504614
 20
182.3429497817037
 10
1451.3056374015248
 20
182.34398971647235
 10
1451.4320172983932
 20
182.34503904220264
 10
1451.561082775077
 20
182.34608853410538
 10
1451.6927476519988
 20
182.34712927731172
 10
1451.82691243729
 20
182.3481533541717
 10
1451.9634629254954
 20
182.34915108775755
 10
1452.1022701975733
 20
182.3501159648299
 10
1452.2431899202493
 20
182.35103976603793
 10
1452.3860609447213
 20
182.35191612114417
 10
1452.5307053066606
 20
182.35273843062353
 10
1452.676927525564
 20
182.35349990584743
 10
1452.824514604754
 20
182.35419709832595
 10
1452.9732332287917
 20
182.35482298410537
 10
1453.122832566064
 20
182.3553760377036
 10
1453.2730393642544
 20
182.35585126579096
 10
1453.423561453579
 20
182.35624646357846
 10
1453.5740856448442
 20
182.35656089258637
 10
1453.7242749268605
 20
182.3567932769902
 10
1453.8737719696758
 20
182.35694455425394
 10
1454.0221935194006
 20
182.3570152376783
 10
1454.1691360033835
 20
182.3570074116774
 10
1454.314167823094
 20
182.35692564812578
 10
1454.4568342586526
 20
182.35677410861018
 10
1454.5966553668882
 20
182.35655871863403
 10
1454.7331231787516
 20
182.3562858544723
 10
1454.8657038012561
 20
182.35596510449543
 10
1454.993835315536
 20
182.35560512391217
 10
1455.1145203538772
 20
182.35522449774504
 10
1455.197439119538
 20
182.3549432346248
 10
1455.25485223375
 20
182.35473946029998
  0
TEXT
  5
52
330
17
100
AcDbEntity
  8
0
100
AcDbText
 10
1455.25485223375
 20
202.6547394603
 30
0.0
 40
4.0
  1
Te gap = 0.3 mm
 72
1
 11
1455.25485223375
 21
202.6547394603
 31
0.0
100
AcDbText
  0
ENDSEC
  0
SECTION
  2
OBJECTS
  0
DICTIONARY
  5
A
330
0
100
AcDbDictionary
281
1
  3
ACAD_COLOR
350
B
  3
ACAD_GROUP
350
C
  3
ACAD_LAYOUT
350
D
  3
ACAD_MATERIAL
350
E
  3
ACAD_MLEADERSTYLE
350
F
  3
ACAD_MLINESTYLE
350
10
  3
ACAD_PLOTSETTINGS
350
11
  3
ACAD_PLOTSTYLENAME
350
12
  3
ACAD_SCALELIST
350
14
  3
ACAD_TABLESTYLE
350
15
  3
ACAD_VISUALSTYLE
350
16
  3
EZDXF_META
350
2D
  0
DICTIONARY
  5
B
330
A
100
AcDbDictionary
281
1
  0
DICTIONARY
  5
C
330
A
100
AcDbDictionary
281
1
  0
DICTIONARY
  5
D
330
A
100
AcDbDictionary
281
1
  3
Model
350
1A
  3
Layout1
350
1E
  0
DICTIONARY
  5
E
330
A
100
AcDbDictionary
281
1
  3
ByBlock
350
1F
  3
ByLayer
350
20
  3
Global
350
21
  0
DICTIONARY
  5
F
330
A
100
AcDbDictionary
281
1
  3
Standard
350
2C
  0
DICTIONARY
  5
10
330
A
100
AcDbDictionary
281
1
  3
Standard
350
22
  0
DICTIONARY
  5
11
330
A
100
AcDbDictionary
281
1
  0
ACDBDICTIONARYWDFLT
  5
12
330
A
100
AcDbDictionary
281
1
  3
Normal
350
13
100
AcDbDictionaryWithDefault
340
13
  0
ACDBPLACEHOLDER
  5
13
330
12
  0
DICTIONARY
  5
14
330
A
100
AcDbDictionary
281
1
  0
DICTIONARY
  5
15
330
A
100
AcDbDictionary
281
1
  0
DICTIONARY
  5
16
330
A
100
AcDbDictionary
281
1
  0
LAYOUT
  5
1A
330
D
100
AcDbPlotSettings
  1

  4
A3
  6

 40
7.5
 41
20.0
 42
7.5
 43
20.0
 44
420.0
 45
297.0
 46
0.0
 47
0.0
 48
0.0
 49
0.0
140
0.0
141
0.0
142
1.0
143
1.0
 70
1024
 72
1
 73
0
 74
5
  7

 75
16
 76
0
 77
2
 78
300
147
1.0
148
0.0
149
0.0
100
AcDbLayout
  1
Model
 70
1
 71
0
 10
0.0
 20
0.0
 11
420.0
 21
297.0
 12
0.0
 22
0.0
 32
0.0
 14
1e+20
 24
1e+20
 34
1e+20
 15
-1e+20
 25
-1e+20
 35
-1e+20
146
0.0
 13
0.0
 23
0.0
 33
0.0
 16
1.0
 26
0.0
 36
0.0
 17
0.0
 27
1.0
 37
0.0
 76
1
330
17
  0
LAYOUT
  5
1E
330
D
100
AcDbPlotSettings
  1

  4
A3
  6

 40
7.5
 41
20.0
 42
7.5
 43
20.0
 44
420.0
 45
297.0
 46
0.0
 47
0.0
 48
0.0
 49
0.0
140
0.0
141
0.0
142
1.0
143
1.0
 70
0
 72
1
 73
0
 74
5
  7

 75
16
 76
0
 77
2
 78
300
147
1.0
148
0.0
149
0.0
100
AcDbLayout
  1
Layout1
 70
1
 71
1
 10
0.0
 20
0.0
 11
420.0
 21
297.0
 12
0.0
 22
0.0
 32
0.0
 14
1e+20
 24
1e+20
 34
1e+20
 15
-1e+20
 25
-1e+20
 35
-1e+20
146
0.0
 13
0.0
 23
0.0
 33
0.0
 16
1.0
 26
0.0
 36
0.0
 17
0.0
 27
1.0
 37
0.0
 76
1
330
1B
  0
MATERIAL
  5
1F
102
{ACAD_REACTORS
330
E
102
}
330
E
100
AcDbMaterial
  1
ByBlock
  2

 70
0
 40
1.0
 71
1
 41
1.0
 91
-1023410177
 42
1.0
 72
1
  3

 73
1
 74
1
 75
1
 44
0.5
 73
0
 45
1.0
 46
1.0
 77
1
  4

 78
1
 79
1
170
1
 48
1.0
171
1
  6

172
1
173
1
174
1
140
1.0
141
1.0
175
1
  7

176
1
177
1
178
1
143
1.0
179
1
  8

270
1
271
1
272
1
145
1.0
146
1.0
273
1
  9

274
1
275
1
276
1
 42
1.0
 72
1
  3

 73
1
 74
1
 75
1
 94
63
  0
MATERIAL
  5
20
102
{ACAD_REACTORS
330
E
102
}
330
E
100
AcDbMaterial
  1
ByLayer
  2

 70
0
 40
1.0
 71
1
 41
1.0
 91
-1023410177
 42
1.0
 72
1
  3

 73
1
 74
1
 75
1
 44
0.5
 73
0
 45
1.0
 46
1.0
 77
1
  4

 78
1
 79
1
170
1
 48
1.0
171
1
  6

172
1
173
1
174
1
140
1.0
141
1.0
175
1
  7

176
1
177
1
178
1
143
1.0
179
1
  8

270
1
271
1
272
1
145
1.0
146
1.0
273
1
  9

274
1
275
1
276
1
 42
1.0
 72
1
  3

 73
1
 74
1
 75
1
 94
63
  0
MATERIAL
  5
21
102
{ACAD_REACTORS
330
E
102
}
330
E
100
AcDbMaterial
  1
Global
  2

 70
0
 40
1.0
 71
1
 41
1.0
 91
-1023410177
 42
1.0
 72
1
  3

 73
1
 74
1
 75
1
 44
0.5
 73
0
 45
1.0
 46
1.0
 77
1
  4

 78
1
 79
1
170
1
 48
1.0
171
1
  6

172
1
173
1
174
1
140
1.0
141
1.0
175
1
  7

176
1
177
1
178
1
143
1.0
179
1
  8

270
1
271
1
272
1
145
1.0
146
1.0
273
1
  9

274
1
275
1
276
1
 42
1.0
 72
1
  3

 73
1
 74
1
 75
1
 94
63
  0
MLINESTYLE
  5
22
102
{ACAD_REACTORS
330
10
102
}
330
10
100
AcDbMlineStyle
  2
Standard
 70
0
  3

 62
256
 51
90.0
 52
90.0
 71
2
 49
0.5
 62
256
  6
BYLAYER
 49
-0.5
 62
256
  6
BYLAYER
  0
MLEADERSTYLE
  5
2C
102
{ACAD_REACTORS
330
F
102
}
330
F
100
AcDbMLeaderStyle
179
2
170
2
171
1
172
0
 90
2
 40
0.0
 41
0.0
173
1
 91
-1056964608
 92
-2
290
1
 42
2.0
291
1
 43
8.0
  3
Standard
 44
4.0
300

342
29
174
1
175
1
176
0
178
1
 93
-1056964608
 45
4.0
292
0
297
0
 46
4.0
 94
-1056964608
 47
1.0
 49
1.0
140
1.0
294
1
141
0.0
177
0
142
1.0
295
0
296
0
143
3.75
271
0
272
9
273
9
  0
DICTIONARY
  5
2D
330
A
100
AcDbDictionary
280
1
281
1
  3
CREATED_BY_EZDXF
350
2E
  3
WRITTEN_BY_EZDXF
350
55
  0
DICTIONARYVAR
  5
2E
330
2D
100
DictionaryVariables
280
0
  1
1.4.2 @ 2025-11-12T14:22:26.906160+00:00
  0
DICTIONARYVAR
  5
55
330
2D
100
DictionaryVariables
280
0
  1
1.4.2 @ 2025-11-12T14:22:26.935277+00:00
  0
ENDSEC
  0
EOF
