0
SECTION
2
HEADER
0
ENDSEC
0
SECTION
2
TABLES
0
TABLE
2
LTYPE
0
LTYPE
2
Continuous
70
0
3
Solid line
72
65
73
0
40
0.000000
0
ENDTAB
0
TABLE
2
LAYER
0
LAYER
2
0
70
0
62
7
6
Continuous
0
LAYER
2
Dimensions
70
0
62
7
6
Continuous
0
LAYER
2
Comments
70
0
62
214
6
Continuous
0
LAYER
2
Airfoils
70
0
62
8
6
Continuous
0
LAYER
2
Region
70
0
62
7
6
Continuous
0
LAYER
2
FromDevCad_Unnamed_5
70
0
62
1
6
Continuous
0
LAYER
2
Title_Text
70
0
62
7
6
Continuous
0
ENDTAB
0
TABLE
2
STYLE
0
STYLE
2
Standard
3
Arial
70
0
71
0
40
5.000000
41
1.000000
42
5.000000
50
0.000000
0
STYLE
2
Standard_XL
3
Arial
70
0
71
0
40
10.000000
41
1.000000
42
10.000000
50
0.000000
0
STYLE
2
Standard_S
3
Arial
70
0
71
0
40
3.000000
41
1.000000
42
3.000000
50
0.000000
0
STYLE
2
Title
3
Arial
70
0
71
0
40
20.000000
41
1.000000
42
20.000000
50
0.000000
0
STYLE
2
Head1
3
Arial
70
0
71
0
40
8.000000
41
1.000000
42
8.000000
50
0.000000
0
ENDTAB
0
TABLE
2
DIMSTYLE
0
DIMSTYLE
2
Standard
70
0
3

4

5

6
CLOSEDFILLED
7
CLOSEDFILLED
40
1.000000
41
2.000000
42
1.000000
43
5.000000
44
2.000000
45
0.000000
46
0.000000
47
0.000000
48
0.000000
140
5.000000
141
2.000000
142
0.000000
143
25.400000
144
1.000000
145
0.000000
146
1.000000
147
2.000000
71
0
72
0
73
0
74
1
75
0
76
0
77
0
78
0
170
0
171
4
172
0
173
1
174
0
175
0
176
0
177
-2
178
-2
271
4
272
4
273
1
274
4
275
0
280
0
281
0
282
0
283
1
288
0
0
DIMSTYLE
2
Jo_Gross
70
0
3

4

5

6
CLOSEDFILLED
7
CLOSEDFILLED
40
1.000000
41
5.000000
42
1.000000
43
5.000000
44
2.000000
45
0.000000
46
0.000000
47
0.000000
48
0.000000
140
10.000000
141
2.000000
142
0.000000
143
25.400000
144
1.000000
145
0.000000
146
1.000000
147
2.000000
71
0
72
0
73
0
74
1
75
0
76
0
77
0
78
0
170
0
171
4
172
0
173
1
174
0
175
0
176
0
177
-2
178
-2
271
1
272
4
273
1
274
4
275
0
280
0
281
0
282
0
283
1
288
0
0
DIMSTYLE
2
jo_Prozent
70
0
3
%
4

5

6
CLOSEDFILLED
7
CLOSEDFILLED
40
1.000000
41
2.000000
42
1.000000
43
5.000000
44
2.000000
45
0.000000
46
0.000000
47
0.000000
48
0.000000
140
4.000000
141
2.000000
142
0.000000
143
25.400000
144
1.000000
145
0.000000
146
1.000000
147
2.000000
71
0
72
0
73
0
74
1
75
0
76
0
77
0
78
0
170
0
171
4
172
0
173
1
174
0
175
0
176
0
177
-2
178
-2
271
0
272
4
273
1
274
4
275
0
280
0
281
0
282
0
283
1
288
0
0
DIMSTYLE
2
Jo_Std
70
0
3

4

5

6
CLOSEDFILLED
7
CLOSEDFILLED
40
1.000000
41
2.000000
42
1.000000
43
5.000000
44
2.000000
45
0.000000
46
0.000000
47
0.000000
48
0.000000
140
5.000000
141
2.000000
142
0.000000
143
25.400000
144
1.000000
145
0.000000
146
1.000000
147
2.000000
71
0
72
0
73
0
74
1
75
0
76
0
77
0
78
0
170
0
171
4
172
0
173
1
174
0
175
0
176
0
177
-2
178
-2
271
1
272
4
273
1
274
4
275
0
280
0
281
0
282
0
283
1
288
0
0
ENDTAB
0
ENDSEC
0
SECTION
2
BLOCKS
0
BLOCK
8
0
2
_CLOSEDFILLED
70
0
10
0.000000
20
0.000000
3
_CLOSEDFILLED
0
SOLID
8
0
10
-1.000000
20
0.166667
30
0.000000
11
-1.000000
21
-0.166667
31
0.000000
12
0.000000
22
0.000000
32
0.000000
13
0.000000
23
0.000000
33
0.000000
0
ENDBLK
0
BLOCK
8
0
2
_CLOSEDBLANK
70
0
10
0.000000
20
0.000000
3
_CLOSEDBLANK
0
LINE
8
0
10
-1.000000
20
0.166667
30
0.000000
11
0.000000
21
0.000000
31
0.000000
0
LINE
8
0
10
0.000000
20
0.000000
30
0.000000
11
-1.000000
21
-0.166667
31
0.000000
0
LINE
8
0
10
-1.000000
20
0.166667
30
0.000000
11
-1.000000
21
-0.166667
31
0.000000
0
ENDBLK
0
BLOCK
8
0
2
_CLOSED
70
0
10
0.000000
20
0.000000
3
_CLOSED
0
LINE
8
0
10
-1.000000
20
0.166667
30
0.000000
11
0.000000
21
0.000000
31
0.000000
0
LINE
8
0
10
0.000000
20
0.000000
30
0.000000
11
-1.000000
21
-0.166667
31
0.000000
0
LINE
8
0
10
-1.000000
20
0.166667
30
0.000000
11
-1.000000
21
-0.166667
31
0.000000
0
LINE
8
0
10
0.000000
20
0.000000
30
0.000000
11
-1.000000
21
0.000000
31
0.000000
0
ENDBLK
0
BLOCK
8
0
2
_DOT
70
0
10
0.000000
20
0.000000
3
_DOT
0
POLYLINE
8
0
70
1
66
 1
10
0.0
20
0.0
30
0.000000
0
VERTEX
8
0
10
0.250000
20
0.000000
30
0.000000
42
1.000000
0
VERTEX
8
0
10
-0.250000
20
0.000000
30
0.000000
42
1.000000
0
SEQEND
8
0
0
LINE
8
0
10
-0.500000
20
0.000000
30
0.000000
11
-1.000000
21
0.000000
31
0.000000
0
ENDBLK
0
BLOCK
8
0
2
_ARCHTICK
70
0
10
0.000000
20
0.000000
3
_ARCHTICK
0
POLYLINE
8
0
70
0
66
 1
10
0.0
20
0.0
30
0.000000
0
VERTEX
8
0
10
0.500000
20
0.500000
30
0.000000
0
VERTEX
8
0
10
-0.500000
20
-0.500000
30
0.000000
0
SEQEND
8
0
0
ENDBLK
0
BLOCK
8
0
2
_OBLIQUE
70
0
10
0.000000
20
0.000000
3
_OBLIQUE
0
LINE
8
0
10
-0.500000
20
-0.500000
30
0.000000
11
0.500000
21
0.500000
31
0.000000
0
ENDBLK
0
BLOCK
8
0
2
_OPEN
70
0
10
0.000000
20
0.000000
3
_OPEN
0
LINE
8
0
10
-1.000000
20
0.166667
30
0.000000
11
0.000000
21
0.000000
31
0.000000
0
LINE
8
0
10
-1.000000
20
-0.166667
30
0.000000
11
0.000000
21
0.000000
31
0.000000
0
LINE
8
0
10
0.000000
20
0.000000
30
0.000000
11
-1.000000
21
0.000000
31
0.000000
0
ENDBLK
0
BLOCK
8
0
2
_ORIGIN
70
0
10
0.000000
20
0.000000
3
_ORIGIN
0
CIRCLE
8
0
10
0.000000
20
0.000000
40
0.500000
0
LINE
8
0
10
0.000000
20
0.000000
30
0.000000
11
-1.000000
21
0.000000
31
0.000000
0
ENDBLK
0
BLOCK
8
0
2
_ORIGIN2
70
0
10
0.000000
20
0.000000
3
_ORIGIN2
0
CIRCLE
8
0
10
0.000000
20
0.000000
40
0.500000
0
CIRCLE
8
0
10
0.000000
20
0.000000
40
0.250000
0
LINE
8
0
10
-0.500000
20
0.000000
30
0.000000
11
-1.000000
21
0.000000
31
0.000000
0
ENDBLK
0
BLOCK
8
0
2
_OPEN90
70
0
10
0.000000
20
0.000000
3
_OPEN90
0
LINE
8
0
10
-0.500000
20
0.500000
30
0.000000
11
0.000000
21
0.000000
31
0.000000
0
LINE
8
0
10
0.000000
20
0.000000
30
0.000000
11
-0.500000
21
-0.500000
31
0.000000
0
LINE
8
0
10
0.000000
20
0.000000
30
0.000000
11
-1.000000
21
0.000000
31
0.000000
0
ENDBLK
0
BLOCK
8
0
2
_OPEN30
70
0
10
0.000000
20
0.000000
3
_OPEN30
0
LINE
8
0
10
-1.000000
20
0.267949
30
0.000000
11
0.000000
21
0.000000
31
0.000000
0
LINE
8
0
10
0.000000
20
0.000000
30
0.000000
11
-1.000000
21
-0.267949
31
0.000000
0
LINE
8
0
10
0.000000
20
0.000000
30
0.000000
11
-1.000000
21
0.000000
31
0.000000
0
ENDBLK
0
BLOCK
8
0
2
_DOTSMALL
70
0
10
0.000000
20
0.000000
3
_DOTSMALL
0
POLYLINE
8
0
70
1
66
 1
10
0.0
20
0.0
30
0.000000
0
VERTEX
8
0
10
0.062500
20
0.000000
30
0.000000
42
1.000000
0
VERTEX
8
0
10
-0.062500
20
0.000000
30
0.000000
42
1.000000
0
SEQEND
8
0
0
ENDBLK
0
BLOCK
8
0
2
_DOTBLANK
70
0
10
0.000000
20
0.000000
3
_DOTBLANK
0
CIRCLE
8
0
10
0.000000
20
0.000000
40
0.500000
0
LINE
8
0
10
-0.500000
20
0.000000
30
0.000000
11
-1.000000
21
0.000000
31
0.000000
0
ENDBLK
0
BLOCK
8
0
2
_SMALL
70
0
10
0.000000
20
0.000000
3
_SMALL
0
CIRCLE
8
0
10
0.000000
20
0.000000
40
0.250000
0
ENDBLK
0
BLOCK
8
0
2
_BOXBLANK
70
0
10
0.000000
20
0.000000
3
_BOXBLANK
0
LINE
8
0
10
-0.500000
20
-0.500000
30
0.000000
11
0.500000
21
-0.500000
31
0.000000
0
LINE
8
0
10
0.500000
20
-0.500000
30
0.000000
11
0.500000
21
0.500000
31
0.000000
0
LINE
8
0
10
0.500000
20
0.500000
30
0.000000
11
-0.500000
21
0.500000
31
0.000000
0
LINE
8
0
10
-0.500000
20
0.500000
30
0.000000
11
-0.500000
21
-0.500000
31
0.000000
0
LINE
8
0
10
-0.500000
20
0.000000
30
0.000000
11
-1.000000
21
0.000000
31
0.000000
0
ENDBLK
0
BLOCK
8
0
2
_BOXFILLED
70
0
10
0.000000
20
0.000000
3
_BOXFILLED
0
SOLID
8
0
10
-0.500000
20
0.500000
30
0.000000
11
0.500000
21
0.500000
31
0.000000
12
-0.500000
22
-0.500000
32
0.000000
13
0.500000
23
-0.500000
33
0.000000
0
LINE
8
0
10
-0.500000
20
0.000000
30
0.000000
11
-1.000000
21
0.000000
31
0.000000
0
ENDBLK
0
BLOCK
8
0
2
_DATUMBLANK
70
0
10
0.000000
20
0.000000
3
_DATUMBLANK
0
LINE
8
0
10
0.000000
20
0.577350
30
0.000000
11
-1.000000
21
0.000000
31
0.000000
0
LINE
8
0
10
-1.000000
20
0.000000
30
0.000000
11
0.000000
21
-0.577350
31
0.000000
0
LINE
8
0
10
0.000000
20
-0.577350
30
0.000000
11
0.000000
21
0.577350
31
0.000000
0
ENDBLK
0
BLOCK
8
0
2
_DATUMFILLED
70
0
10
0.000000
20
0.000000
3
_DATUMFILLED
0
SOLID
8
0
10
0.000000
20
0.577350
30
0.000000
11
-1.000000
21
0.000000
31
0.000000
12
0.000000
22
-0.577350
32
0.000000
13
0.000000
23
-0.577350
33
0.000000
0
ENDBLK
0
BLOCK
8
0
2
_INTEGRAL
70
0
10
0.000000
20
0.000000
3
_INTEGRAL
0
ARC
8
0
10
0.444888
20
-0.091335
40
0.454167
50
102.000000
51
168.000000
0
ARC
8
0
10
-0.444888
20
0.091335
40
0.454167
50
282.000000
51
348.000000
0
ENDBLK
0
BLOCK
8
0
2
_NONE
70
0
10
0.000000
20
0.000000
3
_NONE
0
ENDBLK
0
BLOCK
8
Dimensions
2
*B
70
1
10
-44.651598
20
-301.978885
3
*B
0
LINE
8
Dimensions
62
7
6
Continuous
10
-44.651598
20
-294.218885
30
0.000000
11
-44.651598
21
-241.818884
31
0.000000
0
LINE
8
Dimensions
62
7
6
Continuous
10
-44.651598
20
-309.418885
30
0.000000
11
-44.651598
21
-361.818884
31
0.000000
0
LINE
8
Dimensions
6
Continuous
10
-1.000000
20
-241.818885
30
0.000000
11
-46.651596
21
-241.818885
31
0.000000
0
LINE
8
Dimensions
6
Continuous
10
-1.000000
20
-361.818885
30
0.000000
11
-46.651596
21
-361.818885
31
0.000000
0
INSERT
8
Dimensions
6
Continuous
2
*B1
10
0.000000
20
0.000000
41
1.000000
42
1.000000
50
0.000000
0
INSERT
8
Dimensions
6
Continuous
2
_CLOSEDFILLED
10
-44.651598
20
-241.818885
41
5.000000
42
5.000000
50
90.000000
0
INSERT
8
Dimensions
6
Continuous
2
_CLOSEDFILLED
10
-44.651598
20
-361.818885
41
5.000000
42
5.000000
50
-90.000000
0
POINT
8
Dimensions
6
Continuous
10
0.000000
20
-241.818885
0
POINT
8
Dimensions
6
Continuous
10
0.000000
20
-361.818885
0
ENDBLK
0
BLOCK
8
Dimensions
2
*B1
70
1
10
0.000000
20
0.000000
3
*B1
0
TEXT
8
Dimensions
6
Continuous
7
Standard
10
-44.651598
20
-301.818885
72
4
73
0
11
-44.651598
21
-301.818885
40
6.666667
41
1.000000
50
0.000000
1
120.0
0
ENDBLK
0
BLOCK
8
Dimensions
2
*D1
70
1
10
0.000000
20
0.000000
3
*D1
0
ENDBLK
0
BLOCK
8
Dimensions
2
*B2
70
1
10
186.000000
20
-388.815057
3
*B2
0
LINE
8
Dimensions
62
7
6
Continuous
10
171.400000
20
-388.655057
30
0.000000
11
0.000006
21
-388.655057
31
0.000000
0
LINE
8
Dimensions
62
7
6
Continuous
10
200.600001
20
-388.655057
30
0.000000
11
372.000006
21
-388.655057
31
0.000000
0
LINE
8
Dimensions
6
Continuous
10
0.000000
20
-362.818885
30
0.000000
11
0.000000
21
-390.655057
31
0.000000
0
LINE
8
Dimensions
6
Continuous
10
372.000000
20
-362.818885
30
0.000000
11
372.000000
21
-390.655057
31
0.000000
0
INSERT
8
Dimensions
6
Continuous
2
*B3
10
0.000000
20
0.000000
41
1.000000
42
1.000000
50
0.000000
0
INSERT
8
Dimensions
6
Continuous
2
_CLOSEDFILLED
10
0.000000
20
-388.655057
41
5.000000
42
5.000000
50
180.000000
0
INSERT
8
Dimensions
6
Continuous
2
_CLOSEDFILLED
10
372.000000
20
-388.655057
41
5.000000
42
5.000000
50
0.000000
0
POINT
8
Dimensions
6
Continuous
10
0.000000
20
-361.818885
0
POINT
8
Dimensions
6
Continuous
10
372.000000
20
-361.818885
0
ENDBLK
0
BLOCK
8
Dimensions
2
*B3
70
1
10
0.000000
20
0.000000
3
*B3
0
TEXT
8
Dimensions
6
Continuous
7
Standard
10
186.000000
20
-388.655057
72
4
73
0
11
186.000000
21
-388.655057
40
6.666667
41
1.000000
50
0.000000
1
372.0
0
ENDBLK
0
BLOCK
8
Dimensions
2
*D2
70
1
10
0.000000
20
0.000000
3
*D2
0
ENDBLK
0
BLOCK
8
Dimensions
2
*B4
70
1
10
-21.038271
20
-343.978885
3
*B4
0
LINE
8
Dimensions
62
7
6
Continuous
10
-21.038271
20
-336.218885
30
0.000000
11
-21.038271
21
-325.818886
31
0.000000
0
LINE
8
Dimensions
62
7
6
Continuous
10
-21.038271
20
-351.418885
30
0.000000
11
-21.038271
21
-361.818886
31
0.000000
0
LINE
8
Dimensions
6
Continuous
10
-1.000000
20
-325.818885
30
0.000000
11
-23.038271
21
-325.818885
31
0.000000
0
LINE
8
Dimensions
6
Continuous
10
-1.000000
20
-361.818885
30
0.000000
11
-23.038271
21
-361.818885
31
0.000000
0
INSERT
8
Dimensions
6
Continuous
2
*B5
10
0.000000
20
0.000000
41
1.000000
42
1.000000
50
0.000000
0
INSERT
8
Dimensions
6
Continuous
2
_CLOSEDFILLED
10
-21.038271
20
-325.818885
41
5.000000
42
5.000000
50
90.000000
0
INSERT
8
Dimensions
6
Continuous
2
_CLOSEDFILLED
10
-21.038271
20
-361.818885
41
5.000000
42
5.000000
50
-90.000000
0
POINT
8
Dimensions
6
Continuous
10
0.000000
20
-325.818885
0
POINT
8
Dimensions
6
Continuous
10
0.000000
20
-361.818885
0
ENDBLK
0
BLOCK
8
Dimensions
2
*B5
70
1
10
0.000000
20
0.000000
3
*B5
0
TEXT
8
Dimensions
6
Continuous
7
Standard
10
-21.038271
20
-343.818885
72
4
73
0
11
-21.038271
21
-343.818885
40
6.666667
41
1.000000
50
0.000000
1
36.0
0
ENDBLK
0
BLOCK
8
Dimensions
2
*D3
70
1
10
0.000000
20
0.000000
3
*D3
0
ENDBLK
0
BLOCK
8
Region
2
*R
70
1
10
186.000000
20
-301.818854
3
*R
0
POLYLINE
8
Region
62
8
6
Continuous
70
0
66
 1
10
0.0
20
0.0
30
0.000000
0
VERTEX
8
Region
10
372.000000
20
-321.273822
30
0.000000
42
0.114811
0
VERTEX
8
Region
10
366.974381
20
-305.555654
30
0.000000
42
0.068342
0
VERTEX
8
Region
10
358.688892
20
-295.234527
30
0.000000
42
0.051717
0
VERTEX
8
Region
10
346.274801
20
-285.687094
30
0.000000
42
0.033768
0
VERTEX
8
Region
10
331.619137
20
-277.886899
30
0.000000
42
0.028970
0
VERTEX
8
Region
10
309.748403
20
-269.559675
30
0.000000
42
0.023596
0
VERTEX
8
Region
10
278.403799
20
-261.270082
30
0.000000
42
0.019683
0
VERTEX
8
Region
10
232.207201
20
-253.270278
30
0.000000
42
0.013948
0
VERTEX
8
Region
10
176.394094
20
-247.394880
30
0.000000
42
0.008977
0
VERTEX
8
Region
10
120.842285
20
-244.057515
30
0.000000
42
0.008708
0
VERTEX
8
Region
10
33.794543
20
-241.953516
30
0.000000
42
0.002079
0
VERTEX
8
Region
10
0.000000
20
-241.818885
30
0.000000
0
VERTEX
8
Region
10
0.000000
20
-325.818885
30
0.000000
0
VERTEX
8
Region
10
0.000000
20
-361.818885
30
0.000000
42
0.014795
0
VERTEX
8
Region
10
178.959241
20
-356.470077
30
0.000000
42
0.010407
0
VERTEX
8
Region
10
264.614092
20
-349.670564
30
0.000000
42
0.012732
0
VERTEX
8
Region
10
316.179360
20
-343.219035
30
0.000000
42
0.016988
0
VERTEX
8
Region
10
343.952915
20
-338.086225
30
0.000000
42
0.025222
0
VERTEX
8
Region
10
359.069300
20
-333.989881
30
0.000000
42
0.037082
0
VERTEX
8
Region
10
366.611306
20
-330.897963
30
0.000000
42
0.057840
0
VERTEX
8
Region
10
370.138590
20
-328.575041
30
0.000000
42
0.106144
0
VERTEX
8
Region
10
371.734824
20
-326.517604
30
0.000000
42
0.100275
0
VERTEX
8
Region
10
372.000000
20
-325.273822
30
0.000000
0
VERTEX
8
Region
10
372.000000
20
-321.273822
30
0.000000
0
SEQEND
8
0
0
ENDBLK
0
BLOCK
8
Dimensions
2
*B6
70
1
10
85.953624
20
-343.454490
3
*B6
0
ARC
8
Dimensions
62
7
6
Continuous
10
-2946.493480
20
-361.818885
40
3032.503662
50
-0.188939
51
0.000000
0
ARC
8
Dimensions
62
7
6
Continuous
10
-2946.493480
20
-361.818885
40
3032.503662
50
0.700000
51
0.888939
0
INSERT
8
Dimensions
6
Continuous
2
*B7
10
0.000000
20
0.000000
41
1.000000
42
1.000000
50
0.000000
0
INSERT
8
Dimensions
6
Continuous
2
_CLOSEDFILLED
10
86.010204
20
-361.818885
41
5.000000
42
5.000000
50
89.952765
0
INSERT
8
Dimensions
6
Continuous
2
_CLOSEDFILLED
10
85.783887
20
-324.770785
41
5.000000
42
5.000000
50
-89.252765
0
POINT
8
Dimensions
6
Continuous
10
86.010204
20
-361.818885
0
POINT
8
Dimensions
6
Continuous
10
85.783887
20
-324.770785
0
POINT
8
Dimensions
6
Continuous
10
-2946.493480
20
-361.818885
0
ENDBLK
0
BLOCK
8
Dimensions
2
*B7
70
1
10
0.000000
20
0.000000
3
*B7
0
TEXT
8
Dimensions
6
Continuous
7
Standard
10
85.953624
20
-343.294490
72
4
73
0
11
85.953624
21
-343.294490
40
6.666667
41
1.000000
50
0.000000
1
0.70°
0
ENDBLK
0
BLOCK
8
Dimensions
2
*D4
70
1
10
0.000000
20
0.000000
3
*D4
0
ENDBLK
0
BLOCK
8
Comments
2
*B8
70
1
10
20.426744
20
-263.177407
3
*B8
0
ARC
8
Comments
62
214
6
Continuous
10
-0.057600
20
-242.613063
40
28.969236
50
-90.000003
51
-60.785644
0
ARC
8
Comments
62
214
6
Continuous
10
-0.057600
20
-242.613063
40
28.969236
50
-32.779932
51
0.000000
0
INSERT
8
Comments
62
214
6
Continuous
2
*B9
10
0.000000
20
0.000000
41
1.000000
42
1.000000
50
0.000000
0
INSERT
8
Comments
62
214
6
Continuous
2
_CLOSEDFILLED
10
-0.057600
20
-271.582300
41
2.000000
42
2.000000
50
-178.022185
0
INSERT
8
Comments
62
214
6
Continuous
2
_CLOSEDFILLED
10
28.911637
20
-242.613063
41
2.000000
42
2.000000
50
88.022185
0
POINT
8
Comments
62
214
6
Continuous
10
-0.057600
20
-271.582300
0
POINT
8
Comments
62
214
6
Continuous
10
28.911637
20
-242.613063
0
POINT
8
Comments
62
214
6
Continuous
10
-0.057600
20
-242.613063
0
ENDBLK
0
BLOCK
8
Comments
2
*B9
70
1
10
0.000000
20
0.000000
3
*B9
0
TEXT
8
Comments
62
214
6
Continuous
7
Standard
10
20.426744
20
-263.097407
72
4
73
0
11
20.426744
21
-263.097407
40
3.333333
41
1.000000
50
0.000000
1
90.00°
0
ENDBLK
0
BLOCK
8
Comments
2
*D5
70
1
10
0.000000
20
0.000000
3
*D5
0
ENDBLK
0
BLOCK
8
Comments
2
*B10
70
1
10
23.437321
20
-338.461564
3
*B10
0
ARC
8
Comments
62
214
6
Continuous
10
0.000000
20
-361.818885
40
33.145378
50
0.000000
51
34.214330
0
ARC
8
Comments
62
214
6
Continuous
10
0.000000
20
-361.818885
40
33.145378
50
58.421487
51
90.000003
0
LINE
8
Comments
62
214
6
Continuous
10
0.000000
20
-240.818885
30
58.421487
11
0.000000
21
-330.673507
31
0.000000
0
INSERT
8
Comments
62
214
6
Continuous
2
*B11
10
0.000000
20
0.000000
41
1.000000
42
1.000000
50
0.000000
0
INSERT
8
Comments
62
214
6
Continuous
2
_CLOSEDFILLED
10
33.145377
20
-361.818885
41
2.000000
42
2.000000
50
-88.271379
0
INSERT
8
Comments
62
214
6
Continuous
2
_CLOSEDFILLED
10
0.000000
20
-328.673508
41
2.000000
42
2.000000
50
178.271379
0
POINT
8
Comments
62
214
6
Continuous
10
33.145377
20
-361.818885
0
POINT
8
Comments
62
214
6
Continuous
10
0.000000
20
-241.818885
0
POINT
8
Comments
62
214
6
Continuous
10
0.000000
20
-361.818885
0
ENDBLK
0
BLOCK
8
Comments
2
*B11
70
1
10
0.000000
20
0.000000
3
*B11
0
TEXT
8
Comments
62
214
6
Continuous
7
Standard
10
23.437321
20
-338.381564
72
4
73
0
11
23.437321
21
-338.381564
40
3.333333
41
1.000000
50
0.000000
1
90.00°
0
ENDBLK
0
BLOCK
8
Comments
2
*D6
70
1
10
0.000000
20
0.000000
3
*D6
0
ENDBLK
0
ENDSEC
0
SECTION
2
ENTITIES
0
DIMENSION
8
Dimensions
6
Continuous
3
Jo_Gross
2
*B
10
-44.651598
20
-361.818885
30
0.000000
11
-44.651598
21
-301.818885
31
0.000000
70
0
13
0.000000
23
-241.818885
33
0.000000
14
0.000000
24
-361.818885
34
0.000000
50
90.000000
1001
ACAD
1000
DTSYLE
1002
{
1070
5
1000
CLOSEDFILLED
1070
6
1000
CLOSEDFILLED
1070
7
1000
CLOSEDFILLED
1070
176
1070
-2.000000
1070
371
1070
0.000000
1070
372
1070
0.000000
1002
}
0
DIMENSION
8
Dimensions
6
Continuous
3
Jo_Gross
2
*B2
10
372.000000
20
-388.655057
30
0.000000
11
186.000000
21
-388.655057
31
0.000000
70
0
13
0.000000
23
-361.818885
33
0.000000
14
372.000000
24
-361.818885
34
0.000000
50
0.000000
1001
ACAD
1000
DTSYLE
1002
{
1070
5
1000
CLOSEDFILLED
1070
6
1000
CLOSEDFILLED
1070
7
1000
CLOSEDFILLED
1070
176
1070
-2.000000
1070
371
1070
0.000000
1070
372
1070
0.000000
1002
}
0
DIMENSION
8
Dimensions
6
Continuous
3
Jo_Gross
2
*B4
10
-21.038271
20
-361.818885
30
0.000000
11
-21.038271
21
-343.818885
31
0.000000
70
0
13
0.000000
23
-325.818885
33
0.000000
14
0.000000
24
-361.818885
34
0.000000
50
90.000000
1001
ACAD
1000
DTSYLE
1002
{
1070
5
1000
CLOSEDFILLED
1070
6
1000
CLOSEDFILLED
1070
7
1000
CLOSEDFILLED
1070
176
1070
-2.000000
1070
371
1070
0.000000
1070
372
1070
0.000000
1002
}
0
TEXT
8
Dimensions
6
Continuous
7
Standard
10
-18.398461
20
-354.330761
72
76
73
208
11
-18.398461
21
-354.330761
40
3.333333
41
1.000000
50
0.000000
1
30,0%
0
LINE
8
0
62
1
6
Continuous
10
-0.000000
20
-325.818885
30
0.000000
11
372.000000
21
-321.273822
31
0.000000
0
POLYLINE
8
0
6
Continuous
70
0
66
 1
10
0.0
20
0.0
30
0.000000
0
VERTEX
8
0
10
0.000000
20
-361.818885
30
0.000000
0
VERTEX
8
0
10
16.836278
20
-361.768925
30
0.000000
0
VERTEX
8
0
10
33.714104
20
-361.620887
30
0.000000
0
VERTEX
8
0
10
50.595701
20
-361.377533
30
0.000000
0
VERTEX
8
0
10
67.443294
20
-361.041624
30
0.000000
0
VERTEX
8
0
10
84.219107
20
-360.615924
30
0.000000
0
VERTEX
8
0
10
92.568291
20
-360.370265
30
0.000000
0
VERTEX
8
0
10
100.885364
20
-360.103194
30
0.000000
0
VERTEX
8
0
10
109.165604
20
-359.815057
30
0.000000
0
VERTEX
8
0
10
117.404289
20
-359.506197
30
0.000000
0
VERTEX
8
0
10
123.808802
20
-359.250706
30
0.000000
0
VERTEX
8
0
10
130.182817
20
-358.982942
30
0.000000
0
VERTEX
8
0
10
136.524085
20
-358.703071
30
0.000000
0
VERTEX
8
0
10
142.830352
20
-358.411257
30
0.000000
0
VERTEX
8
0
10
149.099368
20
-358.107664
30
0.000000
0
VERTEX
8
0
10
155.328880
20
-357.792459
30
0.000000
0
VERTEX
8
0
10
161.516637
20
-357.465804
30
0.000000
0
VERTEX
8
0
10
167.660388
20
-357.127866
30
0.000000
0
VERTEX
8
0
10
173.757880
20
-356.778807
30
0.000000
0
VERTEX
8
0
10
178.959241
20
-356.470077
30
0.000000
0
VERTEX
8
0
10
184.123346
20
-356.153360
30
0.000000
0
VERTEX
8
0
10
189.248767
20
-355.828762
30
0.000000
0
VERTEX
8
0
10
194.334076
20
-355.496387
30
0.000000
0
VERTEX
8
0
10
199.377843
20
-355.156340
30
0.000000
0
VERTEX
8
0
10
204.378639
20
-354.808724
30
0.000000
0
VERTEX
8
0
10
209.335035
20
-354.453645
30
0.000000
0
VERTEX
8
0
10
214.245602
20
-354.091206
30
0.000000
0
VERTEX
8
0
10
219.108911
20
-353.721514
30
0.000000
0
VERTEX
8
0
10
223.249472
20
-353.398092
30
0.000000
0
VERTEX
8
0
10
227.353170
20
-353.069457
30
0.000000
0
VERTEX
8
0
10
231.419097
20
-352.735674
30
0.000000
0
VERTEX
8
0
10
235.446347
20
-352.396809
30
0.000000
0
VERTEX
8
0
10
239.434012
20
-352.052929
30
0.000000
0
VERTEX
8
0
10
243.381186
20
-351.704100
30
0.000000
0
VERTEX
8
0
10
247.286961
20
-351.350388
30
0.000000
0
VERTEX
8
0
10
251.150431
20
-350.991860
30
0.000000
0
VERTEX
8
0
10
254.970688
20
-350.628582
30
0.000000
0
VERTEX
8
0
10
258.218507
20
-350.312646
30
0.000000
0
VERTEX
8
0
10
261.433167
20
-349.993292
30
0.000000
0
VERTEX
8
0
10
264.614092
20
-349.670564
30
0.000000
0
VERTEX
8
0
10
267.760707
20
-349.344504
30
0.000000
0
VERTEX
8
0
10
270.872437
20
-349.015152
30
0.000000
0
VERTEX
8
0
10
273.948705
20
-348.682552
30
0.000000
0
VERTEX
8
0
10
276.988936
20
-348.346746
30
0.000000
0
VERTEX
8
0
10
279.992555
20
-348.007775
30
0.000000
0
VERTEX
8
0
10
282.958985
20
-347.665682
30
0.000000
0
VERTEX
8
0
10
287.968982
20
-347.070536
30
0.000000
0
VERTEX
8
0
10
292.864499
20
-346.466505
30
0.000000
0
VERTEX
8
0
10
295.268413
20
-346.161224
30
0.000000
0
VERTEX
8
0
10
297.642612
20
-345.853802
30
0.000000
0
VERTEX
8
0
10
299.986729
20
-345.544266
30
0.000000
0
VERTEX
8
0
10
302.300399
20
-345.232642
30
0.000000
0
VERTEX
8
0
10
304.583256
20
-344.918956
30
0.000000
0
VERTEX
8
0
10
306.834936
20
-344.603236
30
0.000000
0
VERTEX
8
0
10
309.055074
20
-344.285509
30
0.000000
0
VERTEX
8
0
10
312.661811
20
-343.754928
30
0.000000
0
VERTEX
8
0
10
316.179360
20
-343.219035
30
0.000000
0
VERTEX
8
0
10
319.606059
20
-342.677950
30
0.000000
0
VERTEX
8
0
10
322.940250
20
-342.131796
30
0.000000
0
VERTEX
8
0
10
326.180271
20
-341.580692
30
0.000000
0
VERTEX
8
0
10
329.324464
20
-341.024762
30
0.000000
0
VERTEX
8
0
10
332.371169
20
-340.464126
30
0.000000
0
VERTEX
8
0
10
335.318725
20
-339.898905
30
0.000000
0
VERTEX
8
0
10
338.165473
20
-339.329221
30
0.000000
0
VERTEX
8
0
10
340.148377
20
-338.917072
30
0.000000
0
VERTEX
8
0
10
342.077730
20
-338.502725
30
0.000000
0
VERTEX
8
0
10
343.952915
20
-338.086225
30
0.000000
0
VERTEX
8
0
10
345.773316
20
-337.667618
30
0.000000
0
VERTEX
8
0
10
347.538316
20
-337.246947
30
0.000000
0
VERTEX
8
0
10
349.247300
20
-336.824260
30
0.000000
0
VERTEX
8
0
10
350.899651
20
-336.399599
30
0.000000
0
VERTEX
8
0
10
352.494753
20
-335.973011
30
0.000000
0
VERTEX
8
0
10
354.031989
20
-335.544541
30
0.000000
0
VERTEX
8
0
10
355.100790
20
-335.235440
30
0.000000
0
VERTEX
8
0
10
356.139151
20
-334.925407
30
0.000000
0
VERTEX
8
0
10
357.146842
20
-334.614459
30
0.000000
0
VERTEX
8
0
10
358.123634
20
-334.302611
30
0.000000
0
VERTEX
8
0
10
359.069300
20
-333.989881
30
0.000000
0
VERTEX
8
0
10
359.983609
20
-333.676285
30
0.000000
0
VERTEX
8
0
10
360.866334
20
-333.361841
30
0.000000
0
VERTEX
8
0
10
361.717244
20
-333.046565
30
0.000000
0
VERTEX
8
0
10
362.536113
20
-332.730473
30
0.000000
0
VERTEX
8
0
10
363.656639
20
-332.274696
30
0.000000
0
VERTEX
8
0
10
364.709800
20
-331.817319
30
0.000000
0
VERTEX
8
0
10
365.694916
20
-331.358391
30
0.000000
0
VERTEX
8
0
10
366.611306
20
-330.897963
30
0.000000
0
VERTEX
8
0
10
367.458292
20
-330.436082
30
0.000000
0
VERTEX
8
0
10
368.235193
20
-329.972800
30
0.000000
0
VERTEX
8
0
10
368.941330
20
-329.508166
30
0.000000
0
VERTEX
8
0
10
369.576022
20
-329.042230
30
0.000000
0
VERTEX
8
0
10
370.138590
20
-328.575041
30
0.000000
0
VERTEX
8
0
10
370.571139
20
-328.165262
30
0.000000
0
VERTEX
8
0
10
370.947492
20
-327.754596
30
0.000000
0
VERTEX
8
0
10
371.267195
20
-327.343075
30
0.000000
0
VERTEX
8
0
10
371.529790
20
-326.930733
30
0.000000
0
VERTEX
8
0
10
371.734824
20
-326.517604
30
0.000000
0
VERTEX
8
0
10
371.881840
20
-326.103720
30
0.000000
0
VERTEX
8
0
10
371.970384
20
-325.689115
30
0.000000
0
VERTEX
8
0
10
372.000000
20
-325.273822
30
0.000000
0
SEQEND
8
0
0
POLYLINE
8
0
6
Continuous
70
0
66
 1
10
0.0
20
0.0
30
0.000000
0
VERTEX
8
0
10
372.000000
20
-321.273822
30
0.000000
0
VERTEX
8
0
10
371.825827
20
-319.586408
30
0.000000
0
VERTEX
8
0
10
371.575203
20
-317.922835
30
0.000000
0
VERTEX
8
0
10
371.248925
20
-316.282935
30
0.000000
0
VERTEX
8
0
10
370.847787
20
-314.666540
30
0.000000
0
VERTEX
8
0
10
370.372587
20
-313.073484
30
0.000000
0
VERTEX
8
0
10
369.824120
20
-311.503598
30
0.000000
0
VERTEX
8
0
10
369.203181
20
-309.956715
30
0.000000
0
VERTEX
8
0
10
368.510567
20
-308.432666
30
0.000000
0
VERTEX
8
0
10
367.747073
20
-306.931284
30
0.000000
0
VERTEX
8
0
10
366.974381
20
-305.555654
30
0.000000
0
VERTEX
8
0
10
366.141753
20
-304.199336
30
0.000000
0
VERTEX
8
0
10
365.249830
20
-302.862196
30
0.000000
0
VERTEX
8
0
10
364.299250
20
-301.544097
30
0.000000
0
VERTEX
8
0
10
363.290654
20
-300.244907
30
0.000000
0
VERTEX
8
0
10
362.224680
20
-298.964489
30
0.000000
0
VERTEX
8
0
10
361.101969
20
-297.702710
30
0.000000
0
VERTEX
8
0
10
359.923160
20
-296.459434
30
0.000000
0
VERTEX
8
0
10
358.688892
20
-295.234527
30
0.000000
0
VERTEX
8
0
10
357.492222
20
-294.112105
30
0.000000
0
VERTEX
8
0
10
356.248684
20
-293.005334
30
0.000000
0
VERTEX
8
0
10
354.958793
20
-291.914107
30
0.000000
0
VERTEX
8
0
10
353.623063
20
-290.838316
30
0.000000
0
VERTEX
8
0
10
352.242007
20
-289.777851
30
0.000000
0
VERTEX
8
0
10
350.816138
20
-288.732604
30
0.000000
0
VERTEX
8
0
10
349.345972
20
-287.702468
30
0.000000
0
VERTEX
8
0
10
347.832022
20
-286.687335
30
0.000000
0
VERTEX
8
0
10
346.274801
20
-285.687094
30
0.000000
0
VERTEX
8
0
10
344.788709
20
-284.770449
30
0.000000
0
VERTEX
8
0
10
343.266075
20
-283.866495
30
0.000000
0
VERTEX
8
0
10
341.707312
20
-282.975147
30
0.000000
0
VERTEX
8
0
10
340.112832
20
-282.096317
30
0.000000
0
VERTEX
8
0
10
338.483048
20
-281.229919
30
0.000000
0
VERTEX
8
0
10
336.818374
20
-280.375865
30
0.000000
0
VERTEX
8
0
10
335.119222
20
-279.534068
30
0.000000
0
VERTEX
8
0
10
333.386006
20
-278.704442
30
0.000000
0
VERTEX
8
0
10
331.619137
20
-277.886899
30
0.000000
0
VERTEX
8
0
10
328.245821
20
-276.398605
30
0.000000
0
VERTEX
8
0
10
324.760244
20
-274.951225
30
0.000000
0
VERTEX
8
0
10
321.165058
20
-273.544202
30
0.000000
0
VERTEX
8
0
10
317.462920
20
-272.176975
30
0.000000
0
VERTEX
8
0
10
313.656484
20
-270.848986
30
0.000000
0
VERTEX
8
0
10
309.748403
20
-269.559675
30
0.000000
0
VERTEX
8
0
10
305.741333
20
-268.308483
30
0.000000
0
VERTEX
8
0
10
301.637928
20
-267.094851
30
0.000000
0
VERTEX
8
0
10
297.440841
20
-265.918219
30
0.000000
0
VERTEX
8
0
10
293.761145
20
-264.936186
30
0.000000
0
VERTEX
8
0
10
290.015908
20
-263.980711
30
0.000000
0
VERTEX
8
0
10
286.206815
20
-263.051438
30
0.000000
0
VERTEX
8
0
10
282.335550
20
-262.148014
30
0.000000
0
VERTEX
8
0
10
278.403799
20
-261.270082
30
0.000000
0
VERTEX
8
0
10
274.413246
20
-260.417287
30
0.000000
0
VERTEX
8
0
10
270.365575
20
-259.589276
30
0.000000
0
VERTEX
8
0
10
266.262472
20
-258.785692
30
0.000000
0
VERTEX
8
0
10
262.105620
20
-258.006182
30
0.000000
0
VERTEX
8
0
10
258.491667
20
-257.355252
30
0.000000
0
VERTEX
8
0
10
254.840332
20
-256.721614
30
0.000000
0
VERTEX
8
0
10
251.152686
20
-256.105041
30
0.000000
0
VERTEX
8
0
10
247.429797
20
-255.505309
30
0.000000
0
VERTEX
8
0
10
243.672735
20
-254.922192
30
0.000000
0
VERTEX
8
0
10
239.882569
20
-254.355464
30
0.000000
0
VERTEX
8
0
10
236.060368
20
-253.804902
30
0.000000
0
VERTEX
8
0
10
232.207201
20
-253.270278
30
0.000000
0
VERTEX
8
0
10
224.412247
20
-252.247947
30
0.000000
0
VERTEX
8
0
10
217.748543
20
-251.432918
30
0.000000
0
VERTEX
8
0
10
211.010932
20
-250.660272
30
0.000000
0
VERTEX
8
0
10
204.204552
20
-249.928924
30
0.000000
0
VERTEX
8
0
10
197.334540
20
-249.237794
30
0.000000
0
VERTEX
8
0
10
190.406034
20
-248.585798
30
0.000000
0
VERTEX
8
0
10
183.424173
20
-247.971854
30
0.000000
0
VERTEX
8
0
10
176.394094
20
-247.394880
30
0.000000
0
VERTEX
8
0
10
169.320935
20
-246.853792
30
0.000000
0
VERTEX
8
0
10
162.209835
20
-246.347508
30
0.000000
0
VERTEX
8
0
10
151.931470
20
-245.678526
30
0.000000
0
VERTEX
8
0
10
141.600583
20
-245.076010
30
0.000000
0
VERTEX
8
0
10
131.232433
20
-244.536746
30
0.000000
0
VERTEX
8
0
10
120.842285
20
-244.057515
30
0.000000
0
VERTEX
8
0
10
110.445400
20
-243.635104
30
0.000000
0
VERTEX
8
0
10
100.057039
20
-243.266295
30
0.000000
0
VERTEX
8
0
10
89.692467
20
-242.947873
30
0.000000
0
VERTEX
8
0
10
79.366943
20
-242.676623
30
0.000000
0
VERTEX
8
0
10
69.095732
20
-242.449328
30
0.000000
0
VERTEX
8
0
10
60.164972
20
-242.283974
30
0.000000
0
VERTEX
8
0
10
51.297704
20
-242.147657
30
0.000000
0
VERTEX
8
0
10
42.504153
20
-242.038223
30
0.000000
0
VERTEX
8
0
10
33.794543
20
-241.953516
30
0.000000
0
VERTEX
8
0
10
25.179098
20
-241.891384
30
0.000000
0
VERTEX
8
0
10
16.668043
20
-241.849671
30
0.000000
0
VERTEX
8
0
10
12.454857
20
-241.835798
30
0.000000
0
VERTEX
8
0
10
8.271602
20
-241.826223
30
0.000000
0
VERTEX
8
0
10
4.119557
20
-241.820675
30
0.000000
0
VERTEX
8
0
10
0.000000
20
-241.818885
30
0.000000
0
SEQEND
8
0
0
LINE
8
0
6
Continuous
10
0.000000
20
-241.818885
30
0.000000
11
0.000000
21
-361.818885
31
0.000000
0
LINE
8
0
6
Continuous
10
372.000000
20
-321.273822
30
0.000000
11
372.000000
21
-325.273822
31
0.000000
0
INSERT
8
Region
62
8
6
Continuous
2
*R
10
186.000000
20
-301.818854
41
1.000000
42
1.000000
50
0.000000
0
DIMENSION
8
Dimensions
6
Continuous
2
*B6
10
85.783887
20
-324.770785
30
0.000000
11
85.953624
21
-343.294490
31
0.000000
70
5
13
86.010204
23
-361.818885
33
0.000000
14
85.783887
24
-324.770785
34
0.000000
15
-2946.493480
25
-361.818885
35
0.000000
1001
ACAD
1000
DTSYLE
1002
{
1070
5
1000
CLOSEDFILLED
1070
6
1000
CLOSEDFILLED
1070
7
1000
CLOSEDFILLED
1070
176
1070
-2.000000
1070
371
1070
0.000000
1070
372
1070
0.000000
1002
}
0
TEXT
8
Comments
6
Continuous
7
Standard
10
24.030346
20
-220.684044
72
76
73
208
11
24.030346
21
-220.684044
40
3.333333
41
1.000000
50
0.000000
1
Spline 1. Point
0
POINT
8
Comments
6
Continuous
10
0.000000
20
-241.818885
0
LINE
8
Comments
6
Continuous
10
30.022602
20
-223.967256
30
0.000000
11
5.555196
21
-237.828181
31
0.000000
0
POINT
8
Comments
6
Continuous
10
372.000000
20
-321.273822
0
TEXT
8
Comments
6
Continuous
7
Standard
10
395.657391
20
-298.295280
40
3.333333
41
1.000000
50
0.000000
1
Spline 2. Point
0
LINE
8
Comments
6
Continuous
10
401.649647
20
-301.578493
30
0.000000
11
373.398636
21
-320.058026
31
0.000000
0
POINT
8
Comments
6
Continuous
10
372.000000
20
-325.273822
0
TEXT
8
Comments
6
Continuous
7
Standard
10
394.460683
20
-349.341875
40
3.333333
41
1.000000
50
0.000000
1
Spline 2. Point
0
LINE
8
Comments
6
Continuous
10
396.640670
20
-340.371367
30
0.000000
11
374.624008
21
-326.321039
31
0.000000
0
LINE
8
Comments
6
Continuous
10
402.399108
20
-323.189532
30
0.000000
11
373.807093
21
-323.189532
31
0.000000
0
TEXT
8
Comments
6
Continuous
7
Standard
10
406.892139
20
-324.167971
72
13
73
216
11
406.892139
21
-324.167971
40
3.333333
41
1.000000
50
0.000000
1
Straight Line
0
TEXT
8
Comments
6
Continuous
7
Standard
10
13.157010
20
-376.916593
72
141
73
153
11
13.157010
21
-376.916593
40
3.333333
41
1.000000
50
0.000000
1
Spline 1. Point
0
LINE
8
Comments
6
Continuous
10
14.450092
20
-370.173303
30
0.000000
11
1.749356
21
-363.622397
31
0.000000
0
POINT
8
Comments
6
Continuous
10
0.000000
20
-361.818885
0
TEXT
8
Title_Text
6
Continuous
7
Standard
10
-326.819615
20
-272.749239
40
10.000000
41
1.000000
50
0.000000
1
V-Tail angle                97°
0
TEXT
8
Title_Text
6
Continuous
7
Standard
10
-325.854817
20
-305.249239
72
147
73
63
11
-325.854817
21
-305.249239
40
10.000000
41
1.000000
50
0.000000
1
V-Tail area (proj)        5.49 dm²
0
TEXT
8
Title_Text
6
Continuous
7
Standard
10
-325.854817
20
-337.749239
72
147
73
63
11
-325.854817
21
-337.749239
40
10.000000
41
1.000000
50
0.000000
1
V-Tail aspect ratio       7.5
0
TEXT
8
Airfoils
6
Continuous
7
Head1
10
-20.527928
20
-204.379209
72
147
73
63
11
-20.527928
21
-204.379209
40
5.333333
41
1.000000
50
0.000000
1
JX F-250  (7,5%)
0
TEXT
8
Airfoils
6
Continuous
7
Head1
10
336.972594
20
-204.474932
72
130
73
106
11
336.972594
21
-204.474932
40
5.333333
41
1.000000
50
0.000000
1
JX F-150  (7,0%)
0
DIMENSION
8
Comments
6
Continuous
62
214
2
*B8
10
28.911637
20
-242.613063
30
0.000000
11
20.426744
21
-263.097407
31
0.000000
70
5
13
-0.057600
23
-271.582300
33
0.000000
14
28.911637
24
-242.613063
34
0.000000
15
-0.057600
25
-242.613063
35
0.000000
1001
ACAD
1000
DTSYLE
1002
{
1070
5
1000
CLOSEDFILLED
1070
6
1000
CLOSEDFILLED
1070
7
1000
CLOSEDFILLED
1070
176
1070
-2.000000
1070
371
1070
0.000000
1070
372
1070
0.000000
1002
}
0
DIMENSION
8
Comments
6
Continuous
62
214
2
*B10
10
0.000000
20
-328.673508
30
0.000000
11
23.437321
21
-338.381564
31
0.000000
70
5
13
33.145377
23
-361.818885
33
0.000000
14
0.000000
24
-241.818885
34
0.000000
15
0.000000
25
-361.818885
35
0.000000
1001
ACAD
1000
DTSYLE
1002
{
1070
5
1000
CLOSEDFILLED
1070
6
1000
CLOSEDFILLED
1070
7
1000
CLOSEDFILLED
1070
176
1070
-2.000000
1070
371
1070
0.000000
1070
372
1070
0.000000
1002
}
0
TEXT
8
Title_Text
62
253
6
Continuous
7
Standard
10
-665.145844
20
-338.169901
72
76
73
208
11
-665.145844
21
-338.169901
40
66.666667
41
1.000000
50
0.000000
1
V-
0
TEXT
8
Title_Text
6
Continuous
7
Standard
10
-546.235030
20
-336.842466
72
0
73
220
11
-546.235030
21
-336.842466
40
66.666667
41
1.000000
50
0.000000
1
JX
0
TEXT
8
Comments
6
Continuous
7
Standard
10
90.790640
20
-298.346543
72
96
73
205
11
90.790640
21
-298.346543
40
3.333333
41
1.000000
50
0.000000
1
Area 3,656dm²
0
ENDSEC
0
EOF
